<?xml version="1.0" standalone="no" ?>
<!DOCTYPE svg PUBLIC "-//W3C//DTD SVG 1.1//EN" "http://www.w3.org/Graphics/SVG/1.1/DTD/svg11.dtd">
<svg width="423px" height="136px" viewBox="0 0 423 136" style="background-color: #ffffff00" xmlns="http://www.w3.org/2000/svg" xmlns:xlink="http://www.w3.org/1999/xlink" version="1.1" >
<text x="0" y="0" stroke="none" fill="#000000" transform="matrix(0.05 0 0 0.05 92.0585 13.0725)" font-style="normal" font-weight="normal" font-size="200px" font-family="Arial" >
O</text>
<text x="0" y="0" stroke="none" fill="#000000" transform="matrix(0.05 0 0 0.05 92.6127 29.0535)" font-style="normal" font-weight="normal" font-size="200px" font-family="Arial" >
S</text>
<path stroke="none" fill="#000000" transform="matrix(0.05 0 0 0.05 -25 -166)" d="M 2438.92,3616.97 L 2456.52,3616.97 L 2456.52,3723.64 L 2438.92,3723.64 L 2438.92,3616.97 Z " />
<path stroke="none" fill="#000000" transform="matrix(0.05 0 0 0.05 -25 -166)" d="M 2381.39,3616.97 L 2398.99,3616.97 L 2398.99,3723.64 L 2381.39,3723.64 L 2381.39,3616.97 Z " />
<text x="0" y="0" stroke="none" fill="#000000" transform="matrix(0.05 0 0 0.05 106.873 37.286)" font-style="normal" font-weight="normal" font-size="200px" font-family="Arial" >
Cl</text>
<path stroke="none" fill="#000000" transform="matrix(0.05 0 0 0.05 -25 -166)" d="M 2503.34,3887.35 L 2512.02,3872.04 L 2627.48,3937.43 L 2618.81,3952.75 L 2503.34,3887.35 Z " />
<text x="0" y="0" stroke="none" fill="#000000" transform="matrix(0.05 0 0 0.05 75.1443 36.2535)" font-style="normal" font-weight="normal" font-size="200px" font-family="Arial" >
Cl</text>
<path stroke="none" fill="#000000" transform="matrix(0.05 0 0 0.05 -25 -166)" d="M 2325.68,3873.13 L 2334.48,3888.37 L 2230.31,3948.51 L 2221.51,3933.27 L 2325.68,3873.13 Z " />
<text x="0" y="0" stroke="none" fill="#000000" transform="matrix(0.05 0 0 0.05 46.3545 35.2325)" font-style="normal" font-weight="normal" font-size="200px" font-family="Arial" >
O</text>
<path stroke="none" fill="#000000" transform="matrix(0.05 0 0 0.05 -25 -166)" d="M 1521.99,4060.17 L 1539.59,4060.17 L 1539.59,4255.99 L 1521.99,4255.99 L 1521.99,4060.17 Z " />
<path stroke="none" fill="#000000" transform="matrix(0.05 0 0 0.05 -25 -166)" d="M 1470.15,4060.17 L 1487.75,4060.17 L 1487.75,4255.99 L 1470.15,4255.99 L 1470.15,4060.17 Z " />
<text x="0" y="0" stroke="none" fill="#000000" transform="matrix(0.05 0 0 0.05 58.8245 56.8325)" font-style="normal" font-weight="normal" font-size="200px" font-family="Arial" >
OH</text>
<path stroke="none" fill="#000000" transform="matrix(0.05 0 0 0.05 -25 -166)" d="M 1505.07,4250.74 L 1505.03,4230.38 L 1668.39,4325.27 L 1659.59,4340.51 L 1505.07,4250.74 Z " />
<path stroke="none" fill="#000000" transform="matrix(0.05 0 0 0.05 -25 -166)" d="M 1505.03,4230.38 L 1505.07,4250.74 L 1255.47,4395.55 L 1255.47,4375.2 L 1505.03,4230.38 Z " />
<path stroke="none" fill="#000000" transform="matrix(0.05 0 0 0.05 -25 -166)" d="M 1255.47,4375.2 L 1255.47,4395.55 L 1005.96,4250.78 L 1005.97,4230.42 L 1255.47,4375.2 Z " />
<text x="0" y="0" stroke="none" fill="#000000" transform="matrix(0.05 0 0 0.05 1.72278 56.8325)" font-style="normal" font-weight="normal" font-size="200px" font-family="Arial" >
Me</text>
<path stroke="none" fill="#000000" transform="matrix(0.05 0 0 0.05 -25 -166)" d="M 1005.97,4230.42 L 1005.96,4250.78 L 824.702,4355.9 L 815.902,4340.66 L 1005.97,4230.42 Z " />
<path stroke="#000000" stroke-width="18" fill="none" transform="matrix(0.05 0 0 0.05 -25 -166)" d="M 1544.13,4152.76 C 1544.13,4152.76 1807.63,3657.38 2239.77,3783.86 " />
<path stroke="none" fill="#000000" transform="matrix(0.05 0 0 0.05 -25 -166)" d="M 2206.3,3819.91 L 2239.77,3783.86 L 2231.02,3735.45 L 2353.79,3817.23 Z " />
<path stroke="none" fill="#000000" transform="matrix(0.05 0 0 0.05 -25 -166)" d="M 1661.45,4479 A 15.6966,15.6966 0 1 0 1692.84,4479A 15.6966,15.6966 0 1 0 1661.45,4479Z " />
<path stroke="none" fill="#000000" transform="matrix(0.05 0 0 0.05 -25 -166)" d="M 1727.97,4502.75 A 15.6966,15.6966 0 1 0 1759.36,4502.75A 15.6966,15.6966 0 1 0 1727.97,4502.75Z " />
<path stroke="#000000" stroke-width="18" fill="none" transform="matrix(0.05 0 0 0.05 -25 -166)" d="M 1688.62,4531.92 C 1688.62,4531.92 1434.05,4795.06 1481.37,4400.6 " />
<path stroke="none" fill="#000000" transform="matrix(0.05 0 0 0.05 -25 -166)" d="M 1522.44,4427.68 L 1481.37,4400.6 L 1435.06,4417.2 L 1495.52,4282.64 Z " />
<path stroke="none" fill="#000000" transform="matrix(0.05 0 0 0.05 -25 -166)" d="M 3686.08,4324.37 L 2931.11,4324.37 L 2931.11,4306.37 L 3686.08,4306.37 Z " />
<path stroke="none" fill="#000000" transform="matrix(0.05 0 0 0.05 -25 -166)" d="M 3839.08,4315.37 C 3839.08,4315.37 3663.08,4360.37 3663.08,4360.37 C 3663.08,4360.37 3685.08,4335.06 3685.08,4315.37 C 3685.08,4295.24 3663.08,4269.37 3663.08,4269.37 C 3663.08,4269.37 3839.08,4315.37 3839.08,4315.37 C 3839.08,4315.37 3839.08,4315.37 3839.08,4315.37 " />
<path stroke="#000000" stroke-width="1" fill="none" transform="matrix(0.05 0 0 0.05 -25 -166)" d="M 3839.08,4315.37 C 3839.08,4315.37 3663.08,4360.37 3663.08,4360.37 C 3663.08,4360.37 3685.08,4335.06 3685.08,4315.37 C 3685.08,4295.24 3663.08,4269.37 3663.08,4269.37 C 3663.08,4269.37 3839.08,4315.37 3839.08,4315.37 C 3839.08,4315.37 3839.08,4315.37 3839.08,4315.37 " />
<text x="0" y="0" stroke="none" fill="#000000" transform="matrix(0.05 0 0 0.05 242.32 9.87547)" font-style="normal" font-weight="normal" font-size="200px" font-family="Arial" >
O</text>
<text x="0" y="0" stroke="none" fill="#000000" transform="matrix(0.05 0 0 0.05 242.874 25.8565)" font-style="normal" font-weight="normal" font-size="200px" font-family="Arial" >
S</text>
<path stroke="none" fill="#000000" transform="matrix(0.05 0 0 0.05 -25 -166)" d="M 5444.15,3553.03 L 5461.75,3553.03 L 5461.75,3659.7 L 5444.15,3659.7 L 5444.15,3553.03 Z " />
<path stroke="none" fill="#000000" transform="matrix(0.05 0 0 0.05 -25 -166)" d="M 5386.62,3553.03 L 5404.22,3553.03 L 5404.22,3659.7 L 5386.62,3659.7 L 5386.62,3553.03 Z " />
<text x="0" y="0" stroke="none" fill="#000000" transform="matrix(0.05 0 0 0.05 256.987 34.9747)" font-style="normal" font-weight="normal" font-size="200px" font-family="Arial" >
Cl</text>
<path stroke="none" fill="#000000" transform="matrix(0.05 0 0 0.05 -25 -166)" d="M 5506.44,3828.04 L 5515.86,3813.17 L 5632.18,3886.88 L 5622.76,3901.75 L 5506.44,3828.04 Z " />
<text x="0" y="0" stroke="none" fill="#000000" transform="matrix(0.05 0 0 0.05 225.39 35.2325)" font-style="normal" font-weight="normal" font-size="200px" font-family="Arial" >
O</text>
<path stroke="none" fill="#000000" transform="matrix(0.05 0 0 0.05 -25 -166)" d="M 5076.78,4060.17 L 5094.38,4060.17 L 5094.82,4271.8 L 5077.2,4261.61 L 5076.78,4060.17 Z " />
<text x="0" y="0" stroke="none" fill="#000000" transform="matrix(0.05 0 0 0.05 237.86 58.1113)" font-style="normal" font-weight="normal" font-size="200px" font-family="Arial" >
OH</text>
<path stroke="none" fill="#000000" transform="matrix(0.05 0 0 0.05 -25 -166)" d="M 5081.18,4244.29 L 5089.98,4229.05 L 5262.8,4328.83 L 5254,4344.07 L 5081.18,4244.29 Z " />
<path stroke="none" fill="#000000" transform="matrix(0.05 0 0 0.05 -25 -166)" d="M 5055.26,4289.18 L 5064.06,4273.94 L 5236.88,4373.72 L 5228.08,4388.97 L 5055.26,4289.18 Z " />
<path stroke="none" fill="#000000" transform="matrix(0.05 0 0 0.05 -25 -166)" d="M 5077.2,4261.61 L 5094.82,4271.8 L 4836.18,4421.13 L 4836.18,4400.78 L 5077.2,4261.61 Z " />
<path stroke="none" fill="#000000" transform="matrix(0.05 0 0 0.05 -25 -166)" d="M 4836.18,4400.78 L 4836.18,4421.13 L 4586.66,4276.35 L 4586.68,4256 L 4836.18,4400.78 Z " />
<text x="0" y="0" stroke="none" fill="#000000" transform="matrix(0.05 0 0 0.05 180.758 58.1113)" font-style="normal" font-weight="normal" font-size="200px" font-family="Arial" >
Me</text>
<path stroke="none" fill="#000000" transform="matrix(0.05 0 0 0.05 -25 -166)" d="M 4586.68,4256 L 4586.66,4276.35 L 4405.09,4381.66 L 4396.29,4366.42 L 4586.68,4256 Z " />
<path stroke="none" fill="#000000" transform="matrix(0.05 0 0 0.05 -25 -166)" d="M 5180.13,3910.72 L 5171.6,3895.32 L 5330.4,3807.38 L 5338.92,3822.78 L 5180.13,3910.72 Z " />
<path stroke="#000000" stroke-width="14" fill="none" transform="matrix(0.05 0 0 0.05 -25 -166)" d="M 5250.24,4605.21 A 74.0399,74.0399 0 1 0 5398.32,4605.21A 74.0399,74.0399 0 1 0 5250.24,4605.21Z " />
<path stroke="none" fill="#000000" transform="matrix(0.05 0 0 0.05 -25 -166)" d="M 5281.81,4597.88 L 5366.08,4597.88 L 5366.08,4611.88 L 5281.81,4611.88 Z " />
<path stroke="none" fill="#000000" transform="matrix(0.05 0 0 0.05 -25 -166)" d="M 5330.95,4562.75 L 5330.95,4647.01 L 5316.95,4647.01 L 5316.95,4562.75 Z " />
<text x="0" y="0" stroke="none" fill="#000000" transform="matrix(0.05 0 0 0.05 193.809 29.6599)" font-style="normal" font-weight="normal" font-size="200px" font-family="Arial" >
Cl</text>
<path stroke="#000000" stroke-width="14" fill="none" transform="matrix(0.05 0 0 0.05 -25 -166)" d="M 4541.92,3699.07 A 74.0399,74.0399 0 1 0 4690,3699.07A 74.0399,74.0399 0 1 0 4541.92,3699.07Z " />
<path stroke="none" fill="#000000" transform="matrix(0.05 0 0 0.05 -25 -166)" d="M 4573.49,3691.74 L 4657.76,3691.74 L 4657.76,3705.74 L 4573.49,3705.74 Z " />
<path stroke="#000000" stroke-width="18" fill="none" transform="matrix(0.05 0 0 0.05 -25 -166)" d="M 4708.68,3661.49 C 4708.68,3661.49 5144.94,3378.51 4932.7,3732.24 C 4720.47,4085.96 4826.59,4085.96 4944.49,4180.29 " />
<path stroke="none" fill="#000000" transform="matrix(0.05 0 0 0.05 -25 -166)" d="M 4899.83,4200.9 L 4944.49,4180.29 L 4954.8,4132.18 L 5037.26,4254.5 Z " />
<text x="0" y="0" stroke="none" fill="#000000" transform="matrix(0.05 0 0 0.05 140.176 45.407)" font-style="normal" font-weight="bold" font-size="200px" font-family="Arial" >
A</text>
<path stroke="none" fill="#000000" transform="matrix(0.05 0 0 0.05 -25 -166)" d="M 6835.1,4324.37 L 6080.14,4324.37 L 6080.14,4306.37 L 6835.1,4306.37 Z " />
<path stroke="none" fill="#000000" transform="matrix(0.05 0 0 0.05 -25 -166)" d="M 6988.1,4315.37 C 6988.1,4315.37 6812.1,4360.37 6812.1,4360.37 C 6812.1,4360.37 6834.1,4335.06 6834.1,4315.37 C 6834.1,4295.24 6812.1,4269.37 6812.1,4269.37 C 6812.1,4269.37 6988.1,4315.37 6988.1,4315.37 C 6988.1,4315.37 6988.1,4315.37 6988.1,4315.37 " />
<path stroke="#000000" stroke-width="1" fill="none" transform="matrix(0.05 0 0 0.05 -25 -166)" d="M 6988.1,4315.37 C 6988.1,4315.37 6812.1,4360.37 6812.1,4360.37 C 6812.1,4360.37 6834.1,4335.06 6834.1,4315.37 C 6834.1,4295.24 6812.1,4269.37 6812.1,4269.37 C 6812.1,4269.37 6988.1,4315.37 6988.1,4315.37 C 6988.1,4315.37 6988.1,4315.37 6988.1,4315.37 " />
<text x="0" y="0" stroke="none" fill="#000000" transform="matrix(0.05 0 0 0.05 294.661 45.407)" font-style="normal" font-weight="bold" font-size="200px" font-family="Arial" >
B</text>
<text x="0" y="0" stroke="none" fill="#000000" transform="matrix(0.05 0 0 0.05 396.674 62.7146)" font-style="normal" font-weight="normal" font-size="200px" font-family="Arial" >
OH</text>
<path stroke="none" fill="#000000" transform="matrix(0.05 0 0 0.05 -25 -166)" d="M 8262.05,4368.38 L 8261.85,4358.66 L 8276.68,4358.47 L 8425.8,4443.16 L 8417,4458.4 L 8262.05,4368.38 Z " />
<path stroke="none" fill="#000000" transform="matrix(0.05 0 0 0.05 -25 -166)" d="M 8246.16,4358.52 L 8261.85,4358.66 L 8262.05,4368.38 L 8012.45,4513.19 L 8012.45,4492.85 L 8246.16,4358.52 Z " />
<path stroke="none" fill="#000000" transform="matrix(0.05 0 0 0.05 -25 -166)" d="M 8012.45,4492.85 L 8012.45,4513.19 L 7762.94,4368.42 L 7762.95,4348.06 L 8012.45,4492.85 Z " />
<text x="0" y="0" stroke="none" fill="#000000" transform="matrix(0.05 0 0 0.05 339.572 62.7146)" font-style="normal" font-weight="normal" font-size="200px" font-family="Arial" >
Me</text>
<path stroke="none" fill="#000000" transform="matrix(0.05 0 0 0.05 -25 -166)" d="M 7762.95,4348.06 L 7762.94,4368.42 L 7582.12,4473.29 L 7573.32,4458.05 L 7762.95,4348.06 Z " />
<text x="0" y="0" stroke="none" fill="#000000" transform="matrix(0.05 0 0 0.05 367.289 48.3146)" font-style="normal" font-weight="normal" font-size="200px" font-family="Arial" >
Cl</text>
<path stroke="none" fill="#000000" transform="matrix(0.05 0 0 0.05 -25 -166)" d="M 8261.74,4348.89 L 8261.85,4358.66 L 8246.16,4358.52 L 8064.15,4254.68 L 8072.95,4239.44 L 8261.74,4348.89 Z " />
<text x="0" y="0" stroke="none" fill="#000000" transform="matrix(0.05 0 0 0.05 397.09 47.4839)" font-style="normal" font-weight="normal" font-size="200px" font-family="Arial" >
O</text>
<path stroke="none" fill="#000000" transform="matrix(0.05 0 0 0.05 -25 -166)" d="M 8276.68,4358.47 L 8261.85,4358.66 L 8261.74,4348.89 L 8425.73,4246.16 L 8435.04,4261.1 L 8276.68,4358.47 Z " />
<text x="0" y="0" stroke="none" fill="#000000" transform="matrix(0.05 0 0 0.05 397.644 31.4224)" font-style="normal" font-weight="normal" font-size="200px" font-family="Arial" >
S</text>
<path stroke="none" fill="#000000" transform="matrix(0.05 0 0 0.05 -25 -166)" d="M 8528.38,4092.2 L 8510.78,4092.2 L 8510.78,3984.02 L 8528.38,3984.02 L 8528.38,4092.2 Z " />
<text x="0" y="0" stroke="none" fill="#000000" transform="matrix(0.05 0 0 0.05 411.5 22.9764)" font-style="normal" font-weight="normal" font-size="200px" font-family="Arial" >
Cl</text>
<path stroke="none" fill="#000000" transform="matrix(0.05 0 0 0.05 -25 -166)" d="M 8608.33,3834.03 L 8599.3,3818.92 L 8712.13,3751.49 L 8721.16,3766.6 L 8608.33,3834.03 Z " />
<text x="0" y="0" stroke="none" fill="#000000" transform="matrix(0.05 0 0 0.05 383.373 22.9764)" font-style="normal" font-weight="normal" font-size="200px" font-family="Arial" >
O</text>
<path stroke="none" fill="#000000" transform="matrix(0.05 0 0 0.05 -25 -166)" d="M 8423.12,3841.14 L 8413.89,3856.13 L 8314.24,3794.77 L 8323.47,3779.78 L 8423.12,3841.14 Z " />
<path stroke="none" fill="#000000" transform="matrix(0.05 0 0 0.05 -25 -166)" d="M 8453.53,3791.76 L 8444.3,3806.75 L 8344.65,3745.39 L 8353.88,3730.4 L 8453.53,3791.76 Z " />
<path stroke="#000000" stroke-width="18" fill="none" transform="matrix(0.05 0 0 0.05 -25 -166)" d="M 8639.58,3763.2 C 8639.58,3763.2 8440.2,3239.84 8714.34,3538.9 " />
<path stroke="none" fill="#000000" transform="matrix(0.05 0 0 0.05 -25 -166)" d="M 8667.04,3552.42 L 8714.34,3538.9 L 8731.91,3492.96 L 8794.62,3626.48 Z " />
<path stroke="#000000" stroke-width="18" fill="none" transform="matrix(0.05 0 0 0.05 -25 -166)" d="M 8320.8,4279.2 C 8320.8,4279.2 8076,4075.2 8380.8,4058.4 " />
<path stroke="none" fill="#000000" transform="matrix(0.05 0 0 0.05 -25 -166)" d="M 8361.25,4103.54 L 8380.8,4058.4 L 8356.41,4015.68 L 8499.42,4051.86 Z " />
<path stroke="none" fill="#000000" transform="matrix(0.05 0 0 0.05 -25 -166)" d="M 8450.32,4626.66 A 16.6667,16.6667 0 1 0 8483.65,4626.66A 16.6667,16.6667 0 1 0 8450.32,4626.66Z " />
<path stroke="none" fill="#000000" transform="matrix(0.05 0 0 0.05 -25 -166)" d="M 8525.25,4629.97 A 16.6667,16.6667 0 1 0 8558.58,4629.97A 16.6667,16.6667 0 1 0 8525.25,4629.97Z " />
<path stroke="#000000" stroke-width="18" fill="none" transform="matrix(0.05 0 0 0.05 -25 -166)" d="M 8487.72,4668.54 C 8487.72,4668.54 8091.99,4929.39 8278.65,4540.95 " />
<path stroke="none" fill="#000000" transform="matrix(0.05 0 0 0.05 -25 -166)" d="M 8308.78,4579.83 L 8278.65,4540.95 L 8229.46,4541.72 L 8330.1,4433.87 Z " />
<path stroke="none" fill="#000000" transform="matrix(0.05 0 0 0.05 -25 -166)" d="M 1686.05,5807.75 L 654.384,5807.75 L 654.384,5789.75 L 1686.05,5789.75 Z " />
<path stroke="none" fill="#000000" transform="matrix(0.05 0 0 0.05 -25 -166)" d="M 1839.04,5798.75 C 1839.04,5798.75 1663.05,5843.75 1663.05,5843.75 C 1663.05,5843.75 1685.05,5818.44 1685.05,5798.75 C 1685.05,5778.63 1663.05,5752.75 1663.05,5752.75 C 1663.05,5752.75 1839.04,5798.75 1839.04,5798.75 C 1839.04,5798.75 1839.04,5798.75 1839.04,5798.75 " />
<path stroke="#000000" stroke-width="1" fill="none" transform="matrix(0.05 0 0 0.05 -25 -166)" d="M 1839.04,5798.75 C 1839.04,5798.75 1663.05,5843.75 1663.05,5843.75 C 1663.05,5843.75 1685.05,5818.44 1685.05,5798.75 C 1685.05,5778.63 1663.05,5752.75 1663.05,5752.75 C 1663.05,5752.75 1839.04,5798.75 1839.04,5798.75 C 1839.04,5798.75 1839.04,5798.75 1839.04,5798.75 " />
<text x="0" y="0" stroke="none" fill="#000000" transform="matrix(0.05 0 0 0.05 23.5514 119.109)" font-style="normal" font-weight="normal" font-size="200px" font-family="Arial" >
-</text>
<text x="0" y="0" stroke="none" fill="#000000" transform="matrix(0.05 0 0 0.05 26.8815 119.109)" font-style="normal" font-weight="normal" font-size="200px" font-family="Arial" >
SO</text>
<text x="0" y="0" stroke="none" fill="#000000" transform="matrix(0.05 0 0 0.05 41.3298 121.228)" font-style="normal" font-weight="normal" font-size="150px" font-family="Arial" >
2</text>
<text x="0" y="0" stroke="none" fill="#000000" transform="matrix(0.05 0 0 0.05 125.341 110.012)" font-style="normal" font-weight="normal" font-size="200px" font-family="Arial" >
O</text>
<text x="0" y="0" stroke="none" fill="#000000" transform="matrix(0.05 0 0 0.05 138.089 132.963)" font-style="normal" font-weight="normal" font-size="200px" font-family="Arial" >
Cl</text>
<path stroke="none" fill="#000000" transform="matrix(0.05 0 0 0.05 -25 -166)" d="M 3084.78,5773.35 L 3084.6,5763.62 L 3092.99,5758.84 L 3252.21,5850.24 L 3243.41,5865.48 L 3084.78,5773.35 Z " />
<path stroke="none" fill="#000000" transform="matrix(0.05 0 0 0.05 -25 -166)" d="M 3076.22,5758.64 L 3084.6,5763.62 L 3084.78,5773.35 L 2835.2,5918.16 L 2835.2,5897.81 L 3076.22,5758.64 Z " />
<path stroke="none" fill="#000000" transform="matrix(0.05 0 0 0.05 -25 -166)" d="M 2835.2,5897.81 L 2835.2,5918.16 L 2585.68,5773.38 L 2585.7,5753.03 L 2835.2,5897.81 Z " />
<text x="0" y="0" stroke="none" fill="#000000" transform="matrix(0.05 0 0 0.05 80.709 132.963)" font-style="normal" font-weight="normal" font-size="200px" font-family="Arial" >
Me</text>
<path stroke="none" fill="#000000" transform="matrix(0.05 0 0 0.05 -25 -166)" d="M 2585.7,5753.03 L 2585.68,5773.38 L 2404.11,5878.69 L 2395.31,5863.45 L 2585.7,5753.03 Z " />
<text x="0" y="0" stroke="none" fill="#000000" transform="matrix(0.05 0 0 0.05 141.608 98.9119)" font-style="normal" font-weight="normal" font-size="200px" font-family="Arial" >
H</text>
<path stroke="none" fill="#000000" transform="matrix(0.05 0 0 0.05 -25 -166)" d="M 3175.09,5396.49 L 3165.06,5382.04 L 3301.49,5287.32 L 3311.53,5301.78 L 3175.09,5396.49 Z " />
<path stroke="none" fill="#000000" transform="matrix(0.05 0 0 0.05 -25 -166)" d="M 3075.8,5555.75 L 3093.4,5555.75 L 3092.99,5758.84 L 3084.6,5763.62 L 3076.22,5758.64 L 3075.8,5555.75 Z " />
<path stroke="none" fill="#000000" transform="matrix(0.05 0 0 0.05 -25 -166)" d="M 3132.5,5555.75 L 3150.1,5555.75 L 3150.1,5730.89 L 3132.5,5730.89 L 3132.5,5555.75 Z " />
<path stroke="#000000" stroke-width="14" fill="none" transform="matrix(0.05 0 0 0.05 -25 -166)" d="M 2864.83,5320.71 A 74.0399,74.0399 0 1 0 3012.91,5320.71A 74.0399,74.0399 0 1 0 2864.83,5320.71Z " />
<path stroke="none" fill="#000000" transform="matrix(0.05 0 0 0.05 -25 -166)" d="M 2896.4,5313.37 L 2980.67,5313.37 L 2980.67,5327.37 L 2896.4,5327.37 Z " />
<path stroke="none" fill="#000000" transform="matrix(0.05 0 0 0.05 -25 -166)" d="M 2945.54,5278.24 L 2945.54,5362.51 L 2931.54,5362.51 L 2931.54,5278.24 Z " />
<path stroke="#000000" stroke-width="18" fill="none" transform="matrix(0.05 0 0 0.05 -25 -166)" d="M 3229.61,5320.37 C 3229.61,5320.37 3193.67,4881.28 3113.07,5250.77 " />
<path stroke="none" fill="#000000" transform="matrix(0.05 0 0 0.05 -25 -166)" d="M 3074.77,5219.89 L 3113.07,5250.77 L 3160.74,5238.65 L 3087.74,5366.84 Z " />
<path stroke="none" fill="#000000" transform="matrix(0.05 0 0 0.05 -25 -166)" d="M 4760.3,5807.75 L 3782.02,5807.75 L 3782.02,5789.75 L 4760.3,5789.75 Z " />
<path stroke="none" fill="#000000" transform="matrix(0.05 0 0 0.05 -25 -166)" d="M 4913.3,5798.75 C 4913.3,5798.75 4737.3,5843.75 4737.3,5843.75 C 4737.3,5843.75 4759.3,5818.44 4759.3,5798.75 C 4759.3,5778.63 4737.3,5752.75 4737.3,5752.75 C 4737.3,5752.75 4913.3,5798.75 4913.3,5798.75 C 4913.3,5798.75 4913.3,5798.75 4913.3,5798.75 " />
<path stroke="#000000" stroke-width="1" fill="none" transform="matrix(0.05 0 0 0.05 -25 -166)" d="M 4913.3,5798.75 C 4913.3,5798.75 4737.3,5843.75 4737.3,5843.75 C 4737.3,5843.75 4759.3,5818.44 4759.3,5798.75 C 4759.3,5778.63 4737.3,5752.75 4737.3,5752.75 C 4737.3,5752.75 4913.3,5798.75 4913.3,5798.75 C 4913.3,5798.75 4913.3,5798.75 4913.3,5798.75 " />
<text x="0" y="0" stroke="none" fill="#000000" transform="matrix(0.05 0 0 0.05 182.114 119.777)" font-style="normal" font-weight="normal" font-size="200px" font-family="Arial" >
-</text>
<text x="0" y="0" stroke="none" fill="#000000" transform="matrix(0.05 0 0 0.05 185.444 119.777)" font-style="normal" font-weight="normal" font-size="200px" font-family="Arial" >
H</text>
<text x="0" y="0" stroke="none" fill="#000000" transform="matrix(0.05 0 0 0.05 192.665 116.196)" font-style="normal" font-weight="normal" font-size="150px" font-family="Arial" >
+</text>
<text x="0" y="0" stroke="none" fill="#000000" transform="matrix(0.05 0 0 0.05 278.897 112.167)" font-style="normal" font-weight="normal" font-size="200px" font-family="Arial" >
O</text>
<path stroke="none" fill="#000000" transform="matrix(0.05 0 0 0.05 -25 -166)" d="M 6172.85,5598.87 L 6190.45,5598.87 L 6190.45,5794.68 L 6172.85,5794.68 L 6172.85,5598.87 Z " />
<path stroke="none" fill="#000000" transform="matrix(0.05 0 0 0.05 -25 -166)" d="M 6121.01,5598.87 L 6138.61,5598.87 L 6138.61,5794.68 L 6121.01,5794.68 L 6121.01,5598.87 Z " />
<text x="0" y="0" stroke="none" fill="#000000" transform="matrix(0.05 0 0 0.05 291.646 133.767)" font-style="normal" font-weight="normal" font-size="200px" font-family="Arial" >
Cl</text>
<path stroke="none" fill="#000000" transform="matrix(0.05 0 0 0.05 -25 -166)" d="M 6155.91,5789.44 L 6155.88,5769.08 L 6323.77,5866.58 L 6314.97,5881.82 L 6155.91,5789.44 Z " />
<path stroke="none" fill="#000000" transform="matrix(0.05 0 0 0.05 -25 -166)" d="M 6155.88,5769.08 L 6155.91,5789.44 L 5906.33,5934.25 L 5906.33,5913.9 L 6155.88,5769.08 Z " />
<path stroke="none" fill="#000000" transform="matrix(0.05 0 0 0.05 -25 -166)" d="M 5906.33,5913.9 L 5906.33,5934.25 L 5656.81,5789.47 L 5656.83,5769.12 L 5906.33,5913.9 Z " />
<text x="0" y="0" stroke="none" fill="#000000" transform="matrix(0.05 0 0 0.05 234.266 133.767)" font-style="normal" font-weight="normal" font-size="200px" font-family="Arial" >
Me</text>
<path stroke="none" fill="#000000" transform="matrix(0.05 0 0 0.05 -25 -166)" d="M 5656.83,5769.12 L 5656.81,5789.47 L 5475.24,5894.78 L 5466.44,5879.54 L 5656.83,5769.12 Z " />
<path stroke="#000000" stroke-width="18" fill="none" transform="matrix(0.05 0 0 0.05 -25 -166)" d="M 2556,3888 C 2556,3888 2791.2,3374.4 2748,3796.8 " />
<path stroke="none" fill="#000000" transform="matrix(0.05 0 0 0.05 -25 -166)" d="M 2706.47,3770.44 L 2748,3796.8 L 2794.01,3779.39 L 2735.91,3914.98 Z " />
</svg>
