<?xml version="1.0" standalone="no" ?>
<!DOCTYPE svg PUBLIC "-//W3C//DTD SVG 1.1//EN" "http://www.w3.org/Graphics/SVG/1.1/DTD/svg11.dtd">
<svg width="429px" height="249px" viewBox="0 0 429 249" style="background-color: #ffffff00" xmlns="http://www.w3.org/2000/svg" xmlns:xlink="http://www.w3.org/1999/xlink" version="1.1" >
<text x="0" y="0" stroke="none" fill="#000000" transform="matrix(0.05 0 0 0.05 2.28923 44.6495)" font-style="normal" font-weight="normal" font-size="200px" font-family="Arial" >
MeO</text>
<path stroke="none" fill="#000000" transform="matrix(0.05 0 0 0.05 -41 -115)" d="M 1470.79,3255.73 L 1470.79,3276.11 L 1307.38,3181.17 L 1316.18,3165.92 L 1470.79,3255.73 Z " />
<text x="0" y="0" stroke="none" fill="#000000" transform="matrix(0.05 0 0 0.05 41.3992 44.6495)" font-style="normal" font-weight="normal" font-size="200px" font-family="Arial" >
C</text>
<path stroke="none" fill="#000000" transform="matrix(0.05 0 0 0.05 -41 -115)" d="M 1470.79,3276.11 L 1470.79,3255.73 L 1628.89,3163.92 L 1637.69,3179.16 L 1470.79,3276.11 Z " />
<text x="0" y="0" stroke="none" fill="#000000" transform="matrix(0.05 0 0 0.05 55.7417 34.9532)" font-style="normal" font-weight="normal" font-size="200px" font-family="Arial" >
N</text>
<path stroke="none" fill="#000000" transform="matrix(0.05 0 0 0.05 -41 -115)" d="M 1776.74,3018.52 L 1766.89,3003.94 L 1867.77,2935.74 L 1877.63,2950.32 L 1776.74,3018.52 Z " />
<path stroke="none" fill="#000000" transform="matrix(0.05 0 0 0.05 -41 -115)" d="M 1811.65,3070.16 L 1801.79,3055.58 L 1902.68,2987.37 L 1912.54,3001.95 L 1811.65,3070.16 Z " />
<path stroke="none" fill="#000000" transform="matrix(0.05 0 0 0.05 -41 -115)" d="M 1846.56,3121.79 L 1836.7,3107.21 L 1937.59,3039 L 1947.44,3053.58 L 1846.56,3121.79 Z " />
<text x="0" y="0" stroke="none" fill="#000000" transform="matrix(0.05 0 0 0.05 33.231 78.5335)" font-style="normal" font-weight="normal" font-size="200px" font-family="Arial" >
Ph</text>
<path stroke="#000000" stroke-width="14" fill="none" transform="matrix(0.05 0 0 0.05 -41 -115)" d="M 1676.01,3686.17 A 74.0399,74.0399 0 1 0 1824.09,3686.17A 74.0399,74.0399 0 1 0 1676.01,3686.17Z " />
<path stroke="none" fill="#000000" transform="matrix(0.05 0 0 0.05 -41 -115)" d="M 1707.59,3678.84 L 1791.85,3678.84 L 1791.85,3692.84 L 1707.59,3692.84 Z " />
<text x="0" y="0" stroke="none" fill="#000000" transform="matrix(0.05 0 0 0.05 54.0709 78.2935)" font-style="normal" font-weight="normal" font-size="200px" font-family="Arial" >
MgBr</text>
<path stroke="#000000" stroke-width="14" fill="none" transform="matrix(0.05 0 0 0.05 -41 -115)" d="M 1908.21,3644.57 A 74.0399,74.0399 0 1 0 2056.29,3644.57A 74.0399,74.0399 0 1 0 1908.21,3644.57Z " />
<path stroke="none" fill="#000000" transform="matrix(0.05 0 0 0.05 -41 -115)" d="M 1939.79,3637.24 L 2024.05,3637.24 L 2024.05,3651.24 L 1939.79,3651.24 Z " />
<path stroke="none" fill="#000000" transform="matrix(0.05 0 0 0.05 -41 -115)" d="M 1988.92,3602.11 L 1988.92,3686.37 L 1974.92,3686.37 L 1974.92,3602.11 Z " />
<path stroke="none" fill="#000000" transform="matrix(0.05 0 0 0.05 -41 -115)" d="M 1747.17,3806.74 L 1746.9,3789.14 L 1883.15,3787.02 L 1883.42,3804.62 L 1747.17,3806.74 Z " />
<path stroke="#000000" stroke-width="14" fill="none" transform="matrix(0.05 0 0 0.05 -41 -115)" d="M 2316.61,3628.17 A 74.0399,74.0399 0 1 0 2464.69,3628.17A 74.0399,74.0399 0 1 0 2316.61,3628.17Z " />
<path stroke="none" fill="#000000" transform="matrix(0.05 0 0 0.05 -41 -115)" d="M 2348.19,3620.84 L 2432.45,3620.84 L 2432.45,3634.84 L 2348.19,3634.84 Z " />
<path stroke="#000000" stroke-width="18" fill="none" transform="matrix(0.05 0 0 0.05 -41 -115)" d="M 1747.52,3593.04 C 1747.52,3593.04 1851.72,3434.24 1816.92,3340.04 " />
<path stroke="none" fill="#000000" transform="matrix(0.05 0 0 0.05 -41 -115)" d="M 1865.81,3345.52 L 1816.92,3340.04 L 1783.2,3375.86 L 1775.96,3228.53 Z " />
<path stroke="#000000" stroke-width="18" fill="none" transform="matrix(0.05 0 0 0.05 -41 -115)" d="M 1807.84,2920.96 C 1807.84,2920.96 1945.12,2346.88 2007.52,2708.8 " />
<path stroke="none" fill="#000000" transform="matrix(0.05 0 0 0.05 -41 -115)" d="M 1960.42,2694.6 L 2007.52,2708.8 L 2047.14,2679.64 L 2027.7,2825.87 Z " />
<path stroke="none" fill="#000000" transform="matrix(0.05 0 0 0.05 -41 -115)" d="M 3307.19,3190.4 L 2569.12,3190.4 L 2569.12,3172.4 L 3307.19,3172.4 Z " />
<path stroke="none" fill="#000000" transform="matrix(0.05 0 0 0.05 -41 -115)" d="M 3460.19,3181.4 C 3460.19,3181.4 3284.19,3226.4 3284.19,3226.4 C 3284.19,3226.4 3306.19,3201.08 3306.19,3181.4 C 3306.19,3161.27 3284.19,3135.4 3284.19,3135.4 C 3284.19,3135.4 3460.19,3181.4 3460.19,3181.4 C 3460.19,3181.4 3460.19,3181.4 3460.19,3181.4 " />
<path stroke="#000000" stroke-width="1" fill="none" transform="matrix(0.05 0 0 0.05 -41 -115)" d="M 3460.19,3181.4 C 3460.19,3181.4 3284.19,3226.4 3284.19,3226.4 C 3284.19,3226.4 3306.19,3201.08 3306.19,3181.4 C 3306.19,3161.27 3284.19,3135.4 3284.19,3135.4 C 3284.19,3135.4 3460.19,3181.4 3460.19,3181.4 C 3460.19,3181.4 3460.19,3181.4 3460.19,3181.4 " />
<text x="0" y="0" stroke="none" fill="#000000" transform="matrix(0.05 0 0 0.05 154.845 46.3571)" font-style="normal" font-weight="normal" font-size="200px" font-family="Arial" >
MeO</text>
<path stroke="none" fill="#000000" transform="matrix(0.05 0 0 0.05 -41 -115)" d="M 4521.71,3289.79 L 4521.75,3310.15 L 4358.49,3215.32 L 4367.29,3200.08 L 4521.71,3289.79 Z " />
<path stroke="none" fill="#000000" transform="matrix(0.05 0 0 0.05 -41 -115)" d="M 4521.75,3310.15 L 4521.71,3289.79 L 4762.99,3150.48 L 4771.31,3155.51 L 4771.53,3165.22 L 4521.75,3310.15 Z " />
<text x="0" y="0" stroke="none" fill="#000000" transform="matrix(0.05 0 0 0.05 206.701 53.5567)" font-style="normal" font-weight="normal" font-size="200px" font-family="Arial" >
Ph</text>
<path stroke="none" fill="#000000" transform="matrix(0.05 0 0 0.05 -41 -115)" d="M 4771.53,3165.22 L 4771.31,3155.51 L 4779.65,3150.73 L 4927.97,3235.79 L 4919.17,3251.03 L 4771.53,3165.22 Z " />
<text x="0" y="0" stroke="none" fill="#ff0000" transform="matrix(0.05 0 0 0.05 193.954 31.9571)" font-style="normal" font-weight="normal" font-size="200px" font-family="Arial" >
N</text>
<path stroke="none" fill="#000000" transform="matrix(0.05 0 0 0.05 -41 -115)" d="M 4779.65,3150.73 L 4771.31,3155.51 L 4762.99,3150.48 L 4762.51,2970.93 L 4780.11,2970.93 L 4779.65,3150.73 Z " />
<path stroke="none" fill="#000000" transform="matrix(0.05 0 0 0.05 -41 -115)" d="M 4831.95,3125.58 L 4814.35,3125.58 L 4814.35,2970.93 L 4831.94,2970.93 L 4831.95,3125.58 Z " />
<text x="0" y="0" stroke="none" fill="#ff0000" transform="matrix(0.05 0 0 0.05 207.326 20.5267)" font-style="normal" font-weight="normal" font-size="200px" font-family="Arial" >
MgBr</text>
<path stroke="none" fill="#ff0000" transform="matrix(0.05 0 0 0.05 -41 -115)" d="M 4870.19,2797.73 L 4859.03,2784.12 L 4943.48,2714.81 L 4954.64,2728.41 L 4870.19,2797.73 Z " />
<path stroke="none" fill="#000000" transform="matrix(0.05 0 0 0.05 -41 -115)" d="M 6303.39,3190.4 L 5570.56,3190.4 L 5570.56,3172.4 L 6303.39,3172.4 Z " />
<path stroke="none" fill="#000000" transform="matrix(0.05 0 0 0.05 -41 -115)" d="M 6456.39,3181.4 C 6456.39,3181.4 6280.39,3226.4 6280.39,3226.4 C 6280.39,3226.4 6302.39,3201.08 6302.39,3181.4 C 6302.39,3161.27 6280.39,3135.4 6280.39,3135.4 C 6280.39,3135.4 6456.39,3181.4 6456.39,3181.4 C 6456.39,3181.4 6456.39,3181.4 6456.39,3181.4 " />
<path stroke="#000000" stroke-width="1" fill="none" transform="matrix(0.05 0 0 0.05 -41 -115)" d="M 6456.39,3181.4 C 6456.39,3181.4 6280.39,3226.4 6280.39,3226.4 C 6280.39,3226.4 6302.39,3201.08 6302.39,3181.4 C 6302.39,3161.27 6280.39,3135.4 6280.39,3135.4 C 6280.39,3135.4 6456.39,3181.4 6456.39,3181.4 C 6456.39,3181.4 6456.39,3181.4 6456.39,3181.4 " />
<text x="0" y="0" stroke="none" fill="#000000" transform="matrix(0.05 0 0 0.05 299.613 48.2291)" font-style="normal" font-weight="normal" font-size="200px" font-family="Arial" >
MeO</text>
<path stroke="none" fill="#000000" transform="matrix(0.05 0 0 0.05 -41 -115)" d="M 7417.07,3327.23 L 7417.11,3347.59 L 7253.85,3252.76 L 7262.65,3237.52 L 7417.07,3327.23 Z " />
<path stroke="none" fill="#000000" transform="matrix(0.05 0 0 0.05 -41 -115)" d="M 7417.11,3347.59 L 7417.07,3327.23 L 7666.85,3182.3 L 7666.89,3202.66 L 7417.11,3347.59 Z " />
<text x="0" y="0" stroke="none" fill="#000000" transform="matrix(0.05 0 0 0.05 351.469 55.4288)" font-style="normal" font-weight="normal" font-size="200px" font-family="Arial" >
Ph</text>
<path stroke="none" fill="#000000" transform="matrix(0.05 0 0 0.05 -41 -115)" d="M 7666.89,3202.66 L 7666.85,3182.3 L 7823.33,3273.23 L 7814.53,3288.47 L 7666.89,3202.66 Z " />
<text x="0" y="0" stroke="none" fill="#000000" transform="matrix(0.05 0 0 0.05 338.722 33.8291)" font-style="normal" font-weight="normal" font-size="200px" font-family="Arial" >
N</text>
<path stroke="none" fill="#000000" transform="matrix(0.05 0 0 0.05 -41 -115)" d="M 7649.55,3207.92 L 7631.95,3207.92 L 7631.95,3008.37 L 7649.54,3008.37 L 7649.55,3207.92 Z " />
<path stroke="none" fill="#000000" transform="matrix(0.05 0 0 0.05 -41 -115)" d="M 7701.39,3207.91 L 7683.79,3207.92 L 7683.79,3008.37 L 7701.38,3008.37 L 7701.39,3207.91 Z " />
<text x="0" y="0" stroke="none" fill="#000000" transform="matrix(0.05 0 0 0.05 373.548 17.7796)" font-style="normal" font-weight="normal" font-size="200px" font-family="Arial" >
H</text>
<path stroke="#000000" stroke-width="14" fill="none" transform="matrix(0.05 0 0 0.05 -41 -115)" d="M 8417.71,2439.7 A 74.0399,74.0399 0 1 0 8565.79,2439.7A 74.0399,74.0399 0 1 0 8417.71,2439.7Z " />
<path stroke="none" fill="#000000" transform="matrix(0.05 0 0 0.05 -41 -115)" d="M 8449.28,2432.36 L 8533.55,2432.36 L 8533.55,2446.36 L 8449.28,2446.36 Z " />
<path stroke="none" fill="#000000" transform="matrix(0.05 0 0 0.05 -41 -115)" d="M 8498.42,2397.23 L 8498.42,2481.5 L 8484.42,2481.5 L 8484.42,2397.23 Z " />
<path stroke="#000000" stroke-width="14" fill="none" transform="matrix(0.05 0 0 0.05 -41 -115)" d="M 7738.6,2778.79 A 74.0399,74.0399 0 1 0 7886.68,2778.79A 74.0399,74.0399 0 1 0 7738.6,2778.79Z " />
<path stroke="none" fill="#000000" transform="matrix(0.05 0 0 0.05 -41 -115)" d="M 7770.17,2771.46 L 7854.44,2771.46 L 7854.44,2785.46 L 7770.17,2785.46 Z " />
<path stroke="#000000" stroke-width="18" fill="none" transform="matrix(0.05 0 0 0.05 -41 -115)" d="M 7766.79,2693.03 C 7766.79,2693.03 7504.71,2343.59 8153.67,2530.79 " />
<path stroke="none" fill="#000000" transform="matrix(0.05 0 0 0.05 -41 -115)" d="M 8120.34,2566.97 L 8153.67,2530.79 L 8144.73,2482.42 L 8267.81,2563.72 Z " />
<path stroke="none" fill="#000000" transform="matrix(0.05 0 0 0.05 -41 -115)" d="M 8986.59,3190.4 L 8291.97,3190.4 L 8291.97,3172.4 L 8986.59,3172.4 Z " />
<path stroke="none" fill="#000000" transform="matrix(0.05 0 0 0.05 -41 -115)" d="M 9139.59,3181.4 C 9139.59,3181.4 8963.59,3226.4 8963.59,3226.4 C 8963.59,3226.4 8985.59,3201.08 8985.59,3181.4 C 8985.59,3161.27 8963.59,3135.4 8963.59,3135.4 C 8963.59,3135.4 9139.59,3181.4 9139.59,3181.4 C 9139.59,3181.4 9139.59,3181.4 9139.59,3181.4 " />
<path stroke="#000000" stroke-width="1" fill="none" transform="matrix(0.05 0 0 0.05 -41 -115)" d="M 9139.59,3181.4 C 9139.59,3181.4 8963.59,3226.4 8963.59,3226.4 C 8963.59,3226.4 8985.59,3201.08 8985.59,3181.4 C 8985.59,3161.27 8963.59,3135.4 8963.59,3135.4 C 8963.59,3135.4 9139.59,3181.4 9139.59,3181.4 C 9139.59,3181.4 9139.59,3181.4 9139.59,3181.4 " />
<text x="0" y="0" stroke="none" fill="#000000" transform="matrix(0.05 0 0 0.05 1.28917 149.869)" font-style="normal" font-weight="normal" font-size="200px" font-family="Arial" >
MeO</text>
<path stroke="none" fill="#000000" transform="matrix(0.05 0 0 0.05 -41 -115)" d="M 1450.6,5360.04 L 1450.63,5380.4 L 1287.82,5285.81 L 1296.62,5270.57 L 1450.6,5360.04 Z " />
<path stroke="none" fill="#000000" transform="matrix(0.05 0 0 0.05 -41 -115)" d="M 1450.63,5380.4 L 1450.6,5360.04 L 1691.88,5220.73 L 1700.2,5225.76 L 1700.42,5235.46 L 1450.63,5380.4 Z " />
<text x="0" y="0" stroke="none" fill="#000000" transform="matrix(0.05 0 0 0.05 53.1459 157.069)" font-style="normal" font-weight="normal" font-size="200px" font-family="Arial" >
Ph</text>
<path stroke="none" fill="#000000" transform="matrix(0.05 0 0 0.05 -41 -115)" d="M 1700.42,5235.46 L 1700.2,5225.76 L 1708.54,5220.98 L 1855.67,5305.35 L 1846.87,5320.6 L 1700.42,5235.46 Z " />
<text x="0" y="0" stroke="none" fill="#000000" transform="matrix(0.05 0 0 0.05 40.3987 135.469)" font-style="normal" font-weight="normal" font-size="200px" font-family="Arial" >
N</text>
<path stroke="none" fill="#000000" transform="matrix(0.05 0 0 0.05 -41 -115)" d="M 1708.54,5220.98 L 1700.2,5225.76 L 1691.88,5220.73 L 1691.39,5041.18 L 1708.99,5041.18 L 1708.54,5220.98 Z " />
<path stroke="none" fill="#000000" transform="matrix(0.05 0 0 0.05 -41 -115)" d="M 1657.16,5195.83 L 1639.56,5195.83 L 1639.55,5041.18 L 1657.15,5041.18 L 1657.16,5195.83 Z " />
<text x="0" y="0" stroke="none" fill="#000000" transform="matrix(0.05 0 0 0.05 75.224 119.42)" font-style="normal" font-weight="normal" font-size="200px" font-family="Arial" >
H</text>
<path stroke="#000000" stroke-width="14" fill="none" transform="matrix(0.05 0 0 0.05 -41 -115)" d="M 2451.24,4472.5 A 74.0399,74.0399 0 1 0 2599.32,4472.5A 74.0399,74.0399 0 1 0 2451.24,4472.5Z " />
<path stroke="none" fill="#000000" transform="matrix(0.05 0 0 0.05 -41 -115)" d="M 2482.81,4465.17 L 2567.08,4465.17 L 2567.08,4479.17 L 2482.81,4479.17 Z " />
<path stroke="none" fill="#000000" transform="matrix(0.05 0 0 0.05 -41 -115)" d="M 2531.95,4430.04 L 2531.95,4514.3 L 2517.95,4514.3 L 2517.95,4430.04 Z " />
<text x="0" y="0" stroke="none" fill="#000000" transform="matrix(0.05 0 0 0.05 26.4724 124.039)" font-style="normal" font-weight="normal" font-size="200px" font-family="Arial" >
H</text>
<path stroke="none" fill="#000000" transform="matrix(0.05 0 0 0.05 -41 -115)" d="M 1611.29,4853.41 L 1600.12,4867.01 L 1508.69,4791.96 L 1519.85,4778.36 L 1611.29,4853.41 Z " />
<path stroke="none" fill="#000000" transform="matrix(0.05 0 0 0.05 -41 -115)" d="M 1809.18,4838.78 A 16.6667,16.6667 0 1 0 1842.51,4838.78A 16.6667,16.6667 0 1 0 1809.18,4838.78Z " />
<path stroke="none" fill="#000000" transform="matrix(0.05 0 0 0.05 -41 -115)" d="M 1756.33,4785.56 A 16.6667,16.6667 0 1 0 1789.66,4785.56A 16.6667,16.6667 0 1 0 1756.33,4785.56Z " />
<path stroke="#000000" stroke-width="18" fill="none" transform="matrix(0.05 0 0 0.05 -41 -115)" d="M 1820.04,4781.39 C 1820.04,4781.39 1830.68,4552.65 2197.74,4600.53 " />
<path stroke="none" fill="#000000" transform="matrix(0.05 0 0 0.05 -41 -115)" d="M 2170.23,4641.31 L 2197.74,4600.53 L 2181.61,4554.05 L 2315.54,4615.89 Z " />
<path stroke="none" fill="#000000" transform="matrix(0.05 0 0 0.05 -41 -115)" d="M 2928.03,5056.24 L 2375.35,5056.24 L 2375.35,5038.24 L 2928.03,5038.24 Z " />
<path stroke="none" fill="#000000" transform="matrix(0.05 0 0 0.05 -41 -115)" d="M 3081.03,5047.24 C 3081.03,5047.24 2905.03,5092.23 2905.03,5092.23 C 2905.03,5092.23 2927.03,5066.92 2927.03,5047.24 C 2927.03,5027.11 2905.03,5001.24 2905.03,5001.24 C 2905.03,5001.24 3081.03,5047.24 3081.03,5047.24 C 3081.03,5047.24 3081.03,5047.24 3081.03,5047.24 " />
<path stroke="#000000" stroke-width="1" fill="none" transform="matrix(0.05 0 0 0.05 -41 -115)" d="M 3081.03,5047.24 C 3081.03,5047.24 2905.03,5092.23 2905.03,5092.23 C 2905.03,5092.23 2927.03,5066.92 2927.03,5047.24 C 2927.03,5027.11 2905.03,5001.24 2905.03,5001.24 C 2905.03,5001.24 3081.03,5047.24 3081.03,5047.24 C 3081.03,5047.24 3081.03,5047.24 3081.03,5047.24 " />
<text x="0" y="0" stroke="none" fill="#000000" transform="matrix(0.05 0 0 0.05 118.153 149.307)" font-style="normal" font-weight="normal" font-size="200px" font-family="Arial" >
MeO</text>
<path stroke="none" fill="#000000" transform="matrix(0.05 0 0 0.05 -41 -115)" d="M 3787.89,5348.78 L 3787.92,5369.14 L 3624.67,5274.31 L 3633.47,5259.07 L 3787.89,5348.78 Z " />
<path stroke="none" fill="#000000" transform="matrix(0.05 0 0 0.05 -41 -115)" d="M 3787.92,5369.14 L 3787.89,5348.78 L 4029.16,5209.48 L 4037.48,5214.5 L 4037.7,5224.21 L 3787.92,5369.14 Z " />
<text x="0" y="0" stroke="none" fill="#000000" transform="matrix(0.05 0 0 0.05 170.01 156.506)" font-style="normal" font-weight="normal" font-size="200px" font-family="Arial" >
Ph</text>
<path stroke="none" fill="#000000" transform="matrix(0.05 0 0 0.05 -41 -115)" d="M 4037.7,5224.21 L 4037.48,5214.5 L 4045.83,5209.72 L 4194.14,5294.78 L 4185.34,5310.02 L 4037.7,5224.21 Z " />
<text x="0" y="0" stroke="none" fill="#000000" transform="matrix(0.05 0 0 0.05 157.263 134.907)" font-style="normal" font-weight="normal" font-size="200px" font-family="Arial" >
N</text>
<path stroke="none" fill="#000000" transform="matrix(0.05 0 0 0.05 -41 -115)" d="M 4045.83,5209.72 L 4037.48,5214.5 L 4029.16,5209.48 L 4028.68,5029.92 L 4046.28,5029.92 L 4045.83,5209.72 Z " />
<path stroke="none" fill="#000000" transform="matrix(0.05 0 0 0.05 -41 -115)" d="M 3994.44,5184.57 L 3976.84,5184.57 L 3976.84,5029.92 L 3994.44,5029.92 L 3994.44,5184.57 Z " />
<text x="0" y="0" stroke="none" fill="#000000" transform="matrix(0.05 0 0 0.05 171.157 124.147)" font-style="normal" font-weight="normal" font-size="200px" font-family="Arial" >
H</text>
<path stroke="none" fill="#000000" transform="matrix(0.05 0 0 0.05 -41 -115)" d="M 4137.83,4859.91 L 4127.06,4846 L 4214.83,4778.03 L 4225.61,4791.94 L 4137.83,4859.91 Z " />
<text x="0" y="0" stroke="none" fill="#000000" transform="matrix(0.05 0 0 0.05 143.724 124.147)" font-style="normal" font-weight="normal" font-size="200px" font-family="Arial" >
H</text>
<path stroke="none" fill="#000000" transform="matrix(0.05 0 0 0.05 -41 -115)" d="M 3947.49,4843.75 L 3936.54,4857.53 L 3854.78,4792.55 L 3865.73,4778.77 L 3947.49,4843.75 Z " />
<path stroke="#000000" stroke-width="14" fill="none" transform="matrix(0.05 0 0 0.05 -41 -115)" d="M 3976.08,4761.7 A 74.0399,74.0399 0 1 0 4124.16,4761.7A 74.0399,74.0399 0 1 0 3976.08,4761.7Z " />
<path stroke="none" fill="#000000" transform="matrix(0.05 0 0 0.05 -41 -115)" d="M 4007.66,4754.37 L 4091.92,4754.37 L 4091.92,4768.37 L 4007.66,4768.37 Z " />
<path stroke="none" fill="#000000" transform="matrix(0.05 0 0 0.05 -41 -115)" d="M 4056.79,4719.23 L 4056.79,4803.5 L 4042.79,4803.5 L 4042.79,4719.23 Z " />
<text x="0" y="0" stroke="none" fill="#000000" transform="matrix(0.05 0 0 0.05 148.601 181.166)" font-style="normal" font-weight="normal" font-size="200px" font-family="Arial" >
H</text>
<text x="0" y="0" stroke="none" fill="#000000" transform="matrix(0.05 0 0 0.05 155.823 183.285)" font-style="normal" font-weight="normal" font-size="150px" font-family="Arial" >
2</text>
<text x="0" y="0" stroke="none" fill="#000000" transform="matrix(0.05 0 0 0.05 159.994 181.166)" font-style="normal" font-weight="normal" font-size="200px" font-family="Arial" >
O</text>
<path stroke="none" fill="#000000" transform="matrix(0.05 0 0 0.05 -41 -115)" d="M 4108.74,5722.69 A 16.6667,16.6667 0 1 0 4142.07,5722.69A 16.6667,16.6667 0 1 0 4108.74,5722.69Z " />
<path stroke="none" fill="#000000" transform="matrix(0.05 0 0 0.05 -41 -115)" d="M 4033.8,5725.63 A 16.6667,16.6667 0 1 0 4067.13,5725.63A 16.6667,16.6667 0 1 0 4033.8,5725.63Z " />
<path stroke="#000000" stroke-width="18" fill="none" transform="matrix(0.05 0 0 0.05 -41 -115)" d="M 4086.65,5702.18 C 4086.65,5702.18 4149.05,5613.38 4077.05,5373.38 " />
<path stroke="none" fill="#000000" transform="matrix(0.05 0 0 0.05 -41 -115)" d="M 4125.52,5381.81 L 4077.05,5373.38 L 4041.23,5407.1 L 4042.91,5259.6 Z " />
<path stroke="#000000" stroke-width="18" fill="none" transform="matrix(0.05 0 0 0.05 -41 -115)" d="M 3938.72,5135.47 C 3938.72,5135.47 3515.26,5124.57 3854.27,4973.56 " />
<path stroke="none" fill="#000000" transform="matrix(0.05 0 0 0.05 -41 -115)" d="M 3852.08,5022.7 L 3854.27,4973.56 L 3816.27,4942.32 L 3962.79,4925.22 Z " />
<path stroke="none" fill="#000000" transform="matrix(0.05 0 0 0.05 -41 -115)" d="M 5144.16,5056.24 L 4569.05,5056.24 L 4569.05,5038.24 L 5144.16,5038.24 Z " />
<path stroke="none" fill="#000000" transform="matrix(0.05 0 0 0.05 -41 -115)" d="M 5297.16,5047.24 C 5297.16,5047.24 5121.16,5092.23 5121.16,5092.23 C 5121.16,5092.23 5143.16,5066.92 5143.16,5047.24 C 5143.16,5027.11 5121.16,5001.24 5121.16,5001.24 C 5121.16,5001.24 5297.16,5047.24 5297.16,5047.24 C 5297.16,5047.24 5297.16,5047.24 5297.16,5047.24 " />
<path stroke="#000000" stroke-width="1" fill="none" transform="matrix(0.05 0 0 0.05 -41 -115)" d="M 5297.16,5047.24 C 5297.16,5047.24 5121.16,5092.23 5121.16,5092.23 C 5121.16,5092.23 5143.16,5066.92 5143.16,5047.24 C 5143.16,5027.11 5121.16,5001.24 5121.16,5001.24 C 5121.16,5001.24 5297.16,5047.24 5297.16,5047.24 C 5297.16,5047.24 5297.16,5047.24 5297.16,5047.24 " />
<text x="0" y="0" stroke="none" fill="#000000" transform="matrix(0.05 0 0 0.05 230.869 146.926)" font-style="normal" font-weight="normal" font-size="200px" font-family="Arial" >
MeO</text>
<path stroke="none" fill="#000000" transform="matrix(0.05 0 0 0.05 -41 -115)" d="M 6042.21,5301.17 L 6042.24,5321.52 L 5878.99,5226.69 L 5887.79,5211.45 L 6042.21,5301.17 Z " />
<path stroke="none" fill="#000000" transform="matrix(0.05 0 0 0.05 -41 -115)" d="M 6042.24,5321.52 L 6042.21,5301.17 L 6278.92,5164.88 L 6291.8,5166.88 L 6292.03,5176.59 L 6042.24,5321.52 Z " />
<text x="0" y="0" stroke="none" fill="#000000" transform="matrix(0.05 0 0 0.05 282.726 154.125)" font-style="normal" font-weight="normal" font-size="200px" font-family="Arial" >
Ph</text>
<path stroke="none" fill="#000000" transform="matrix(0.05 0 0 0.05 -41 -115)" d="M 6292.03,5176.59 L 6291.8,5166.88 L 6304.51,5165.24 L 6448.03,5246.91 L 6439.23,5262.16 L 6292.03,5176.59 Z " />
<text x="0" y="0" stroke="none" fill="#000000" transform="matrix(0.05 0 0 0.05 279.883 136.743)" font-style="normal" font-weight="normal" font-size="200px" font-family="Arial" >
O</text>
<path stroke="none" fill="#000000" transform="matrix(0.05 0 0 0.05 -41 -115)" d="M 6304.51,5165.24 L 6291.8,5166.88 L 6291.75,5155.58 L 6413.97,5032.27 L 6426.41,5044.72 L 6304.51,5165.24 Z " />
<text x="0" y="0" stroke="none" fill="#000000" transform="matrix(0.05 0 0 0.05 248.404 136.743)" font-style="normal" font-weight="normal" font-size="200px" font-family="Arial" >
H</text>
<text x="0" y="0" stroke="none" fill="#000000" transform="matrix(0.05 0 0 0.05 255.626 138.863)" font-style="normal" font-weight="normal" font-size="150px" font-family="Arial" >
2</text>
<text x="0" y="0" stroke="none" fill="#000000" transform="matrix(0.05 0 0 0.05 259.797 136.743)" font-style="normal" font-weight="normal" font-size="200px" font-family="Arial" >
N</text>
<path stroke="none" fill="#000000" transform="matrix(0.05 0 0 0.05 -41 -115)" d="M 6291.75,5155.58 L 6291.8,5166.88 L 6278.92,5164.88 L 6167.74,5055.27 L 6180.19,5042.82 L 6291.75,5155.58 Z " />
<text x="0" y="0" stroke="none" fill="#000000" transform="matrix(0.05 0 0 0.05 297.458 136.743)" font-style="normal" font-weight="normal" font-size="200px" font-family="Arial" >
H</text>
<path stroke="none" fill="#000000" transform="matrix(0.05 0 0 0.05 -41 -115)" d="M 6595.33,4972.04 L 6595.33,4954.44 L 6752.17,4954.44 L 6752.17,4972.04 L 6595.33,4972.04 Z " />
<text x="0" y="0" stroke="none" fill="#000000" transform="matrix(0.05 0 0 0.05 275.469 118.973)" font-style="normal" font-weight="normal" font-size="200px" font-family="Arial" >
H</text>
<path stroke="none" fill="#000000" transform="matrix(0.05 0 0 0.05 -41 -115)" d="M 6476.79,4858.11 L 6459.78,4862.6 L 6422.28,4720.62 L 6439.3,4716.12 L 6476.79,4858.11 Z " />
<path stroke="#000000" stroke-width="14" fill="none" transform="matrix(0.05 0 0 0.05 -41 -115)" d="M 6506.45,5091.42 A 74.0399,74.0399 0 1 0 6654.53,5091.42A 74.0399,74.0399 0 1 0 6506.45,5091.42Z " />
<path stroke="none" fill="#000000" transform="matrix(0.05 0 0 0.05 -41 -115)" d="M 6538.02,5084.08 L 6622.29,5084.08 L 6622.29,5098.08 L 6538.02,5098.08 Z " />
<path stroke="none" fill="#000000" transform="matrix(0.05 0 0 0.05 -41 -115)" d="M 6587.15,5048.95 L 6587.15,5133.22 L 6573.15,5133.22 L 6573.15,5048.95 Z " />
<path stroke="#000000" stroke-width="18" fill="none" transform="matrix(0.05 0 0 0.05 -41 -115)" d="M 6472.85,4756.33 C 6472.85,4756.33 6934.69,4600.12 6649.9,4835 " />
<path stroke="none" fill="#000000" transform="matrix(0.05 0 0 0.05 -41 -115)" d="M 6638.87,4787.06 L 6649.9,4835 L 6694.87,4854.95 L 6558.25,4910.59 Z " />
<path stroke="none" fill="#000000" transform="matrix(0.05 0 0 0.05 -41 -115)" d="M 7728.49,5066.53 L 7100.49,5066.53 L 7100.49,5048.53 L 7728.49,5048.53 Z " />
<path stroke="none" fill="#000000" transform="matrix(0.05 0 0 0.05 -41 -115)" d="M 7881.49,5057.53 C 7881.49,5057.53 7705.49,5102.53 7705.49,5102.53 C 7705.49,5102.53 7727.49,5077.22 7727.49,5057.53 C 7727.49,5037.41 7705.49,5011.54 7705.49,5011.54 C 7705.49,5011.54 7881.49,5057.53 7881.49,5057.53 C 7881.49,5057.53 7881.49,5057.53 7881.49,5057.53 " />
<path stroke="#000000" stroke-width="1" fill="none" transform="matrix(0.05 0 0 0.05 -41 -115)" d="M 7881.49,5057.53 C 7881.49,5057.53 7705.49,5102.53 7705.49,5102.53 C 7705.49,5102.53 7727.49,5077.22 7727.49,5057.53 C 7727.49,5037.41 7705.49,5011.54 7705.49,5011.54 C 7705.49,5011.54 7881.49,5057.53 7881.49,5057.53 C 7881.49,5057.53 7881.49,5057.53 7881.49,5057.53 " />
<text x="0" y="0" stroke="none" fill="#000000" transform="matrix(0.05 0 0 0.05 362.592 145.531)" font-style="normal" font-weight="normal" font-size="200px" font-family="Arial" >
MeO</text>
<path stroke="none" fill="#000000" transform="matrix(0.05 0 0 0.05 -41 -115)" d="M 8676.66,5273.27 L 8676.7,5293.63 L 8513.44,5198.8 L 8522.24,5183.56 L 8676.66,5273.27 Z " />
<path stroke="none" fill="#000000" transform="matrix(0.05 0 0 0.05 -41 -115)" d="M 8676.7,5293.63 L 8676.66,5273.27 L 8913.38,5136.98 L 8926.26,5138.99 L 8926.48,5148.69 L 8676.7,5293.63 Z " />
<text x="0" y="0" stroke="none" fill="#000000" transform="matrix(0.05 0 0 0.05 414.449 152.731)" font-style="normal" font-weight="normal" font-size="200px" font-family="Arial" >
Ph</text>
<path stroke="none" fill="#000000" transform="matrix(0.05 0 0 0.05 -41 -115)" d="M 8926.48,5148.69 L 8926.26,5138.99 L 8938.96,5137.35 L 9082.17,5218.84 L 9073.37,5234.08 L 8926.48,5148.69 Z " />
<text x="0" y="0" stroke="none" fill="#000000" transform="matrix(0.05 0 0 0.05 411.606 135.349)" font-style="normal" font-weight="normal" font-size="200px" font-family="Arial" >
OH</text>
<path stroke="none" fill="#000000" transform="matrix(0.05 0 0 0.05 -41 -115)" d="M 8938.96,5137.35 L 8926.26,5138.99 L 8926.2,5127.69 L 9048.92,5003.88 L 9061.37,5016.33 L 8938.96,5137.35 Z " />
<text x="0" y="0" stroke="none" fill="#000000" transform="matrix(0.05 0 0 0.05 380.127 135.349)" font-style="normal" font-weight="normal" font-size="200px" font-family="Arial" >
H</text>
<text x="0" y="0" stroke="none" fill="#000000" transform="matrix(0.05 0 0 0.05 387.349 137.468)" font-style="normal" font-weight="normal" font-size="150px" font-family="Arial" >
2</text>
<text x="0" y="0" stroke="none" fill="#000000" transform="matrix(0.05 0 0 0.05 391.52 135.349)" font-style="normal" font-weight="normal" font-size="200px" font-family="Arial" >
N</text>
<path stroke="none" fill="#000000" transform="matrix(0.05 0 0 0.05 -41 -115)" d="M 8926.2,5127.69 L 8926.26,5138.99 L 8913.38,5136.98 L 8802.7,5027.87 L 8815.14,5015.43 L 8926.2,5127.69 Z " />
<path stroke="none" fill="#000000" transform="matrix(0.05 0 0 0.05 -41 -115)" d="M 1661.71,6901.99 L 1033.71,6901.99 L 1033.71,6883.99 L 1661.71,6883.99 Z " />
<path stroke="none" fill="#000000" transform="matrix(0.05 0 0 0.05 -41 -115)" d="M 1814.7,6892.99 C 1814.7,6892.99 1638.71,6937.99 1638.71,6937.99 C 1638.71,6937.99 1660.71,6912.68 1660.71,6892.99 C 1660.71,6872.87 1638.71,6846.99 1638.71,6846.99 C 1638.71,6846.99 1814.7,6892.99 1814.7,6892.99 C 1814.7,6892.99 1814.7,6892.99 1814.7,6892.99 " />
<path stroke="#000000" stroke-width="1" fill="none" transform="matrix(0.05 0 0 0.05 -41 -115)" d="M 1814.7,6892.99 C 1814.7,6892.99 1638.71,6937.99 1638.71,6937.99 C 1638.71,6937.99 1660.71,6912.68 1660.71,6892.99 C 1660.71,6872.87 1638.71,6846.99 1638.71,6846.99 C 1638.71,6846.99 1814.7,6892.99 1814.7,6892.99 C 1814.7,6892.99 1814.7,6892.99 1814.7,6892.99 " />
<text x="0" y="0" stroke="none" fill="#000000" transform="matrix(0.05 0 0 0.05 65.2596 235.12)" font-style="normal" font-weight="normal" font-size="200px" font-family="Arial" >
MeO</text>
<path stroke="none" fill="#000000" transform="matrix(0.05 0 0 0.05 -41 -115)" d="M 2755,7094.62 L 2755.02,7115.49 L 2565.01,6994.54 L 2574.44,6979.68 L 2755,7094.62 Z " />
<path stroke="none" fill="#000000" transform="matrix(0.05 0 0 0.05 -41 -115)" d="M 2755.02,7115.49 L 2755,7094.62 L 3017,6928.87 L 3029.49,6930.76 L 3029.44,6940.86 L 2755.02,7115.49 Z " />
<text x="0" y="0" stroke="none" fill="#000000" transform="matrix(0.05 0 0 0.05 121.63 244.971)" font-style="normal" font-weight="normal" font-size="200px" font-family="Arial" >
Ph</text>
<path stroke="none" fill="#000000" transform="matrix(0.05 0 0 0.05 -41 -115)" d="M 3029.44,6940.86 L 3029.49,6930.76 L 3041.73,6929.28 L 3228.29,7055.27 L 3218.4,7069.83 L 3029.44,6940.86 Z " />
<text x="0" y="0" stroke="none" fill="#000000" transform="matrix(0.05 0 0 0.05 117.786 222.76)" font-style="normal" font-weight="normal" font-size="200px" font-family="Arial" >
OH</text>
<path stroke="none" fill="#000000" transform="matrix(0.05 0 0 0.05 -41 -115)" d="M 3041.73,6929.28 L 3029.49,6930.76 L 3029.45,6918.72 L 3175.22,6756.85 L 3188.26,6768.67 L 3041.73,6929.28 Z " />
<text x="0" y="0" stroke="none" fill="#000000" transform="matrix(0.05 0 0 0.05 84.2702 222.76)" font-style="normal" font-weight="normal" font-size="200px" font-family="Arial" >
H</text>
<text x="0" y="0" stroke="none" fill="#000000" transform="matrix(0.05 0 0 0.05 91.4919 224.879)" font-style="normal" font-weight="normal" font-size="150px" font-family="Arial" >
3</text>
<text x="0" y="0" stroke="none" fill="#000000" transform="matrix(0.05 0 0 0.05 95.663 222.76)" font-style="normal" font-weight="normal" font-size="200px" font-family="Arial" >
N</text>
<path stroke="none" fill="#000000" transform="matrix(0.05 0 0 0.05 -41 -115)" d="M 3029.45,6918.72 L 3029.49,6930.76 L 3017,6928.87 L 2880.71,6779.69 L 2893.75,6767.88 L 3029.45,6918.72 Z " />
<path stroke="#000000" stroke-width="14" fill="none" transform="matrix(0.05 0 0 0.05 -41 -115)" d="M 2718.1,6470.65 A 80.0399,80.0399 0 1 0 2878.18,6470.65A 80.0399,80.0399 0 1 0 2718.1,6470.65Z " />
<path stroke="none" fill="#000000" transform="matrix(0.05 0 0 0.05 -41 -115)" d="M 2753.01,6463.98 L 2843.94,6463.98 L 2843.94,6477.98 L 2753.01,6477.98 Z " />
<path stroke="none" fill="#000000" transform="matrix(0.05 0 0 0.05 -41 -115)" d="M 2805.48,6425.52 L 2805.48,6516.45 L 2791.48,6516.45 L 2791.48,6425.52 Z " />
<path stroke="#000000" stroke-width="18" fill="none" transform="matrix(0.05 0 0 0.05 -41 -115)" d="M 3309.05,6770.83 C 3309.05,6770.83 3455.85,7056.7 3200.88,6909.91 " />
<path stroke="none" fill="#000000" transform="matrix(0.05 0 0 0.05 -41 -115)" d="M 3241.9,6882.75 L 3200.88,6909.91 L 3197.99,6959.01 L 3097.93,6850.63 Z " />
<path stroke="#000000" stroke-width="18" fill="none" transform="matrix(0.05 0 0 0.05 -41 -115)" d="M 2938.19,6848.1 C 2938.19,6848.1 2652.32,7164.87 2760.48,6832.64 " />
<path stroke="none" fill="#000000" transform="matrix(0.05 0 0 0.05 -41 -115)" d="M 2795.51,6867.18 L 2760.48,6832.64 L 2711.84,6839.94 L 2797.26,6719.68 Z " />
<path stroke="none" fill="#000000" transform="matrix(0.05 0 0 0.05 -41 -115)" d="M 4415.42,6901.99 L 3695.36,6901.99 L 3695.36,6883.99 L 4415.42,6883.99 Z " />
<path stroke="none" fill="#000000" transform="matrix(0.05 0 0 0.05 -41 -115)" d="M 4568.42,6892.99 C 4568.42,6892.99 4392.42,6937.99 4392.42,6937.99 C 4392.42,6937.99 4414.42,6912.68 4414.42,6892.99 C 4414.42,6872.87 4392.42,6846.99 4392.42,6846.99 C 4392.42,6846.99 4568.42,6892.99 4568.42,6892.99 C 4568.42,6892.99 4568.42,6892.99 4568.42,6892.99 " />
<path stroke="#000000" stroke-width="1" fill="none" transform="matrix(0.05 0 0 0.05 -41 -115)" d="M 4568.42,6892.99 C 4568.42,6892.99 4392.42,6937.99 4392.42,6937.99 C 4392.42,6937.99 4414.42,6912.68 4414.42,6892.99 C 4414.42,6872.87 4392.42,6846.99 4392.42,6846.99 C 4392.42,6846.99 4568.42,6892.99 4568.42,6892.99 C 4568.42,6892.99 4568.42,6892.99 4568.42,6892.99 " />
<text x="0" y="0" stroke="none" fill="#000000" transform="matrix(0.05 0 0 0.05 203.559 237.824)" font-style="normal" font-weight="normal" font-size="200px" font-family="Arial" >
MeO</text>
<path stroke="none" fill="#000000" transform="matrix(0.05 0 0 0.05 -41 -115)" d="M 5521,7148.71 L 5521.01,7169.58 L 5330.55,7048.34 L 5339.97,7033.47 L 5521,7148.71 Z " />
<path stroke="none" fill="#000000" transform="matrix(0.05 0 0 0.05 -41 -115)" d="M 5521.01,7169.58 L 5521,7148.71 L 5787.09,6980.03 L 5795.48,6984.85 L 5795.72,6994.78 L 5521.01,7169.58 Z " />
<text x="0" y="0" stroke="none" fill="#000000" transform="matrix(0.05 0 0 0.05 260.702 246.902)" font-style="normal" font-weight="normal" font-size="200px" font-family="Arial" >
Ph</text>
<path stroke="none" fill="#000000" transform="matrix(0.05 0 0 0.05 -41 -115)" d="M 5795.72,6994.78 L 5795.48,6984.85 L 5803.74,6979.91 L 6008.42,7101.26 L 5999.42,7116.39 L 5795.72,6994.78 Z " />
<path stroke="none" fill="#000000" transform="matrix(0.05 0 0 0.05 -41 -115)" d="M 7181.42,6901.99 L 6461.35,6901.99 L 6461.35,6883.99 L 7181.42,6883.99 Z " />
<path stroke="none" fill="#000000" transform="matrix(0.05 0 0 0.05 -41 -115)" d="M 7334.41,6892.99 C 7334.41,6892.99 7158.42,6937.99 7158.42,6937.99 C 7158.42,6937.99 7180.42,6912.68 7180.42,6892.99 C 7180.42,6872.87 7158.42,6846.99 7158.42,6846.99 C 7158.42,6846.99 7334.41,6892.99 7334.41,6892.99 C 7334.41,6892.99 7334.41,6892.99 7334.41,6892.99 " />
<path stroke="#000000" stroke-width="1" fill="none" transform="matrix(0.05 0 0 0.05 -41 -115)" d="M 7334.41,6892.99 C 7334.41,6892.99 7158.42,6937.99 7158.42,6937.99 C 7158.42,6937.99 7180.42,6912.68 7180.42,6892.99 C 7180.42,6872.87 7158.42,6846.99 7158.42,6846.99 C 7158.42,6846.99 7334.41,6892.99 7334.41,6892.99 C 7334.41,6892.99 7334.41,6892.99 7334.41,6892.99 " />
<text x="0" y="0" stroke="none" fill="#000000" transform="matrix(0.05 0 0 0.05 244.681 223.425)" font-style="normal" font-weight="normal" font-size="200px" font-family="Arial" >
O</text>
<path stroke="none" fill="#000000" transform="matrix(0.05 0 0 0.05 -41 -115)" d="M 5803.74,6979.91 L 5795.48,6984.85 L 5787.09,6980.03 L 5784.13,6804.13 L 5801.72,6803.88 L 5803.74,6979.91 Z " />
<path stroke="none" fill="#000000" transform="matrix(0.05 0 0 0.05 -41 -115)" d="M 5855.7,6954.99 L 5838.11,6955.24 L 5835.96,6803.4 L 5853.56,6803.15 L 5855.7,6954.99 Z " />
<text x="0" y="0" stroke="none" fill="#000000" transform="matrix(0.05 0 0 0.05 259.259 214.118)" font-style="normal" font-weight="normal" font-size="200px" font-family="Arial" >
H</text>
<path stroke="none" fill="#000000" transform="matrix(0.05 0 0 0.05 -41 -115)" d="M 5883.25,6647.6 L 5873.65,6632.85 L 5973.4,6567.92 L 5983.01,6582.67 L 5883.25,6647.6 Z " />
<path stroke="#000000" stroke-width="14" fill="none" transform="matrix(0.05 0 0 0.05 -41 -115)" d="M 5555.27,6590.54 A 74.0399,74.0399 0 1 0 5703.35,6590.54A 74.0399,74.0399 0 1 0 5555.27,6590.54Z " />
<path stroke="none" fill="#000000" transform="matrix(0.05 0 0 0.05 -41 -115)" d="M 5586.84,6583.2 L 5671.11,6583.2 L 5671.11,6597.2 L 5586.84,6597.2 Z " />
<path stroke="none" fill="#000000" transform="matrix(0.05 0 0 0.05 -41 -115)" d="M 5635.97,6548.07 L 5635.97,6632.34 L 5621.97,6632.34 L 5621.97,6548.07 Z " />
<path stroke="#000000" stroke-width="18" fill="none" transform="matrix(0.05 0 0 0.05 -41 -115)" d="M 5922.8,6548.23 C 5922.8,6548.23 5920.27,6157.02 5832.13,6499.17 " />
<path stroke="none" fill="#000000" transform="matrix(0.05 0 0 0.05 -41 -115)" d="M 5795.01,6466.89 L 5832.13,6499.17 L 5880.23,6488.84 L 5802.5,6614.22 Z " />
<text x="0" y="0" stroke="none" fill="#000000" transform="matrix(0.05 0 0 0.05 343.257 234.27)" font-style="normal" font-weight="normal" font-size="200px" font-family="Arial" >
MeO</text>
<path stroke="none" fill="#000000" transform="matrix(0.05 0 0 0.05 -41 -115)" d="M 8314.95,7077.64 L 8314.97,7098.51 L 8124.96,6977.56 L 8134.38,6962.69 L 8314.95,7077.64 Z " />
<path stroke="none" fill="#000000" transform="matrix(0.05 0 0 0.05 -41 -115)" d="M 8314.97,7098.51 L 8314.95,7077.64 L 8589.38,6903.03 L 8589.68,6923.71 L 8314.97,7098.51 Z " />
<text x="0" y="0" stroke="none" fill="#000000" transform="matrix(0.05 0 0 0.05 400.4 243.349)" font-style="normal" font-weight="normal" font-size="200px" font-family="Arial" >
Ph</text>
<path stroke="none" fill="#000000" transform="matrix(0.05 0 0 0.05 -41 -115)" d="M 8589.68,6923.71 L 8589.38,6903.03 L 8802.38,7030.2 L 8793.38,7045.32 L 8589.68,6923.71 Z " />
<text x="0" y="0" stroke="none" fill="#000000" transform="matrix(0.05 0 0 0.05 384.379 219.872)" font-style="normal" font-weight="normal" font-size="200px" font-family="Arial" >
O</text>
<path stroke="none" fill="#000000" transform="matrix(0.05 0 0 0.05 -41 -115)" d="M 8572.54,6929.94 L 8554.95,6930.18 L 8552.17,6733.43 L 8569.76,6733.18 L 8572.54,6929.94 Z " />
<path stroke="none" fill="#000000" transform="matrix(0.05 0 0 0.05 -41 -115)" d="M 8624.38,6929.2 L 8606.78,6929.45 L 8604,6732.7 L 8621.6,6732.45 L 8624.38,6929.2 Z " />
</svg>
