<?xml version="1.0" standalone="no" ?>
<!DOCTYPE svg PUBLIC "-//W3C//DTD SVG 1.1//EN" "http://www.w3.org/Graphics/SVG/1.1/DTD/svg11.dtd">
<svg width="388px" height="142px" viewBox="0 0 388 142" style="background-color: #ffffff00" xmlns="http://www.w3.org/2000/svg" xmlns:xlink="http://www.w3.org/1999/xlink" version="1.1" >
<text x="0" y="0" stroke="none" fill="#000000" transform="matrix(0.05 0 0 0.05 92.3358 11.0785)" font-style="normal" font-weight="normal" font-size="200px" font-family="Arial" >
O</text>
<text x="0" y="0" stroke="none" fill="#000000" transform="matrix(0.05 0 0 0.05 92.89 27.0595)" font-style="normal" font-weight="normal" font-size="200px" font-family="Arial" >
S</text>
<path stroke="none" fill="#000000" transform="matrix(0.05 0 0 0.05 -31 -378)" d="M 2564.47,7817.09 L 2582.06,7817.09 L 2582.06,7923.76 L 2564.47,7923.76 L 2564.47,7817.09 Z " />
<path stroke="none" fill="#000000" transform="matrix(0.05 0 0 0.05 -31 -378)" d="M 2506.93,7817.09 L 2524.53,7817.09 L 2524.53,7923.76 L 2506.93,7923.76 L 2506.93,7817.09 Z " />
<text x="0" y="0" stroke="none" fill="#000000" transform="matrix(0.05 0 0 0.05 107.15 35.292)" font-style="normal" font-weight="normal" font-size="200px" font-family="Arial" >
Cl</text>
<path stroke="none" fill="#000000" transform="matrix(0.05 0 0 0.05 -31 -378)" d="M 2628.89,8087.47 L 2637.56,8072.15 L 2753.03,8137.55 L 2744.36,8152.86 L 2628.89,8087.47 Z " />
<text x="0" y="0" stroke="none" fill="#000000" transform="matrix(0.05 0 0 0.05 75.4217 34.2595)" font-style="normal" font-weight="normal" font-size="200px" font-family="Arial" >
Cl</text>
<path stroke="none" fill="#000000" transform="matrix(0.05 0 0 0.05 -31 -378)" d="M 2451.23,8073.25 L 2460.03,8088.49 L 2354.68,8149.31 L 2345.88,8134.07 L 2451.23,8073.25 Z " />
<text x="0" y="0" stroke="none" fill="#000000" transform="matrix(0.05 0 0 0.05 46.6318 33.2384)" font-style="normal" font-weight="normal" font-size="200px" font-family="Arial" >
O</text>
<path stroke="none" fill="#000000" transform="matrix(0.05 0 0 0.05 -31 -378)" d="M 1647.54,8260.29 L 1665.14,8260.29 L 1665.14,8456.1 L 1647.54,8456.1 L 1647.54,8260.29 Z " />
<path stroke="none" fill="#000000" transform="matrix(0.05 0 0 0.05 -31 -378)" d="M 1595.7,8260.29 L 1613.3,8260.29 L 1613.3,8456.1 L 1595.7,8456.1 L 1595.7,8260.29 Z " />
<text x="0" y="0" stroke="none" fill="#000000" transform="matrix(0.05 0 0 0.05 59.1018 54.8385)" font-style="normal" font-weight="normal" font-size="200px" font-family="Arial" >
OH</text>
<path stroke="none" fill="#000000" transform="matrix(0.05 0 0 0.05 -31 -378)" d="M 1630.61,8450.86 L 1630.58,8430.5 L 1794.68,8525.82 L 1785.88,8541.06 L 1630.61,8450.86 Z " />
<path stroke="none" fill="#000000" transform="matrix(0.05 0 0 0.05 -31 -378)" d="M 1630.58,8430.5 L 1630.61,8450.86 L 1381.02,8595.67 L 1381.02,8575.32 L 1630.58,8430.5 Z " />
<path stroke="none" fill="#000000" transform="matrix(0.05 0 0 0.05 -31 -378)" d="M 1381.02,8575.32 L 1381.02,8595.67 L 1131.5,8450.9 L 1131.52,8430.54 L 1381.02,8575.32 Z " />
<text x="0" y="0" stroke="none" fill="#000000" transform="matrix(0.05 0 0 0.05 2.00012 54.8385)" font-style="normal" font-weight="normal" font-size="200px" font-family="Arial" >
Me</text>
<path stroke="none" fill="#000000" transform="matrix(0.05 0 0 0.05 -31 -378)" d="M 1131.52,8430.54 L 1131.5,8450.9 L 950.249,8556.02 L 941.449,8540.78 L 1131.52,8430.54 Z " />
<path stroke="#000000" stroke-width="18" fill="none" transform="matrix(0.05 0 0 0.05 -31 -378)" d="M 1669.68,8352.88 C 1669.68,8352.88 1933.18,7857.5 2365.32,7983.98 " />
<path stroke="none" fill="#000000" transform="matrix(0.05 0 0 0.05 -31 -378)" d="M 2331.85,8020.03 L 2365.32,7983.98 L 2356.56,7935.57 L 2479.33,8017.35 Z " />
<path stroke="none" fill="#000000" transform="matrix(0.05 0 0 0.05 -31 -378)" d="M 1786.99,8679.12 A 15.6966,15.6966 0 1 0 1818.39,8679.12A 15.6966,15.6966 0 1 0 1786.99,8679.12Z " />
<path stroke="none" fill="#000000" transform="matrix(0.05 0 0 0.05 -31 -378)" d="M 1853.52,8702.87 A 15.6966,15.6966 0 1 0 1884.91,8702.87A 15.6966,15.6966 0 1 0 1853.52,8702.87Z " />
<path stroke="#000000" stroke-width="18" fill="none" transform="matrix(0.05 0 0 0.05 -31 -378)" d="M 1814.17,8732.04 C 1814.17,8732.04 1559.59,8995.18 1606.92,8600.71 " />
<path stroke="none" fill="#000000" transform="matrix(0.05 0 0 0.05 -31 -378)" d="M 1647.98,8627.8 L 1606.92,8600.71 L 1560.61,8617.32 L 1621.07,8482.76 Z " />
<path stroke="none" fill="#000000" transform="matrix(0.05 0 0 0.05 -31 -378)" d="M 3811.63,8524.49 L 3056.66,8524.49 L 3056.66,8506.49 L 3811.63,8506.49 Z " />
<path stroke="none" fill="#000000" transform="matrix(0.05 0 0 0.05 -31 -378)" d="M 3964.63,8515.49 C 3964.63,8515.49 3788.63,8560.49 3788.63,8560.49 C 3788.63,8560.49 3810.63,8535.17 3810.63,8515.49 C 3810.63,8495.36 3788.63,8469.49 3788.63,8469.49 C 3788.63,8469.49 3964.63,8515.49 3964.63,8515.49 C 3964.63,8515.49 3964.63,8515.49 3964.63,8515.49 " />
<path stroke="#000000" stroke-width="1" fill="none" transform="matrix(0.05 0 0 0.05 -31 -378)" d="M 3964.63,8515.49 C 3964.63,8515.49 3788.63,8560.49 3788.63,8560.49 C 3788.63,8560.49 3810.63,8535.17 3810.63,8515.49 C 3810.63,8495.36 3788.63,8469.49 3788.63,8469.49 C 3788.63,8469.49 3964.63,8515.49 3964.63,8515.49 C 3964.63,8515.49 3964.63,8515.49 3964.63,8515.49 " />
<path stroke="none" fill="#000000" transform="matrix(0.05 0 0 0.05 -31 -378)" d="M 5202.81,8461.68 L 5211.12,8466.71 L 5211.32,8476.43 L 4961.72,8621.25 L 4961.72,8600.9 L 5202.81,8461.68 Z " />
<path stroke="none" fill="#000000" transform="matrix(0.05 0 0 0.05 -31 -378)" d="M 4961.72,8600.9 L 4961.72,8621.25 L 4712.21,8476.47 L 4712.22,8456.12 L 4961.72,8600.9 Z " />
<text x="0" y="0" stroke="none" fill="#000000" transform="matrix(0.05 0 0 0.05 181.035 56.1173)" font-style="normal" font-weight="normal" font-size="200px" font-family="Arial" >
Me</text>
<path stroke="none" fill="#000000" transform="matrix(0.05 0 0 0.05 -31 -378)" d="M 4712.22,8456.12 L 4712.21,8476.47 L 4531.39,8581.35 L 4522.59,8566.1 L 4712.22,8456.12 Z " />
<text x="0" y="0" stroke="none" fill="#000000" transform="matrix(0.05 0 0 0.05 140.453 43.4129)" font-style="normal" font-weight="bold" font-size="200px" font-family="Arial" >
A</text>
<path stroke="#000000" stroke-width="18" fill="none" transform="matrix(0.05 0 0 0.05 -31 -378)" d="M 2681.55,8088.12 C 2681.55,8088.12 2916.75,7574.52 2873.55,7996.92 " />
<path stroke="none" fill="#000000" transform="matrix(0.05 0 0 0.05 -31 -378)" d="M 2832.01,7970.56 L 2873.55,7996.92 L 2919.56,7979.51 L 2861.46,8115.1 Z " />
<text x="0" y="0" stroke="none" fill="#000000" transform="matrix(0.05 0 0 0.05 238.138 56.1173)" font-style="normal" font-weight="normal" font-size="200px" font-family="Arial" >
O</text>
<text x="0" y="0" stroke="none" fill="#000000" transform="matrix(0.05 0 0 0.05 254.165 47.5101)" font-style="normal" font-weight="normal" font-size="200px" font-family="Arial" >
H</text>
<text x="0" y="0" stroke="none" fill="#000000" transform="matrix(0.05 0 0 0.05 253.289 33.0156)" font-style="normal" font-weight="normal" font-size="200px" font-family="Arial" >
Cl</text>
<text x="0" y="0" stroke="none" fill="#000000" transform="matrix(0.05 0 0 0.05 239.893 25.215)" font-style="normal" font-weight="normal" font-size="200px" font-family="Arial" >
S</text>
<text x="0" y="0" stroke="none" fill="#000000" transform="matrix(0.05 0 0 0.05 225.667 34.5173)" font-style="normal" font-weight="normal" font-size="200px" font-family="Arial" >
O</text>
<path stroke="none" fill="#000000" transform="matrix(0.05 0 0 0.05 -31 -378)" d="M 5211.32,8476.43 L 5211.12,8466.71 L 5219.45,8461.89 L 5375.4,8551.4 L 5366.6,8566.64 L 5211.32,8476.43 Z " />
<path stroke="none" fill="#000000" transform="matrix(0.05 0 0 0.05 -31 -378)" d="M 5258.56,8444.41 L 5267.36,8429.16 L 5401.32,8506.5 L 5392.52,8521.75 L 5258.56,8444.41 Z " />
<path stroke="none" fill="#000000" transform="matrix(0.05 0 0 0.05 -31 -378)" d="M 5556.07,8568.53 L 5547.63,8553.09 L 5669.12,8486.69 L 5677.56,8502.14 L 5556.07,8568.53 Z " />
<path stroke="none" fill="#000000" transform="matrix(0.05 0 0 0.05 -31 -378)" d="M 5675.97,8091.75 L 5667.25,8107.03 L 5568.83,8050.88 L 5577.55,8035.59 L 5675.97,8091.75 Z " />
<path stroke="none" fill="#000000" transform="matrix(0.05 0 0 0.05 -31 -378)" d="M 5393.75,8043.81 L 5403.65,8058.37 L 5302.74,8127.02 L 5292.84,8112.47 L 5393.75,8043.81 Z " />
<path stroke="none" fill="#000000" transform="matrix(0.05 0 0 0.05 -31 -378)" d="M 5202.32,8285.86 L 5219.92,8285.86 L 5219.45,8461.89 L 5211.12,8466.71 L 5202.81,8461.68 L 5202.32,8285.86 Z " />
<text x="0" y="0" stroke="none" fill="#000000" transform="matrix(0.05 0 0 0.05 239.339 9.31334)" font-style="normal" font-weight="normal" font-size="200px" font-family="Arial" >
O</text>
<path stroke="none" fill="#000000" transform="matrix(0.05 0 0 0.05 -31 -378)" d="M 5464.74,7886.87 L 5447.14,7886.87 L 5447.14,7781.78 L 5464.74,7781.78 L 5464.74,7886.87 Z " />
<path stroke="none" fill="#000000" transform="matrix(0.05 0 0 0.05 -31 -378)" d="M 5521.99,7886.87 L 5504.39,7886.87 L 5504.39,7781.78 L 5521.99,7781.78 L 5521.99,7886.87 Z " />
<path stroke="#000000" stroke-width="14" fill="none" transform="matrix(0.05 0 0 0.05 -31 -378)" d="M 5393.19,8805.57 A 74.0399,74.0399 0 1 0 5541.27,8805.57A 74.0399,74.0399 0 1 0 5393.19,8805.57Z " />
<path stroke="none" fill="#000000" transform="matrix(0.05 0 0 0.05 -31 -378)" d="M 5424.76,8798.24 L 5509.03,8798.24 L 5509.03,8812.24 L 5424.76,8812.24 Z " />
<path stroke="none" fill="#000000" transform="matrix(0.05 0 0 0.05 -31 -378)" d="M 5473.89,8763.11 L 5473.89,8847.37 L 5459.89,8847.37 L 5459.89,8763.11 Z " />
<path stroke="#000000" stroke-width="18" fill="none" transform="matrix(0.05 0 0 0.05 -31 -378)" d="M 5606.71,8492.13 C 5606.71,8492.13 5586,8067.83 5500.15,8408.77 " />
<path stroke="none" fill="#000000" transform="matrix(0.05 0 0 0.05 -31 -378)" d="M 5462.86,8376.7 L 5500.15,8408.77 L 5548.19,8398.18 L 5471.15,8523.98 Z " />
<path stroke="none" fill="#000000" transform="matrix(0.05 0 0 0.05 -31 -378)" d="M 6918.01,8512.92 L 6163.05,8512.92 L 6163.05,8494.92 L 6918.01,8494.92 Z " />
<path stroke="none" fill="#000000" transform="matrix(0.05 0 0 0.05 -31 -378)" d="M 7071.01,8503.92 C 7071.01,8503.92 6895.01,8548.92 6895.01,8548.92 C 6895.01,8548.92 6917.01,8523.61 6917.01,8503.92 C 6917.01,8483.79 6895.01,8457.92 6895.01,8457.92 C 6895.01,8457.92 7071.01,8503.92 7071.01,8503.92 C 7071.01,8503.92 7071.01,8503.92 7071.01,8503.92 " />
<path stroke="#000000" stroke-width="1" fill="none" transform="matrix(0.05 0 0 0.05 -31 -378)" d="M 7071.01,8503.92 C 7071.01,8503.92 6895.01,8548.92 6895.01,8548.92 C 6895.01,8548.92 6917.01,8523.61 6917.01,8503.92 C 6917.01,8483.79 6895.01,8457.92 6895.01,8457.92 C 6895.01,8457.92 7071.01,8503.92 7071.01,8503.92 C 7071.01,8503.92 7071.01,8503.92 7071.01,8503.92 " />
<text x="0" y="0" stroke="none" fill="#000000" transform="matrix(0.05 0 0 0.05 48.8121 105.478)" font-style="normal" font-weight="normal" font-size="200px" font-family="Arial" >
O</text>
<path stroke="none" fill="#000000" transform="matrix(0.05 0 0 0.05 -31 -378)" d="M 1691.15,9705.07 L 1708.75,9705.07 L 1708.75,9898.56 L 1691.15,9898.56 L 1691.15,9705.07 Z " />
<path stroke="none" fill="#000000" transform="matrix(0.05 0 0 0.05 -31 -378)" d="M 1639.31,9705.07 L 1656.91,9705.07 L 1656.91,9900.89 L 1639.31,9900.89 L 1639.31,9705.07 Z " />
<text x="0" y="0" stroke="none" fill="#000000" transform="matrix(0.05 0 0 0.05 63.5796 127.078)" font-style="normal" font-weight="normal" font-size="200px" font-family="Arial" >
O</text>
<path stroke="none" fill="#000000" transform="matrix(0.05 0 0 0.05 -31 -378)" d="M 1674.46,9895.53 L 1673.74,9875.58 L 1880.57,9976.84 L 1872.86,9992.66 L 1674.46,9895.53 Z " />
<path stroke="none" fill="#000000" transform="matrix(0.05 0 0 0.05 -31 -378)" d="M 1673.74,9875.58 L 1674.46,9895.53 L 1424.63,10040.5 L 1424.63,10020.1 L 1673.74,9875.58 Z " />
<path stroke="none" fill="#000000" transform="matrix(0.05 0 0 0.05 -31 -378)" d="M 1424.63,10020.1 L 1424.63,10040.5 L 1175.11,9895.68 L 1175.13,9875.33 L 1424.63,10020.1 Z " />
<text x="0" y="0" stroke="none" fill="#000000" transform="matrix(0.05 0 0 0.05 4.18042 127.078)" font-style="normal" font-weight="normal" font-size="200px" font-family="Arial" >
Me</text>
<path stroke="none" fill="#000000" transform="matrix(0.05 0 0 0.05 -31 -378)" d="M 1175.13,9875.33 L 1175.11,9895.68 L 993.855,10000.8 L 985.055,9985.57 L 1175.13,9875.33 Z " />
<path stroke="none" fill="#000000" transform="matrix(0.05 0 0 0.05 -31 -378)" d="M 2065.99,9990.78 L 2058.03,9975.09 L 2253.15,9875.7 L 2253.3,9895.39 L 2065.99,9990.78 Z " />
<text x="0" y="0" stroke="none" fill="#000000" transform="matrix(0.05 0 0 0.05 92.8201 127.078)" font-style="normal" font-weight="normal" font-size="200px" font-family="Arial" >
Cl</text>
<path stroke="none" fill="#000000" transform="matrix(0.05 0 0 0.05 -31 -378)" d="M 2253.3,9895.39 L 2253.15,9875.7 L 2463.74,9978.77 L 2456.03,9994.59 L 2253.3,9895.39 Z " />
<text x="0" y="0" stroke="none" fill="#000000" transform="matrix(0.05 0 0 0.05 77.7741 105.478)" font-style="normal" font-weight="normal" font-size="200px" font-family="Arial" >
O</text>
<path stroke="none" fill="#000000" transform="matrix(0.05 0 0 0.05 -31 -378)" d="M 2236.14,9899.08 L 2218.54,9899.08 L 2218.54,9705.08 L 2236.14,9705.08 L 2236.14,9899.08 Z " />
<path stroke="none" fill="#000000" transform="matrix(0.05 0 0 0.05 -31 -378)" d="M 2287.98,9898.57 L 2270.38,9898.57 L 2270.38,9705.08 L 2287.98,9705.08 L 2287.98,9898.57 Z " />
<path stroke="#000000" stroke-width="18" fill="none" transform="matrix(0.05 0 0 0.05 -31 -378)" d="M 1579.54,9599.03 C 1579.54,9599.03 935.89,9660.75 1519,9791.33 " />
<path stroke="none" fill="#000000" transform="matrix(0.05 0 0 0.05 -31 -378)" d="M 1487.92,9829.46 L 1519,9791.33 L 1507.15,9743.58 L 1634.93,9817.29 Z " />
<path stroke="#000000" stroke-width="18" fill="none" transform="matrix(0.05 0 0 0.05 -31 -378)" d="M 1807.26,9911.85 C 1807.26,9911.85 1871.04,9556.61 2080.38,9825.46 " />
<path stroke="none" fill="#000000" transform="matrix(0.05 0 0 0.05 -31 -378)" d="M 2032.15,9835.14 L 2080.38,9825.46 L 2101.58,9781.07 L 2153.37,9919.2 Z " />
<path stroke="#000000" stroke-width="18" fill="none" transform="matrix(0.05 0 0 0.05 -31 -378)" d="M 2338.97,9938.3 C 2338.97,9938.3 2386.74,10579.8 2502.75,10231.8 " />
<path stroke="none" fill="#000000" transform="matrix(0.05 0 0 0.05 -31 -378)" d="M 2537.54,10266.5 L 2502.75,10231.8 L 2454.05,10238.7 L 2540.32,10119 Z " />
<path stroke="none" fill="#000000" transform="matrix(0.05 0 0 0.05 -31 -378)" d="M 3639.57,9934.18 L 2837.15,9934.18 L 2837.15,9916.18 L 3639.57,9916.18 Z " />
<path stroke="none" fill="#000000" transform="matrix(0.05 0 0 0.05 -31 -378)" d="M 3792.57,9925.18 C 3792.57,9925.18 3616.57,9970.18 3616.57,9970.18 C 3616.57,9970.18 3638.57,9944.87 3638.57,9925.18 C 3638.57,9905.06 3616.57,9879.18 3616.57,9879.18 C 3616.57,9879.18 3792.57,9925.18 3792.57,9925.18 C 3792.57,9925.18 3792.57,9925.18 3792.57,9925.18 " />
<path stroke="#000000" stroke-width="1" fill="none" transform="matrix(0.05 0 0 0.05 -31 -378)" d="M 3792.57,9925.18 C 3792.57,9925.18 3616.57,9970.18 3616.57,9970.18 C 3616.57,9970.18 3638.57,9944.87 3638.57,9925.18 C 3638.57,9905.06 3616.57,9879.18 3616.57,9879.18 C 3616.57,9879.18 3792.57,9925.18 3792.57,9925.18 C 3792.57,9925.18 3792.57,9925.18 3792.57,9925.18 " />
<text x="0" y="0" stroke="none" fill="#000000" transform="matrix(0.05 0 0 0.05 220.377 119.944)" font-style="normal" font-weight="normal" font-size="200px" font-family="Arial" >
C</text>
<path stroke="none" fill="#000000" transform="matrix(0.05 0 0 0.05 -31 -378)" d="M 5008.44,9929.81 L 5017.24,9945.05 L 4850.5,10041.9 L 4850.53,10021.5 L 5008.44,9929.81 Z " />
<path stroke="none" fill="#000000" transform="matrix(0.05 0 0 0.05 -31 -378)" d="M 4850.53,10021.5 L 4850.5,10041.9 L 4600.83,9897.01 L 4600.85,9876.65 L 4850.53,10021.5 Z " />
<text x="0" y="0" stroke="none" fill="#000000" transform="matrix(0.05 0 0 0.05 175.467 127.144)" font-style="normal" font-weight="normal" font-size="200px" font-family="Arial" >
Me</text>
<path stroke="none" fill="#000000" transform="matrix(0.05 0 0 0.05 -31 -378)" d="M 4600.85,9876.65 L 4600.83,9897.01 L 4418.83,10002.6 L 4410.03,9987.32 L 4600.85,9876.65 Z " />
<text x="0" y="0" stroke="none" fill="#000000" transform="matrix(0.05 0 0 0.05 237.694 108.9)" font-style="normal" font-weight="normal" font-size="200px" font-family="Arial" >
O</text>
<path stroke="none" fill="#000000" transform="matrix(0.05 0 0 0.05 -31 -378)" d="M 5152.84,9776.02 L 5143.48,9761.11 L 5318.9,9651.01 L 5328.25,9665.92 L 5152.84,9776.02 Z " />
<path stroke="none" fill="#000000" transform="matrix(0.05 0 0 0.05 -31 -378)" d="M 5192.59,9839.36 L 5183.24,9824.45 L 5358.65,9714.35 L 5368.01,9729.26 L 5192.59,9839.36 Z " />
<path stroke="none" fill="#000000" transform="matrix(0.05 0 0 0.05 -31 -378)" d="M 5232.35,9902.7 L 5223,9887.8 L 5398.41,9777.7 L 5407.77,9792.6 L 5232.35,9902.7 Z " />
<path stroke="#000000" stroke-width="14" fill="none" transform="matrix(0.05 0 0 0.05 -31 -378)" d="M 5466.14,9493.04 A 74.0399,74.0399 0 1 0 5614.22,9493.04A 74.0399,74.0399 0 1 0 5466.14,9493.04Z " />
<path stroke="none" fill="#000000" transform="matrix(0.05 0 0 0.05 -31 -378)" d="M 5497.71,9485.71 L 5581.98,9485.71 L 5581.98,9499.71 L 5497.71,9499.71 Z " />
<path stroke="none" fill="#000000" transform="matrix(0.05 0 0 0.05 -31 -378)" d="M 5546.84,9450.57 L 5546.84,9534.84 L 5532.84,9534.84 L 5532.84,9450.57 Z " />
<text x="0" y="0" stroke="none" fill="#000000" transform="matrix(0.05 0 0 0.05 256.584 129.943)" font-style="normal" font-weight="normal" font-size="200px" font-family="Arial" >
Cl</text>
<path stroke="#000000" stroke-width="14" fill="none" transform="matrix(0.05 0 0 0.05 -31 -378)" d="M 5616.31,9964.15 A 74.0399,74.0399 0 1 0 5764.38,9964.15A 74.0399,74.0399 0 1 0 5616.31,9964.15Z " />
<path stroke="none" fill="#000000" transform="matrix(0.05 0 0 0.05 -31 -378)" d="M 5647.88,9956.82 L 5732.14,9956.82 L 5732.14,9970.82 L 5647.88,9970.82 Z " />
<path stroke="#000000" stroke-width="18" fill="none" transform="matrix(0.05 0 0 0.05 -31 -378)" d="M 5207.01,9695.71 C 5207.01,9695.71 4874.45,9239.13 5301.69,9535.27 " />
<path stroke="none" fill="#000000" transform="matrix(0.05 0 0 0.05 -31 -378)" d="M 5258.54,9558.9 L 5301.69,9535.27 L 5308.67,9486.57 L 5399.33,9602.95 Z " />
<path stroke="#000000" stroke-width="18" fill="none" transform="matrix(0.05 0 0 0.05 -31 -378)" d="M 5651.61,10050.3 C 5651.61,10050.3 5172.43,10490.7 5123.86,10082.7 " />
<path stroke="none" fill="#000000" transform="matrix(0.05 0 0 0.05 -31 -378)" d="M 5170.15,10099.4 L 5123.86,10082.7 L 5082.77,10109.8 L 5109.82,9964.76 Z " />
<text x="0" y="0" stroke="none" fill="#000000" transform="matrix(0.05 0 0 0.05 126.71 112.201)" font-style="normal" font-weight="bold" font-size="200px" font-family="Arial" >
C</text>
<text x="0" y="0" stroke="none" fill="#000000" transform="matrix(0.05 0 0 0.05 364.012 103.127)" font-style="normal" font-weight="normal" font-size="200px" font-family="Arial" >
O</text>
<path stroke="none" fill="#000000" transform="matrix(0.05 0 0 0.05 -31 -378)" d="M 7995.14,9658.05 L 8012.74,9658.05 L 8012.74,9853.87 L 7995.14,9853.87 L 7995.14,9658.05 Z " />
<path stroke="none" fill="#000000" transform="matrix(0.05 0 0 0.05 -31 -378)" d="M 7943.3,9658.05 L 7960.9,9658.05 L 7960.9,9853.87 L 7943.3,9853.87 L 7943.3,9658.05 Z " />
<text x="0" y="0" stroke="none" fill="#000000" transform="matrix(0.05 0 0 0.05 376.76 124.727)" font-style="normal" font-weight="normal" font-size="200px" font-family="Arial" >
Cl</text>
<path stroke="none" fill="#000000" transform="matrix(0.05 0 0 0.05 -31 -378)" d="M 7978.2,9848.63 L 7978.18,9828.27 L 8145.64,9925.52 L 8136.84,9940.76 L 7978.2,9848.63 Z " />
<path stroke="none" fill="#000000" transform="matrix(0.05 0 0 0.05 -31 -378)" d="M 7978.18,9828.27 L 7978.2,9848.63 L 7728.62,9993.44 L 7728.62,9973.09 L 7978.18,9828.27 Z " />
<path stroke="none" fill="#000000" transform="matrix(0.05 0 0 0.05 -31 -378)" d="M 7728.62,9973.09 L 7728.62,9993.44 L 7479.11,9848.66 L 7479.12,9828.31 L 7728.62,9973.09 Z " />
<text x="0" y="0" stroke="none" fill="#000000" transform="matrix(0.05 0 0 0.05 319.38 124.727)" font-style="normal" font-weight="normal" font-size="200px" font-family="Arial" >
Me</text>
<path stroke="none" fill="#000000" transform="matrix(0.05 0 0 0.05 -31 -378)" d="M 7479.12,9828.31 L 7479.11,9848.66 L 7298.29,9953.54 L 7289.49,9938.29 L 7479.12,9828.31 Z " />
<path stroke="none" fill="#000000" transform="matrix(0.05 0 0 0.05 -31 -378)" d="M 6784.89,9934.18 L 6037.61,9934.18 L 6037.61,9916.18 L 6784.89,9916.18 Z " />
<path stroke="none" fill="#000000" transform="matrix(0.05 0 0 0.05 -31 -378)" d="M 6937.88,9925.18 C 6937.88,9925.18 6761.89,9970.18 6761.89,9970.18 C 6761.89,9970.18 6783.89,9944.87 6783.89,9925.18 C 6783.89,9905.06 6761.89,9879.18 6761.89,9879.18 C 6761.89,9879.18 6937.88,9925.18 6937.88,9925.18 C 6937.88,9925.18 6937.88,9925.18 6937.88,9925.18 " />
<path stroke="#000000" stroke-width="1" fill="none" transform="matrix(0.05 0 0 0.05 -31 -378)" d="M 6937.88,9925.18 C 6937.88,9925.18 6761.89,9970.18 6761.89,9970.18 C 6761.89,9970.18 6783.89,9944.87 6783.89,9925.18 C 6783.89,9905.06 6761.89,9879.18 6761.89,9879.18 C 6761.89,9879.18 6937.88,9925.18 6937.88,9925.18 C 6937.88,9925.18 6937.88,9925.18 6937.88,9925.18 " />
<text x="0" y="0" stroke="none" fill="#000000" transform="matrix(0.05 0 0 0.05 288.43 111.994)" font-style="normal" font-weight="bold" font-size="200px" font-family="Arial" >
D</text>
</svg>
