<?xml version="1.0" standalone="no" ?>
<!DOCTYPE svg PUBLIC "-//W3C//DTD SVG 1.1//EN" "http://www.w3.org/Graphics/SVG/1.1/DTD/svg11.dtd">
<svg width="242px" height="53px" viewBox="0 0 242 53" style="background-color: #ffffff00" xmlns="http://www.w3.org/2000/svg" xmlns:xlink="http://www.w3.org/1999/xlink" version="1.1" >
<path stroke="none" fill="#000000" transform="matrix(0.05 0 0 0.05 -93 -77)" d="M 1919.37,2085.98 L 1936.99,2096.15 L 1936.99,2374.35 L 1919.37,2384.52 L 1919.37,2085.98 Z " />
<path stroke="none" fill="#000000" transform="matrix(0.05 0 0 0.05 -93 -77)" d="M 1971.53,2121.17 L 1989.13,2121.17 L 1989.13,2349.33 L 1971.53,2349.33 L 1971.53,2121.17 Z " />
<path stroke="none" fill="#000000" transform="matrix(0.05 0 0 0.05 -93 -77)" d="M 1919.37,2384.52 L 1936.99,2374.35 L 2177.9,2513.45 L 2177.9,2533.8 L 1919.37,2384.52 Z " />
<path stroke="none" fill="#000000" transform="matrix(0.05 0 0 0.05 -93 -77)" d="M 2177.9,2533.8 L 2177.9,2513.45 L 2418.81,2374.35 L 2436.43,2384.52 L 2177.9,2533.8 Z " />
<path stroke="none" fill="#000000" transform="matrix(0.05 0 0 0.05 -93 -77)" d="M 2182.3,2471.02 L 2173.5,2455.78 L 2371.07,2341.71 L 2379.87,2356.95 L 2182.3,2471.02 Z " />
<path stroke="none" fill="#000000" transform="matrix(0.05 0 0 0.05 -93 -77)" d="M 2436.43,2384.52 L 2418.81,2374.35 L 2418.81,2096.15 L 2427.31,2091.24 L 2435.81,2096.15 L 2436.43,2384.52 Z " />
<path stroke="none" fill="#000000" transform="matrix(0.05 0 0 0.05 -93 -77)" d="M 2427.31,2081.43 L 2427.31,2091.24 L 2418.81,2096.15 L 2177.9,1957.05 L 2177.9,1936.7 L 2427.31,2081.43 Z " />
<path stroke="none" fill="#000000" transform="matrix(0.05 0 0 0.05 -93 -77)" d="M 2379.87,2113.55 L 2371.07,2128.79 L 2173.5,2014.72 L 2182.3,1999.48 L 2379.87,2113.55 Z " />
<path stroke="none" fill="#000000" transform="matrix(0.05 0 0 0.05 -93 -77)" d="M 2177.9,1936.7 L 2177.9,1957.05 L 1936.99,2096.15 L 1919.37,2085.98 L 2177.9,1936.7 Z " />
<path stroke="none" fill="#000000" transform="matrix(0.05 0 0 0.05 -93 -77)" d="M 2435.81,2096.15 L 2427.31,2091.24 L 2427.31,2081.43 L 2676.88,1936.6 L 2676.92,1956.95 L 2435.81,2096.15 Z " />
<text x="0" y="0" stroke="none" fill="#000000" transform="matrix(0.05 0 0 0.05 49.4175 31.1437)" font-style="normal" font-weight="normal" font-size="200px" font-family="Arial" >
OH</text>
<path stroke="none" fill="#000000" transform="matrix(0.05 0 0 0.05 -93 -77)" d="M 2676.92,1956.95 L 2676.88,1936.6 L 2840.25,2031.49 L 2831.45,2046.73 L 2676.92,1956.95 Z " />
<text x="0" y="0" stroke="none" fill="#000000" transform="matrix(0.05 0 0 0.05 36.9469 9.54274)" font-style="normal" font-weight="normal" font-size="200px" font-family="Arial" >
O</text>
<path stroke="none" fill="#000000" transform="matrix(0.05 0 0 0.05 -93 -77)" d="M 2659.6,1962.2 L 2642,1962.2 L 2642,1766.37 L 2659.6,1766.37 L 2659.6,1962.2 Z " />
<path stroke="none" fill="#000000" transform="matrix(0.05 0 0 0.05 -93 -77)" d="M 2711.44,1962.2 L 2693.84,1962.2 L 2693.84,1766.37 L 2711.44,1766.37 L 2711.44,1962.2 Z " />
<path stroke="none" fill="#000000" transform="matrix(0.05 0 0 0.05 -93 -77)" d="M 4917.91,2069.08 L 3434.26,2069.08 L 3434.26,2051.08 L 4917.91,2051.08 Z " />
<path stroke="none" fill="#000000" transform="matrix(0.05 0 0 0.05 -93 -77)" d="M 5070.9,2060.08 C 5070.9,2060.08 4894.91,2105.08 4894.91,2105.08 C 4894.91,2105.08 4916.91,2079.77 4916.91,2060.08 C 4916.91,2039.96 4894.91,2014.08 4894.91,2014.08 C 4894.91,2014.08 5070.9,2060.08 5070.9,2060.08 C 5070.9,2060.08 5070.9,2060.08 5070.9,2060.08 " />
<path stroke="#000000" stroke-width="1" fill="none" transform="matrix(0.05 0 0 0.05 -93 -77)" d="M 5070.9,2060.08 C 5070.9,2060.08 4894.91,2105.08 4894.91,2105.08 C 4894.91,2105.08 4916.91,2079.77 4916.91,2060.08 C 4916.91,2039.96 4894.91,2014.08 4894.91,2014.08 C 4894.91,2014.08 5070.9,2060.08 5070.9,2060.08 C 5070.9,2060.08 5070.9,2060.08 5070.9,2060.08 " />
<path stroke="none" fill="#000000" transform="matrix(0.05 0 0 0.05 -93 -77)" d="M 5372.92,2085.98 L 5390.54,2096.15 L 5390.54,2374.35 L 5372.92,2384.52 L 5372.92,2085.98 Z " />
<path stroke="none" fill="#000000" transform="matrix(0.05 0 0 0.05 -93 -77)" d="M 5425.08,2121.17 L 5442.68,2121.17 L 5442.68,2349.33 L 5425.08,2349.33 L 5425.08,2121.17 Z " />
<path stroke="none" fill="#000000" transform="matrix(0.05 0 0 0.05 -93 -77)" d="M 5372.92,2384.52 L 5390.54,2374.35 L 5631.45,2513.45 L 5631.45,2533.8 L 5372.92,2384.52 Z " />
<path stroke="none" fill="#000000" transform="matrix(0.05 0 0 0.05 -93 -77)" d="M 5631.45,2533.8 L 5631.45,2513.45 L 5872.56,2374.35 L 5890.18,2384.53 L 5631.45,2533.8 Z " />
<path stroke="none" fill="#000000" transform="matrix(0.05 0 0 0.05 -93 -77)" d="M 5635.86,2471 L 5627.06,2455.75 L 5824.79,2341.68 L 5833.59,2356.92 L 5635.86,2471 Z " />
<path stroke="none" fill="#000000" transform="matrix(0.05 0 0 0.05 -93 -77)" d="M 5890.18,2384.53 L 5872.56,2374.35 L 5872.56,2096.15 L 5881.06,2091.24 L 5889.56,2096.15 L 5890.18,2384.53 Z " />
<path stroke="none" fill="#000000" transform="matrix(0.05 0 0 0.05 -93 -77)" d="M 5881.06,2081.43 L 5881.06,2091.24 L 5872.56,2096.15 L 5631.45,1957.05 L 5631.45,1936.71 L 5881.06,2081.43 Z " />
<path stroke="none" fill="#000000" transform="matrix(0.05 0 0 0.05 -93 -77)" d="M 5833.59,2113.58 L 5824.79,2128.83 L 5627.06,2014.75 L 5635.86,1999.51 L 5833.59,2113.58 Z " />
<path stroke="none" fill="#000000" transform="matrix(0.05 0 0 0.05 -93 -77)" d="M 5631.45,1936.71 L 5631.45,1957.05 L 5390.54,2096.15 L 5372.92,2085.98 L 5631.45,1936.71 Z " />
<path stroke="none" fill="#000000" transform="matrix(0.05 0 0 0.05 -93 -77)" d="M 5889.56,2096.15 L 5881.06,2091.24 L 5881.06,2081.43 L 6130.63,1936.6 L 6130.67,1956.96 L 5889.56,2096.15 Z " />
<text x="0" y="0" stroke="none" fill="#000000" transform="matrix(0.05 0 0 0.05 222.105 31.1438)" font-style="normal" font-weight="normal" font-size="200px" font-family="Arial" >
OEt</text>
<path stroke="none" fill="#000000" transform="matrix(0.05 0 0 0.05 -93 -77)" d="M 6130.67,1956.96 L 6130.63,1936.6 L 6294.75,2031.93 L 6285.95,2047.17 L 6130.67,1956.96 Z " />
<text x="0" y="0" stroke="none" fill="#000000" transform="matrix(0.05 0 0 0.05 209.635 9.54278)" font-style="normal" font-weight="normal" font-size="200px" font-family="Arial" >
O</text>
<path stroke="none" fill="#000000" transform="matrix(0.05 0 0 0.05 -93 -77)" d="M 6113.35,1962.2 L 6095.75,1962.2 L 6095.75,1766.37 L 6113.35,1766.37 L 6113.35,1962.2 Z " />
<path stroke="none" fill="#000000" transform="matrix(0.05 0 0 0.05 -93 -77)" d="M 6165.19,1962.2 L 6147.59,1962.2 L 6147.59,1766.37 L 6165.19,1766.37 L 6165.19,1962.2 Z " />
<text x="0" y="0" stroke="none" fill="#000000" transform="matrix(0.05 0 0 0.05 93.0141 17.2498)" font-style="normal" font-weight="normal" font-size="200px" font-family="Arial" >
H</text>
<text x="0" y="0" stroke="none" fill="#000000" transform="matrix(0.05 0 0 0.05 100.236 19.369)" font-style="normal" font-weight="normal" font-size="150px" font-family="Arial" >
2</text>
<text x="0" y="0" stroke="none" fill="#000000" transform="matrix(0.05 0 0 0.05 104.407 17.2498)" font-style="normal" font-weight="normal" font-size="200px" font-family="Arial" >
SO</text>
<text x="0" y="0" stroke="none" fill="#000000" transform="matrix(0.05 0 0 0.05 118.855 19.369)" font-style="normal" font-weight="normal" font-size="150px" font-family="Arial" >
4</text>
<text x="0" y="0" stroke="none" fill="#000000" transform="matrix(0.05 0 0 0.05 123.026 17.2498)" font-style="normal" font-weight="normal" font-size="200px" font-family="Arial" >
 </text>
<text x="0" y="0" stroke="none" fill="#000000" transform="matrix(0.05 0 0 0.05 125.805 17.2498)" font-style="normal" font-weight="normal" font-size="200px" font-family="Arial" >
(cat)</text>
<text x="0" y="0" stroke="none" fill="#000000" transform="matrix(0.05 0 0 0.05 107.081 39.2687)" font-style="normal" font-weight="normal" font-size="200px" font-family="Arial" >
EtOH</text>
<text x="0" y="0" stroke="none" fill="#000000" transform="matrix(0.05 0 0 0.05 107.079 50.7677)" font-style="normal" font-weight="normal" font-size="200px" font-family="Arial" >
reflux</text>
</svg>
