<?xml version="1.0" standalone="no" ?>
<!DOCTYPE svg PUBLIC "-//W3C//DTD SVG 1.1//EN" "http://www.w3.org/Graphics/SVG/1.1/DTD/svg11.dtd">
<svg width="341px" height="53px" viewBox="0 0 341 53" style="background-color: #ffffff00" xmlns="http://www.w3.org/2000/svg" xmlns:xlink="http://www.w3.org/1999/xlink" version="1.1" >
<text x="0" y="0" stroke="none" fill="#000000" transform="matrix(0.05 0 0 0.05 24.7608 25.0415)" font-style="normal" font-weight="normal" font-size="200px" font-family="Arial" >
OH</text>
<path stroke="none" fill="#000000" transform="matrix(0.05 0 0 0.05 -97 -64)" d="M 2237.5,1643.94 L 2234.8,1634.6 L 2244.9,1629.01 L 2417.22,1674.41 L 2412.67,1691.41 L 2237.5,1643.94 Z " />
<path stroke="none" fill="#000000" transform="matrix(0.05 0 0 0.05 -97 -64)" d="M 2229.67,1622.23 L 2234.8,1634.6 L 2221.53,1636.35 L 1981,1498.22 L 1989.8,1482.98 L 2229.67,1622.23 Z " />
<path stroke="none" fill="#000000" transform="matrix(0.05 0 0 0.05 -97 -64)" d="M 2221.53,1636.35 L 2234.8,1634.6 L 2237.5,1643.94 L 2037.22,1844.62 L 2024.78,1832.18 L 2221.53,1636.35 Z " />
<path stroke="none" fill="#000000" transform="matrix(0.05 0 0 0.05 -97 -64)" d="M 2244.9,1629.01 L 2234.8,1634.6 L 2229.67,1622.23 L 2300.7,1354.13 L 2317.7,1358.67 L 2244.9,1629.01 Z " />
<path stroke="none" fill="#000000" transform="matrix(0.05 0 0 0.05 -97 -64)" d="M 3445.6,1652.4 L 2855,1652.4 L 2855,1634.4 L 3445.6,1634.4 Z " />
<path stroke="none" fill="#000000" transform="matrix(0.05 0 0 0.05 -97 -64)" d="M 3598.6,1643.4 C 3598.6,1643.4 3422.6,1688.4 3422.6,1688.4 C 3422.6,1688.4 3444.6,1663.09 3444.6,1643.4 C 3444.6,1623.28 3422.6,1597.4 3422.6,1597.4 C 3422.6,1597.4 3598.6,1643.4 3598.6,1643.4 C 3598.6,1643.4 3598.6,1643.4 3598.6,1643.4 " />
<path stroke="#000000" stroke-width="1" fill="none" transform="matrix(0.05 0 0 0.05 -97 -64)" d="M 3598.6,1643.4 C 3598.6,1643.4 3422.6,1688.4 3422.6,1688.4 C 3422.6,1688.4 3444.6,1663.09 3444.6,1643.4 C 3444.6,1623.28 3422.6,1597.4 3422.6,1597.4 C 3422.6,1597.4 3598.6,1643.4 3598.6,1643.4 C 3598.6,1643.4 3598.6,1643.4 3598.6,1643.4 " />
<text x="0" y="0" stroke="none" fill="#000000" transform="matrix(0.05 0 0 0.05 56.0042 14.5735)" font-style="normal" font-weight="normal" font-size="200px" font-family="Arial" >
H</text>
<path stroke="none" fill="#000000" transform="matrix(0.05 0 0 0.05 -97 -64)" d="M 3196.97,1385.84 L 3281.23,1385.84 L 3281.23,1399.84 L 3196.97,1399.84 Z " />
<path stroke="none" fill="#000000" transform="matrix(0.05 0 0 0.05 -97 -64)" d="M 3246.1,1350.71 L 3246.1,1434.97 L 3232.1,1434.97 L 3232.1,1350.71 Z " />
<path stroke="none" fill="#000000" transform="matrix(0.05 0 0 0.05 -97 -64)" d="M 2471.56,1844 A 12.8444,12.8444 0 1 0 2497.24,1844A 12.8444,12.8444 0 1 0 2471.56,1844Z " />
<path stroke="none" fill="#000000" transform="matrix(0.05 0 0 0.05 -97 -64)" d="M 2529.36,1844 A 12.8444,12.8444 0 1 0 2555.04,1844A 12.8444,12.8444 0 1 0 2529.36,1844Z " />
<text x="0" y="0" stroke="none" fill="#000000" transform="matrix(0.05 0 0 0.05 111.189 33.9395)" font-style="normal" font-weight="normal" font-size="200px" font-family="Arial" >
O</text>
<path stroke="none" fill="#000000" transform="matrix(0.05 0 0 0.05 -97 -64)" d="M 3986.92,1693.69 L 3986.2,1682.6 L 3995.78,1679.57 L 4164.32,1814.01 L 4153.32,1827.75 L 3986.92,1693.69 Z " />
<path stroke="none" fill="#000000" transform="matrix(0.05 0 0 0.05 -97 -64)" d="M 3981.08,1670.23 L 3986.2,1682.6 L 3972.92,1684.35 L 3732.2,1546.22 L 3741,1530.98 L 3981.08,1670.23 Z " />
<path stroke="none" fill="#000000" transform="matrix(0.05 0 0 0.05 -97 -64)" d="M 3972.92,1684.35 L 3986.2,1682.6 L 3986.92,1693.69 L 3788.62,1892.43 L 3776.18,1879.97 L 3972.92,1684.35 Z " />
<path stroke="none" fill="#000000" transform="matrix(0.05 0 0 0.05 -97 -64)" d="M 3995.78,1679.57 L 3986.2,1682.6 L 3981.08,1670.23 L 4052.3,1402.12 L 4069.3,1406.68 L 3995.78,1679.57 Z " />
<text x="0" y="0" stroke="none" fill="#000000" transform="matrix(0.05 0 0 0.05 126.878 33.9395)" font-style="normal" font-weight="normal" font-size="200px" font-family="Arial" >
H</text>
<path stroke="none" fill="#000000" transform="matrix(0.05 0 0 0.05 -97 -64)" d="M 4341.44,1895.96 L 4341.44,1878.36 L 4460.58,1878.36 L 4460.58,1895.96 L 4341.44,1895.96 Z " />
<text x="0" y="0" stroke="none" fill="#000000" transform="matrix(0.05 0 0 0.05 111.467 50.6985)" font-style="normal" font-weight="normal" font-size="200px" font-family="Arial" >
H</text>
<path stroke="none" fill="#000000" transform="matrix(0.05 0 0 0.05 -97 -64)" d="M 4232.76,1993.09 L 4250.36,1993.09 L 4250.36,2118.76 L 4232.76,2118.76 L 4232.76,1993.09 Z " />
<path stroke="none" fill="#000000" transform="matrix(0.05 0 0 0.05 -97 -64)" d="M 5108.4,1652.4 L 4685.4,1652.4 L 4685.4,1634.4 L 5108.4,1634.4 Z " />
<path stroke="none" fill="#000000" transform="matrix(0.05 0 0 0.05 -97 -64)" d="M 5261.4,1643.4 C 5261.4,1643.4 5085.4,1688.4 5085.4,1688.4 C 5085.4,1688.4 5107.4,1663.09 5107.4,1643.4 C 5107.4,1623.28 5085.4,1597.4 5085.4,1597.4 C 5085.4,1597.4 5261.4,1643.4 5261.4,1643.4 C 5261.4,1643.4 5261.4,1643.4 5261.4,1643.4 " />
<path stroke="#000000" stroke-width="1" fill="none" transform="matrix(0.05 0 0 0.05 -97 -64)" d="M 5261.4,1643.4 C 5261.4,1643.4 5085.4,1688.4 5085.4,1688.4 C 5085.4,1688.4 5107.4,1663.09 5107.4,1643.4 C 5107.4,1623.28 5085.4,1597.4 5085.4,1597.4 C 5085.4,1597.4 5261.4,1643.4 5261.4,1643.4 C 5261.4,1643.4 5261.4,1643.4 5261.4,1643.4 " />
<path stroke="none" fill="#000000" transform="matrix(0.05 0 0 0.05 -97 -64)" d="M 5768.8,1334.4 L 5786.4,1334.4 L 5786.1,1617.49 L 5777.6,1622.4 L 5769.1,1617.49 L 5768.8,1334.4 Z " />
<path stroke="none" fill="#000000" transform="matrix(0.05 0 0 0.05 -97 -64)" d="M 5777.6,1632.21 L 5777.6,1622.4 L 5786.1,1617.49 L 6031.4,1758.78 L 6022.6,1774.02 L 5777.6,1632.21 Z " />
<path stroke="none" fill="#000000" transform="matrix(0.05 0 0 0.05 -97 -64)" d="M 5769.1,1617.49 L 5777.6,1622.4 L 5777.6,1632.21 L 5536.55,1771.4 L 5518.94,1761.2 L 5769.1,1617.49 Z " />
<text x="0" y="0" stroke="none" fill="#000000" transform="matrix(0.05 0 0 0.05 234.039 22.2064)" font-style="normal" font-weight="normal" font-size="200px" font-family="Helvetica" >
H</text>
<text x="0" y="0" stroke="none" fill="#000000" transform="matrix(0.05 0 0 0.05 241.261 24.5062)" font-style="normal" font-weight="normal" font-size="150px" font-family="Helvetica" >
2</text>
<text x="0" y="0" stroke="none" fill="#000000" transform="matrix(0.05 0 0 0.05 245.432 22.2064)" font-style="normal" font-weight="normal" font-size="200px" font-family="Helvetica" >
O</text>
<text x="0" y="0" stroke="none" fill="#000000" transform="matrix(0.05 0 0 0.05 216.89 21.97)" font-style="normal" font-weight="normal" font-size="200px" font-family="Arial" >
+</text>
<text x="0" y="0" stroke="none" fill="#000000" transform="matrix(0.05 0 0 0.05 175.799 42.9755)" font-style="normal" font-weight="normal" font-size="200px" font-family="Arial" >
H</text>
<path stroke="none" fill="#000000" transform="matrix(0.05 0 0 0.05 -97 -64)" d="M 5518.94,1761.2 L 5536.55,1771.4 L 5537,1964.3 L 5519.4,1964.3 L 5518.94,1761.2 Z " />
<path stroke="none" fill="#000000" transform="matrix(0.05 0 0 0.05 -97 -64)" d="M 7805,1652.4 L 7353.8,1652.4 L 7353.8,1634.4 L 7805,1634.4 Z " />
<path stroke="none" fill="#000000" transform="matrix(0.05 0 0 0.05 -97 -64)" d="M 7958,1643.4 C 7958,1643.4 7782,1688.4 7782,1688.4 C 7782,1688.4 7804,1663.09 7804,1643.4 C 7804,1623.28 7782,1597.4 7782,1597.4 C 7782,1597.4 7958,1643.4 7958,1643.4 C 7958,1643.4 7958,1643.4 7958,1643.4 " />
<path stroke="#000000" stroke-width="1" fill="none" transform="matrix(0.05 0 0 0.05 -97 -64)" d="M 7958,1643.4 C 7958,1643.4 7782,1688.4 7782,1688.4 C 7782,1688.4 7804,1663.09 7804,1643.4 C 7804,1623.28 7782,1597.4 7782,1597.4 C 7782,1597.4 7958,1643.4 7958,1643.4 C 7958,1643.4 7958,1643.4 7958,1643.4 " />
<path stroke="none" fill="#000000" transform="matrix(0.05 0 0 0.05 -97 -64)" d="M 8471.72,1669.34 L 8480.52,1684.59 L 8218.16,1836.07 L 8209.36,1820.82 L 8471.72,1669.34 Z " />
<path stroke="none" fill="#000000" transform="matrix(0.05 0 0 0.05 -97 -64)" d="M 8445.8,1624.45 L 8454.6,1639.69 L 8192.24,1791.17 L 8183.44,1775.93 L 8445.8,1624.45 Z " />
<path stroke="none" fill="#000000" transform="matrix(0.05 0 0 0.05 -97 -64)" d="M 8441.08,1667.27 L 8458.7,1657.09 L 8704,1798.38 L 8695.2,1813.62 L 8441.08,1667.27 Z " />
<path stroke="none" fill="#000000" transform="matrix(0.05 0 0 0.05 -97 -64)" d="M 8458.7,1657.09 L 8441.08,1667.27 L 8441.4,1374 L 8459,1374 L 8458.7,1657.09 Z " />
<path stroke="none" fill="#000000" transform="matrix(0.05 0 0 0.05 -97 -64)" d="M 7053.11,1681.2 A 13.6889,13.6889 0 1 0 7080.49,1681.2A 13.6889,13.6889 0 1 0 7053.11,1681.2Z " />
<path stroke="none" fill="#000000" transform="matrix(0.05 0 0 0.05 -97 -64)" d="M 7053.11,1619.6 A 13.6889,13.6889 0 1 0 7080.49,1619.6A 13.6889,13.6889 0 1 0 7053.11,1619.6Z " />
<path stroke="none" fill="#000000" transform="matrix(0.05 0 0 0.05 -97 -64)" d="M 4191.43,1726.76 L 4275.69,1726.76 L 4275.69,1740.76 L 4191.43,1740.76 Z " />
<path stroke="none" fill="#000000" transform="matrix(0.05 0 0 0.05 -97 -64)" d="M 4240.56,1691.63 L 4240.56,1775.89 L 4226.56,1775.89 L 4226.56,1691.63 Z " />
<path stroke="none" fill="#000000" transform="matrix(0.05 0 0 0.05 -97 -64)" d="M 5731.47,1688 L 5815.73,1688 L 5815.73,1702 L 5731.47,1702 Z " />
<path stroke="none" fill="#000000" transform="matrix(0.05 0 0 0.05 -97 -64)" d="M 5780.6,1652.87 L 5780.6,1737.13 L 5766.6,1737.13 L 5766.6,1652.87 Z " />
<path stroke="#cf3c03" stroke-width="18" fill="none" transform="matrix(0.05 0 0 0.05 -97 -64)" d="M 2507.28,1881.91 C 2507.28,1881.91 2530.44,2522.21 3045.72,1760.59 " />
<path stroke="none" fill="#cf3c03" transform="matrix(0.05 0 0 0.05 -97 -64)" d="M 3069.83,1803.46 L 3045.72,1760.59 L 2996.95,1754.15 L 3112.29,1662.19 Z " />
<path stroke="#cf3c03" stroke-width="18" fill="none" transform="matrix(0.05 0 0 0.05 -97 -64)" d="M 4028.13,1794.93 C 4028.13,1794.93 3750.95,2197.34 4065.61,2007.01 " />
<path stroke="none" fill="#cf3c03" transform="matrix(0.05 0 0 0.05 -97 -64)" d="M 4069.55,2056.04 L 4065.61,2007.01 L 4024.01,1980.75 L 4167.25,1945.52 Z " />
<path stroke="#cf3c03" stroke-width="18" fill="none" transform="matrix(0.05 0 0 0.05 -97 -64)" d="M 7056.78,1759.96 C 7056.78,1759.96 6663.3,2440.7 5732.06,2096.96 " />
<path stroke="none" fill="#cf3c03" transform="matrix(0.05 0 0 0.05 -97 -64)" d="M 5767.93,2063.3 L 5732.06,2096.96 L 5737.46,2145.86 L 5620.61,2055.82 Z " />
<path stroke="#cf3c03" stroke-width="18" fill="none" transform="matrix(0.05 0 0 0.05 -97 -64)" d="M 5533.54,1866.98 C 5533.54,1866.98 5910.98,2028.74 5702.04,1813.06 " />
<path stroke="none" fill="#cf3c03" transform="matrix(0.05 0 0 0.05 -97 -64)" d="M 5748.95,1798.25 L 5702.04,1813.06 L 5685.74,1859.48 L 5619.38,1727.73 Z " />
</svg>
