<?xml version="1.0" standalone="no" ?>
<!DOCTYPE svg PUBLIC "-//W3C//DTD SVG 1.1//EN" "http://www.w3.org/Graphics/SVG/1.1/DTD/svg11.dtd">
<svg width="387px" height="140px" viewBox="0 0 387 140" style="background-color: #ffffff00" xmlns="http://www.w3.org/2000/svg" xmlns:xlink="http://www.w3.org/1999/xlink" version="1.1" >
<text x="0" y="0" stroke="none" fill="#000000" transform="matrix(0.05 0 0 0.05 33.7108 40.5315)" font-style="normal" font-weight="normal" font-size="200px" font-family="Arial" >
OEt</text>
<path stroke="none" fill="#000000" transform="matrix(0.05 0 0 0.05 -57 -198)" d="M 1806.86,4639.68 L 1798.06,4654.92 L 1642.68,4564.67 L 1642.66,4544.29 L 1806.86,4639.68 Z " />
<text x="0" y="0" stroke="none" fill="#000000" transform="matrix(0.05 0 0 0.05 1.55916 40.5315)" font-style="normal" font-weight="normal" font-size="200px" font-family="Arial" >
Me</text>
<path stroke="none" fill="#000000" transform="matrix(0.05 0 0 0.05 -57 -198)" d="M 1642.66,4544.29 L 1642.68,4564.67 L 1460.67,4670.29 L 1451.86,4655.05 L 1642.66,4544.29 Z " />
<text x="0" y="0" stroke="none" fill="#000000" transform="matrix(0.05 0 0 0.05 21.2408 18.9315)" font-style="normal" font-weight="normal" font-size="200px" font-family="Arial" >
O</text>
<path stroke="none" fill="#000000" transform="matrix(0.05 0 0 0.05 -57 -198)" d="M 1625.48,4569.98 L 1607.88,4569.98 L 1607.88,4375.15 L 1625.48,4375.15 L 1625.48,4569.98 Z " />
<path stroke="none" fill="#000000" transform="matrix(0.05 0 0 0.05 -57 -198)" d="M 1677.32,4569.97 L 1659.72,4569.97 L 1659.72,4375.15 L 1677.32,4375.15 L 1677.32,4569.97 Z " />
<text x="0" y="0" stroke="none" fill="#000000" transform="matrix(0.05 0 0 0.05 10.455 64.1415)" font-style="normal" font-weight="normal" font-size="200px" font-family="Arial" >
Ph</text>
<path stroke="#000000" stroke-width="14" fill="none" transform="matrix(0.05 0 0 0.05 -57 -198)" d="M 1540.49,5058.33 A 74.0399,74.0399 0 1 0 1688.57,5058.33A 74.0399,74.0399 0 1 0 1540.49,5058.33Z " />
<path stroke="none" fill="#000000" transform="matrix(0.05 0 0 0.05 -57 -198)" d="M 1572.07,5051 L 1656.33,5051 L 1656.33,5065 L 1572.07,5065 Z " />
<text x="0" y="0" stroke="none" fill="#000000" transform="matrix(0.05 0 0 0.05 31.295 63.9015)" font-style="normal" font-weight="normal" font-size="200px" font-family="Arial" >
MgBr</text>
<path stroke="#000000" stroke-width="14" fill="none" transform="matrix(0.05 0 0 0.05 -57 -198)" d="M 1772.69,5016.73 A 74.0399,74.0399 0 1 0 1920.77,5016.73A 74.0399,74.0399 0 1 0 1772.69,5016.73Z " />
<path stroke="none" fill="#000000" transform="matrix(0.05 0 0 0.05 -57 -198)" d="M 1804.27,5009.4 L 1888.53,5009.4 L 1888.53,5023.4 L 1804.27,5023.4 Z " />
<path stroke="none" fill="#000000" transform="matrix(0.05 0 0 0.05 -57 -198)" d="M 1853.4,4974.27 L 1853.4,5058.53 L 1839.4,5058.53 L 1839.4,4974.27 Z " />
<path stroke="none" fill="#000000" transform="matrix(0.05 0 0 0.05 -57 -198)" d="M 1611.65,5178.9 L 1611.38,5161.3 L 1747.63,5159.18 L 1747.9,5176.78 L 1611.65,5178.9 Z " />
<path stroke="#000000" stroke-width="14" fill="none" transform="matrix(0.05 0 0 0.05 -57 -198)" d="M 2181.09,5000.33 A 74.0399,74.0399 0 1 0 2329.17,5000.33A 74.0399,74.0399 0 1 0 2181.09,5000.33Z " />
<path stroke="none" fill="#000000" transform="matrix(0.05 0 0 0.05 -57 -198)" d="M 2212.67,4993 L 2296.93,4993 L 2296.93,5007 L 2212.67,5007 Z " />
<path stroke="#000000" stroke-width="18" fill="none" transform="matrix(0.05 0 0 0.05 -57 -198)" d="M 1612,4965.2 C 1612,4965.2 1716.2,4806.4 1681.4,4712.2 " />
<path stroke="none" fill="#000000" transform="matrix(0.05 0 0 0.05 -57 -198)" d="M 1730.29,4717.68 L 1681.4,4712.2 L 1647.68,4748.02 L 1640.44,4600.69 Z " />
<path stroke="#000000" stroke-width="18" fill="none" transform="matrix(0.05 0 0 0.05 -57 -198)" d="M 1607,4479 C 1607,4479 1155.8,4370 1458.2,4305.4 " />
<path stroke="none" fill="#000000" transform="matrix(0.05 0 0 0.05 -57 -198)" d="M 1445.84,4353.01 L 1458.2,4305.4 L 1427.52,4266.94 L 1574.4,4280.67 Z " />
<path stroke="none" fill="#000000" transform="matrix(0.05 0 0 0.05 -57 -198)" d="M 3058,4623.4 L 2384.4,4623.4 L 2384.4,4605.4 L 3058,4605.4 Z " />
<path stroke="none" fill="#000000" transform="matrix(0.05 0 0 0.05 -57 -198)" d="M 3211,4614.4 C 3211,4614.4 3035,4659.4 3035,4659.4 C 3035,4659.4 3057,4634.09 3057,4614.4 C 3057,4594.27 3035,4568.4 3035,4568.4 C 3035,4568.4 3211,4614.4 3211,4614.4 C 3211,4614.4 3211,4614.4 3211,4614.4 " />
<path stroke="#000000" stroke-width="1" fill="none" transform="matrix(0.05 0 0 0.05 -57 -198)" d="M 3211,4614.4 C 3211,4614.4 3035,4659.4 3035,4659.4 C 3035,4659.4 3057,4634.09 3057,4614.4 C 3057,4594.27 3035,4568.4 3035,4568.4 C 3035,4568.4 3211,4614.4 3211,4614.4 C 3211,4614.4 3211,4614.4 3211,4614.4 " />
<text x="0" y="0" stroke="none" fill="#000000" transform="matrix(0.05 0 0 0.05 157.891 40.1815)" font-style="normal" font-weight="normal" font-size="200px" font-family="Arial" >
OEt</text>
<path stroke="none" fill="#000000" transform="matrix(0.05 0 0 0.05 -57 -198)" d="M 4293.36,4626.64 L 4283.6,4641.29 L 4103.87,4521.06 L 4104.2,4511.2 L 4115.83,4509.2 L 4293.36,4626.64 Z " />
<text x="0" y="0" stroke="none" fill="#000000" transform="matrix(0.05 0 0 0.05 124.629 38.3415)" font-style="normal" font-weight="normal" font-size="200px" font-family="Arial" >
Me</text>
<path stroke="none" fill="#000000" transform="matrix(0.05 0 0 0.05 -57 -198)" d="M 4093.2,4508.15 L 4104.2,4511.2 L 4103.87,4521.06 L 3922.83,4626.08 L 3914.03,4610.84 L 4093.2,4508.15 Z " />
<text x="0" y="0" stroke="none" fill="#000000" transform="matrix(0.05 0 0 0.05 137.121 18.6715)" font-style="normal" font-weight="normal" font-size="200px" font-family="Arial" >
O</text>
<path stroke="none" fill="#000000" transform="matrix(0.05 0 0 0.05 -57 -198)" d="M 4105.1,4497.4 L 4104.2,4511.2 L 4093.2,4508.15 L 4006.63,4359.81 L 4021.87,4351.01 L 4105.1,4497.4 Z " />
<text x="0" y="0" stroke="none" fill="#000000" transform="matrix(0.05 0 0 0.05 154.265 18.9815)" font-style="normal" font-weight="normal" font-size="200px" font-family="Arial" >
Ph</text>
<path stroke="none" fill="#000000" transform="matrix(0.05 0 0 0.05 -57 -198)" d="M 4115.83,4509.2 L 4104.2,4511.2 L 4105.1,4497.4 L 4211.78,4357.49 L 4225.71,4368.25 L 4115.83,4509.2 Z " />
<text x="0" y="0" stroke="none" fill="#000000" transform="matrix(0.05 0 0 0.05 98.455 17.5215)" font-style="normal" font-weight="normal" font-size="200px" font-family="Arial" >
BrMg</text>
<path stroke="#000000" stroke-width="14" fill="none" transform="matrix(0.05 0 0 0.05 -57 -198)" d="M 3794.89,4090.53 A 74.0399,74.0399 0 1 0 3942.97,4090.53A 74.0399,74.0399 0 1 0 3794.89,4090.53Z " />
<path stroke="none" fill="#000000" transform="matrix(0.05 0 0 0.05 -57 -198)" d="M 3826.47,4083.2 L 3910.73,4083.2 L 3910.73,4097.2 L 3826.47,4097.2 Z " />
<path stroke="#000000" stroke-width="14" fill="none" transform="matrix(0.05 0 0 0.05 -57 -198)" d="M 3578.69,4100.33 A 74.0399,74.0399 0 1 0 3726.77,4100.33A 74.0399,74.0399 0 1 0 3578.69,4100.33Z " />
<path stroke="none" fill="#000000" transform="matrix(0.05 0 0 0.05 -57 -198)" d="M 3610.27,4093 L 3694.53,4093 L 3694.53,4107 L 3610.27,4107 Z " />
<path stroke="none" fill="#000000" transform="matrix(0.05 0 0 0.05 -57 -198)" d="M 3659.4,4057.87 L 3659.4,4142.13 L 3645.4,4142.13 L 3645.4,4057.87 Z " />
<path stroke="none" fill="#000000" transform="matrix(0.05 0 0 0.05 -57 -198)" d="M 6323.4,4623.4 L 4775.6,4623.4 L 4775.6,4605.4 L 6323.4,4605.4 Z " />
<path stroke="none" fill="#000000" transform="matrix(0.05 0 0 0.05 -57 -198)" d="M 6476.4,4614.4 C 6476.4,4614.4 6300.4,4659.4 6300.4,4659.4 C 6300.4,4659.4 6322.4,4634.09 6322.4,4614.4 C 6322.4,4594.27 6300.4,4568.4 6300.4,4568.4 C 6300.4,4568.4 6476.4,4614.4 6476.4,4614.4 C 6476.4,4614.4 6476.4,4614.4 6476.4,4614.4 " />
<path stroke="#000000" stroke-width="1" fill="none" transform="matrix(0.05 0 0 0.05 -57 -198)" d="M 6476.4,4614.4 C 6476.4,4614.4 6300.4,4659.4 6300.4,4659.4 C 6300.4,4659.4 6322.4,4634.09 6322.4,4614.4 C 6322.4,4594.27 6300.4,4568.4 6300.4,4568.4 C 6300.4,4568.4 6476.4,4614.4 6476.4,4614.4 C 6476.4,4614.4 6476.4,4614.4 6476.4,4614.4 " />
<text x="0" y="0" stroke="none" fill="#000000" transform="matrix(0.05 0 0 0.05 197.105 27.9315)" font-style="normal" font-weight="normal" font-size="200px" font-family="Arial" >
- </text>
<text x="0" y="0" stroke="none" fill="#000000" transform="matrix(0.05 0 0 0.05 203.213 27.9315)" font-style="normal" font-weight="normal" font-size="200px" font-family="Arial" >
EtOMgBr</text>
<path stroke="#000000" stroke-width="18" fill="none" transform="matrix(0.05 0 0 0.05 -57 -198)" d="M 3835,4229 C 3835,4229 3555.4,4530.8 3949.2,4457.2 " />
<path stroke="none" fill="#000000" transform="matrix(0.05 0 0 0.05 -57 -198)" d="M 3935.68,4504.5 L 3949.2,4457.2 L 3919.47,4418.01 L 4065.97,4435.32 Z " />
<path stroke="#000000" stroke-width="18" fill="none" transform="matrix(0.05 0 0 0.05 -57 -198)" d="M 4227.4,4554.8 C 4227.4,4554.8 4446,4245.8 4407,4488.4 " />
<path stroke="none" fill="#000000" transform="matrix(0.05 0 0 0.05 -57 -198)" d="M 4367.05,4459.69 L 4407,4488.4 L 4453.94,4473.67 L 4388.13,4605.69 Z " />
<text x="0" y="0" stroke="none" fill="#000000" transform="matrix(0.05 0 0 0.05 306.655 44.4215)" font-style="normal" font-weight="normal" font-size="200px" font-family="Arial" >
Ph</text>
<path stroke="none" fill="#000000" transform="matrix(0.05 0 0 0.05 -57 -198)" d="M 7246.61,4712.83 L 7237.81,4728.07 L 7090.5,4642.45 L 7090.48,4622.07 L 7246.61,4712.83 Z " />
<text x="0" y="0" stroke="none" fill="#000000" transform="matrix(0.05 0 0 0.05 273.939 44.4215)" font-style="normal" font-weight="normal" font-size="200px" font-family="Arial" >
Me</text>
<path stroke="none" fill="#000000" transform="matrix(0.05 0 0 0.05 -57 -198)" d="M 7090.48,4622.07 L 7090.5,4642.45 L 6909.46,4747.43 L 6900.66,4732.19 L 7090.48,4622.07 Z " />
<text x="0" y="0" stroke="none" fill="#000000" transform="matrix(0.05 0 0 0.05 293.631 22.8215)" font-style="normal" font-weight="normal" font-size="200px" font-family="Arial" >
O</text>
<path stroke="none" fill="#000000" transform="matrix(0.05 0 0 0.05 -57 -198)" d="M 7073.28,4647.77 L 7055.68,4647.77 L 7055.68,4452.95 L 7073.28,4452.95 L 7073.28,4647.77 Z " />
<path stroke="none" fill="#000000" transform="matrix(0.05 0 0 0.05 -57 -198)" d="M 7125.12,4647.77 L 7107.52,4647.77 L 7107.52,4452.95 L 7125.12,4452.95 L 7125.12,4647.77 Z " />
<text x="0" y="0" stroke="none" fill="#000000" transform="matrix(0.05 0 0 0.05 283.055 68.7415)" font-style="normal" font-weight="normal" font-size="200px" font-family="Arial" >
Ph</text>
<path stroke="#000000" stroke-width="14" fill="none" transform="matrix(0.05 0 0 0.05 -57 -198)" d="M 6992.49,5150.33 A 74.0399,74.0399 0 1 0 7140.57,5150.33A 74.0399,74.0399 0 1 0 6992.49,5150.33Z " />
<path stroke="none" fill="#000000" transform="matrix(0.05 0 0 0.05 -57 -198)" d="M 7024.07,5143 L 7108.33,5143 L 7108.33,5157 L 7024.07,5157 Z " />
<text x="0" y="0" stroke="none" fill="#000000" transform="matrix(0.05 0 0 0.05 303.885 68.4915)" font-style="normal" font-weight="normal" font-size="200px" font-family="Arial" >
MgBr</text>
<path stroke="#000000" stroke-width="14" fill="none" transform="matrix(0.05 0 0 0.05 -57 -198)" d="M 7224.49,5108.73 A 74.0399,74.0399 0 1 0 7372.57,5108.73A 74.0399,74.0399 0 1 0 7224.49,5108.73Z " />
<path stroke="none" fill="#000000" transform="matrix(0.05 0 0 0.05 -57 -198)" d="M 7256.07,5101.4 L 7340.33,5101.4 L 7340.33,5115.4 L 7256.07,5115.4 Z " />
<path stroke="none" fill="#000000" transform="matrix(0.05 0 0 0.05 -57 -198)" d="M 7305.2,5066.27 L 7305.2,5150.53 L 7291.2,5150.53 L 7291.2,5066.27 Z " />
<path stroke="none" fill="#000000" transform="matrix(0.05 0 0 0.05 -57 -198)" d="M 7063.66,5270.85 L 7063.37,5253.26 L 7199.42,5251.05 L 7199.71,5268.64 L 7063.66,5270.85 Z " />
<path stroke="#000000" stroke-width="14" fill="none" transform="matrix(0.05 0 0 0.05 -57 -198)" d="M 7632.89,5092.33 A 74.0399,74.0399 0 1 0 7780.97,5092.33A 74.0399,74.0399 0 1 0 7632.89,5092.33Z " />
<path stroke="none" fill="#000000" transform="matrix(0.05 0 0 0.05 -57 -198)" d="M 7664.47,5085 L 7748.73,5085 L 7748.73,5099 L 7664.47,5099 Z " />
<path stroke="#000000" stroke-width="18" fill="none" transform="matrix(0.05 0 0 0.05 -57 -198)" d="M 7064,5057 C 7064,5057 7168.2,4898.4 7133.4,4804 " />
<path stroke="none" fill="#000000" transform="matrix(0.05 0 0 0.05 -57 -198)" d="M 7182.29,4809.48 L 7133.4,4804 L 7099.68,4839.82 L 7092.44,4692.49 Z " />
<path stroke="#000000" stroke-width="18" fill="none" transform="matrix(0.05 0 0 0.05 -57 -198)" d="M 7023.8,4545 C 7023.8,4545 6431.4,4529.6 6896.4,4401 " />
<path stroke="none" fill="#000000" transform="matrix(0.05 0 0 0.05 -57 -198)" d="M 6886.94,4449.28 L 6896.4,4401 L 6863.45,4364.47 L 7010.89,4369.29 Z " />
<path stroke="none" fill="#000000" transform="matrix(0.05 0 0 0.05 -57 -198)" d="M 8670.6,4623.4 L 7878.6,4623.4 L 7878.6,4605.4 L 8670.6,4605.4 Z " />
<path stroke="none" fill="#000000" transform="matrix(0.05 0 0 0.05 -57 -198)" d="M 8823.6,4614.4 C 8823.6,4614.4 8647.6,4659.4 8647.6,4659.4 C 8647.6,4659.4 8669.6,4634.09 8669.6,4614.4 C 8669.6,4594.27 8647.6,4568.4 8647.6,4568.4 C 8647.6,4568.4 8823.6,4614.4 8823.6,4614.4 C 8823.6,4614.4 8823.6,4614.4 8823.6,4614.4 " />
<path stroke="#000000" stroke-width="1" fill="none" transform="matrix(0.05 0 0 0.05 -57 -198)" d="M 8823.6,4614.4 C 8823.6,4614.4 8647.6,4659.4 8647.6,4659.4 C 8647.6,4659.4 8669.6,4634.09 8669.6,4614.4 C 8669.6,4594.27 8647.6,4568.4 8647.6,4568.4 C 8647.6,4568.4 8823.6,4614.4 8823.6,4614.4 C 8823.6,4614.4 8823.6,4614.4 8823.6,4614.4 " />
<text x="0" y="0" stroke="none" fill="#000000" transform="matrix(0.05 0 0 0.05 39.5008 133.092)" font-style="normal" font-weight="normal" font-size="200px" font-family="Arial" >
O</text>
<path stroke="none" fill="#000000" transform="matrix(0.05 0 0 0.05 -57 -198)" d="M 1926.02,6485.15 L 1916.27,6499.8 L 1736.07,6379.26 L 1736.4,6369.4 L 1748.04,6367.39 L 1926.02,6485.15 Z " />
<text x="0" y="0" stroke="none" fill="#000000" transform="matrix(0.05 0 0 0.05 6.23915 131.252)" font-style="normal" font-weight="normal" font-size="200px" font-family="Arial" >
Me</text>
<path stroke="none" fill="#000000" transform="matrix(0.05 0 0 0.05 -57 -198)" d="M 1725.42,6366.33 L 1736.4,6369.4 L 1736.07,6379.26 L 1555.03,6484.28 L 1546.23,6469.04 L 1725.42,6366.33 Z " />
<text x="0" y="0" stroke="none" fill="#000000" transform="matrix(0.05 0 0 0.05 13.1693 111.582)" font-style="normal" font-weight="normal" font-size="200px" font-family="Arial" >
Ph</text>
<path stroke="none" fill="#000000" transform="matrix(0.05 0 0 0.05 -57 -198)" d="M 1737.27,6355.63 L 1736.4,6369.4 L 1725.42,6366.33 L 1642.06,6223.61 L 1657.3,6214.81 L 1737.27,6355.63 Z " />
<text x="0" y="0" stroke="none" fill="#000000" transform="matrix(0.05 0 0 0.05 35.875 111.892)" font-style="normal" font-weight="normal" font-size="200px" font-family="Arial" >
Ph</text>
<path stroke="none" fill="#000000" transform="matrix(0.05 0 0 0.05 -57 -198)" d="M 1748.04,6367.39 L 1736.4,6369.4 L 1737.27,6355.63 L 1843.98,6215.69 L 1857.91,6226.45 L 1748.04,6367.39 Z " />
<text x="0" y="0" stroke="none" fill="#000000" transform="matrix(0.05 0 0 0.05 56.615 135.412)" font-style="normal" font-weight="normal" font-size="200px" font-family="Arial" >
MgBr</text>
<path stroke="#000000" stroke-width="14" fill="none" transform="matrix(0.05 0 0 0.05 -57 -198)" d="M 2284.89,6419.93 A 74.0399,74.0399 0 1 0 2432.97,6419.93A 74.0399,74.0399 0 1 0 2284.89,6419.93Z " />
<path stroke="none" fill="#000000" transform="matrix(0.05 0 0 0.05 -57 -198)" d="M 2316.47,6412.6 L 2400.73,6412.6 L 2400.73,6426.6 L 2316.47,6426.6 Z " />
<path stroke="none" fill="#000000" transform="matrix(0.05 0 0 0.05 -57 -198)" d="M 2365.6,6377.47 L 2365.6,6461.73 L 2351.6,6461.73 L 2351.6,6377.47 Z " />
<path stroke="#000000" stroke-width="14" fill="none" transform="matrix(0.05 0 0 0.05 -57 -198)" d="M 2065.69,6406.93 A 74.0399,74.0399 0 1 0 2213.77,6406.93A 74.0399,74.0399 0 1 0 2065.69,6406.93Z " />
<path stroke="none" fill="#000000" transform="matrix(0.05 0 0 0.05 -57 -198)" d="M 2097.27,6399.6 L 2181.53,6399.6 L 2181.53,6413.6 L 2097.27,6413.6 Z " />
<path stroke="none" fill="#000000" transform="matrix(0.05 0 0 0.05 -57 -198)" d="M 3963,6439.2 L 2866.8,6439.2 L 2866.8,6421.2 L 3963,6421.2 Z " />
<path stroke="none" fill="#000000" transform="matrix(0.05 0 0 0.05 -57 -198)" d="M 4116,6430.2 C 4116,6430.2 3940,6475.2 3940,6475.2 C 3940,6475.2 3962,6449.89 3962,6430.2 C 3962,6410.08 3940,6384.2 3940,6384.2 C 3940,6384.2 4116,6430.2 4116,6430.2 C 4116,6430.2 4116,6430.2 4116,6430.2 " />
<path stroke="#000000" stroke-width="1" fill="none" transform="matrix(0.05 0 0 0.05 -57 -198)" d="M 4116,6430.2 C 4116,6430.2 3940,6475.2 3940,6475.2 C 3940,6475.2 3962,6449.89 3962,6430.2 C 3962,6410.08 3940,6384.2 3940,6384.2 C 3940,6384.2 4116,6430.2 4116,6430.2 C 4116,6430.2 4116,6430.2 4116,6430.2 " />
<text x="0" y="0" stroke="none" fill="#000000" transform="matrix(0.05 0 0 0.05 91.65 116.3)" font-style="normal" font-weight="normal" font-size="200px" font-family="Arial" >
aq</text>
<text x="0" y="0" stroke="none" fill="#000000" transform="matrix(0.05 0 0 0.05 102.773 116.3)" font-style="normal" font-weight="normal" font-size="200px" font-family="Arial" >
 </text>
<text x="0" y="0" stroke="none" fill="#000000" transform="matrix(0.05 0 0 0.05 105.551 116.3)" font-style="normal" font-weight="normal" font-size="200px" font-family="Arial" >
NH</text>
<text x="0" y="0" stroke="none" fill="#000000" transform="matrix(0.05 0 0 0.05 119.995 118.419)" font-style="normal" font-weight="normal" font-size="150px" font-family="Arial" >
4</text>
<text x="0" y="0" stroke="none" fill="#000000" transform="matrix(0.05 0 0 0.05 124.166 116.3)" font-style="normal" font-weight="normal" font-size="200px" font-family="Arial" >
Cl</text>
<text x="0" y="0" stroke="none" fill="#000000" transform="matrix(0.05 0 0 0.05 188.801 134.452)" font-style="normal" font-weight="normal" font-size="200px" font-family="Arial" >
O</text>
<path stroke="none" fill="#000000" transform="matrix(0.05 0 0 0.05 -57 -198)" d="M 4912.02,6512.35 L 4902.27,6527 L 4722.07,6406.46 L 4722.4,6396.6 L 4734.04,6394.59 L 4912.02,6512.35 Z " />
<text x="0" y="0" stroke="none" fill="#000000" transform="matrix(0.05 0 0 0.05 155.539 132.612)" font-style="normal" font-weight="normal" font-size="200px" font-family="Arial" >
Me</text>
<path stroke="none" fill="#000000" transform="matrix(0.05 0 0 0.05 -57 -198)" d="M 4711.42,6393.53 L 4722.4,6396.6 L 4722.07,6406.46 L 4541.46,6511.23 L 4532.66,6495.99 L 4711.42,6393.53 Z " />
<text x="0" y="0" stroke="none" fill="#000000" transform="matrix(0.05 0 0 0.05 162.469 112.942)" font-style="normal" font-weight="normal" font-size="200px" font-family="Arial" >
Ph</text>
<path stroke="none" fill="#000000" transform="matrix(0.05 0 0 0.05 -57 -198)" d="M 4723.27,6382.83 L 4722.4,6396.6 L 4711.42,6393.53 L 4628.06,6250.81 L 4643.3,6242.01 L 4723.27,6382.83 Z " />
<text x="0" y="0" stroke="none" fill="#000000" transform="matrix(0.05 0 0 0.05 185.175 113.252)" font-style="normal" font-weight="normal" font-size="200px" font-family="Arial" >
Ph</text>
<path stroke="none" fill="#000000" transform="matrix(0.05 0 0 0.05 -57 -198)" d="M 4734.04,6394.59 L 4722.4,6396.6 L 4723.27,6382.83 L 4829.98,6242.89 L 4843.91,6253.65 L 4734.04,6394.59 Z " />
<path stroke="#000000" stroke-width="14" fill="none" transform="matrix(0.05 0 0 0.05 -57 -198)" d="M 5051.89,6434.13 A 74.0399,74.0399 0 1 0 5199.97,6434.13A 74.0399,74.0399 0 1 0 5051.89,6434.13Z " />
<path stroke="none" fill="#000000" transform="matrix(0.05 0 0 0.05 -57 -198)" d="M 5083.47,6426.8 L 5167.73,6426.8 L 5167.73,6440.8 L 5083.47,6440.8 Z " />
<text x="0" y="0" stroke="none" fill="#000000" transform="matrix(0.05 0 0 0.05 225.919 107.422)" font-style="normal" font-weight="normal" font-size="200px" font-family="Arial" >
H</text>
<path stroke="#000000" stroke-width="14" fill="none" transform="matrix(0.05 0 0 0.05 -57 -198)" d="M 5762.49,5875.13 A 74.0399,74.0399 0 1 0 5910.57,5875.13A 74.0399,74.0399 0 1 0 5762.49,5875.13Z " />
<path stroke="none" fill="#000000" transform="matrix(0.05 0 0 0.05 -57 -198)" d="M 5794.07,5867.8 L 5878.33,5867.8 L 5878.33,5881.8 L 5794.07,5881.8 Z " />
<path stroke="none" fill="#000000" transform="matrix(0.05 0 0 0.05 -57 -198)" d="M 5843.2,5832.67 L 5843.2,5916.93 L 5829.2,5916.93 L 5829.2,5832.67 Z " />
<path stroke="#000000" stroke-width="18" fill="none" transform="matrix(0.05 0 0 0.05 -57 -198)" d="M 5208.4,6490.2 C 5208.4,6490.2 6272,6817.4 5876.6,6272 " />
<path stroke="none" fill="#000000" transform="matrix(0.05 0 0 0.05 -57 -198)" d="M 5925.14,6263.99 L 5876.6,6272 L 5853.89,6315.64 L 5806.87,6175.82 Z " />
<path stroke="none" fill="#000000" transform="matrix(0.05 0 0 0.05 -57 -198)" d="M 6979.6,6439.2 L 6275.8,6439.2 L 6275.8,6421.2 L 6979.6,6421.2 Z " />
<path stroke="none" fill="#000000" transform="matrix(0.05 0 0 0.05 -57 -198)" d="M 7132.6,6430.2 C 7132.6,6430.2 6956.6,6475.2 6956.6,6475.2 C 6956.6,6475.2 6978.6,6449.89 6978.6,6430.2 C 6978.6,6410.07 6956.6,6384.2 6956.6,6384.2 C 6956.6,6384.2 7132.6,6430.2 7132.6,6430.2 C 7132.6,6430.2 7132.6,6430.2 7132.6,6430.2 " />
<path stroke="#000000" stroke-width="1" fill="none" transform="matrix(0.05 0 0 0.05 -57 -198)" d="M 7132.6,6430.2 C 7132.6,6430.2 6956.6,6475.2 6956.6,6475.2 C 6956.6,6475.2 6978.6,6449.89 6978.6,6430.2 C 6978.6,6410.07 6956.6,6384.2 6956.6,6384.2 C 6956.6,6384.2 7132.6,6430.2 7132.6,6430.2 C 7132.6,6430.2 7132.6,6430.2 7132.6,6430.2 " />
<text x="0" y="0" stroke="none" fill="#000000" transform="matrix(0.05 0 0 0.05 346.791 134.332)" font-style="normal" font-weight="normal" font-size="200px" font-family="Arial" >
OH</text>
<path stroke="none" fill="#000000" transform="matrix(0.05 0 0 0.05 -57 -198)" d="M 8067.71,6515.25 L 8058.91,6530.49 L 7904.28,6440.66 L 7904.2,6431 L 7915.12,6428.02 L 8067.71,6515.25 Z " />
<text x="0" y="0" stroke="none" fill="#000000" transform="matrix(0.05 0 0 0.05 314.629 134.332)" font-style="normal" font-weight="normal" font-size="200px" font-family="Arial" >
Me</text>
<path stroke="none" fill="#000000" transform="matrix(0.05 0 0 0.05 -57 -198)" d="M 7893.22,6427.93 L 7904.2,6431 L 7904.28,6440.66 L 7722.83,6545.88 L 7714.03,6530.64 L 7893.22,6427.93 Z " />
<text x="0" y="0" stroke="none" fill="#000000" transform="matrix(0.05 0 0 0.05 342.075 114.662)" font-style="normal" font-weight="normal" font-size="200px" font-family="Arial" >
Ph</text>
<path stroke="none" fill="#000000" transform="matrix(0.05 0 0 0.05 -57 -198)" d="M 7915.12,6428.02 L 7904.2,6431 L 7904.22,6416.05 L 7981.27,6279.92 L 7996.51,6288.73 L 7915.12,6428.02 Z " />
<text x="0" y="0" stroke="none" fill="#000000" transform="matrix(0.05 0 0 0.05 321.559 114.662)" font-style="normal" font-weight="normal" font-size="200px" font-family="Arial" >
Ph</text>
<path stroke="none" fill="#000000" transform="matrix(0.05 0 0 0.05 -57 -198)" d="M 7904.22,6416.05 L 7904.2,6431 L 7893.22,6427.93 L 7809.43,6284.46 L 7824.67,6275.66 L 7904.22,6416.05 Z " />
<text x="0" y="0" stroke="none" fill="#000000" transform="matrix(0.05 0 0 0.05 76.9792 45.3791)" font-style="normal" font-weight="bold" font-size="200px" font-family="Arial" >
A</text>
<text x="0" y="0" stroke="none" fill="#000000" transform="matrix(0.05 0 0 0.05 216.339 45.3791)" font-style="normal" font-weight="bold" font-size="200px" font-family="Arial" >
B</text>
<text x="0" y="0" stroke="none" fill="#000000" transform="matrix(0.05 0 0 0.05 354.349 45.3791)" font-style="normal" font-weight="bold" font-size="200px" font-family="Arial" >
C</text>
</svg>
