<?xml version="1.0" standalone="no" ?>
<!DOCTYPE svg PUBLIC "-//W3C//DTD SVG 1.1//EN" "http://www.w3.org/Graphics/SVG/1.1/DTD/svg11.dtd">
<svg width="241px" height="58px" viewBox="0 0 241 58" style="background-color: #ffffff00" xmlns="http://www.w3.org/2000/svg" xmlns:xlink="http://www.w3.org/1999/xlink" version="1.1" >
<path stroke="none" fill="#000000" transform="matrix(0.05 0 0 0.05 -106 -50)" d="M 5190.2,1810.4 L 3509.8,1810.4 L 3509.8,1792.4 L 5190.2,1792.4 Z " />
<path stroke="none" fill="#000000" transform="matrix(0.05 0 0 0.05 -106 -50)" d="M 5343.2,1801.4 C 5343.2,1801.4 5167.2,1846.4 5167.2,1846.4 C 5167.2,1846.4 5189.2,1821.09 5189.2,1801.4 C 5189.2,1781.28 5167.2,1755.4 5167.2,1755.4 C 5167.2,1755.4 5343.2,1801.4 5343.2,1801.4 C 5343.2,1801.4 5343.2,1801.4 5343.2,1801.4 " />
<path stroke="#000000" stroke-width="1" fill="none" transform="matrix(0.05 0 0 0.05 -106 -50)" d="M 5343.2,1801.4 C 5343.2,1801.4 5167.2,1846.4 5167.2,1846.4 C 5167.2,1846.4 5189.2,1821.09 5189.2,1801.4 C 5189.2,1781.28 5167.2,1755.4 5167.2,1755.4 C 5167.2,1755.4 5343.2,1801.4 5343.2,1801.4 C 5343.2,1801.4 5343.2,1801.4 5343.2,1801.4 " />
<text x="0" y="0" stroke="none" fill="#000000" transform="matrix(0.05 0 0 0.05 83.8169 10.28)" font-style="normal" font-weight="normal" font-size="200px" font-family="Arial" >
PhMgBr </text>
<text x="0" y="0" stroke="none" fill="#000000" transform="matrix(0.05 0 0 0.05 122.718 10.28)" font-style="normal" font-weight="normal" font-size="200px" font-family="Arial" >
(2eq)</text>
<text x="0" y="0" stroke="none" fill="#000000" transform="matrix(0.05 0 0 0.05 104.241 21.779)" font-style="normal" font-weight="normal" font-size="200px" font-family="Arial" >
Et</text>
<text x="0" y="0" stroke="none" fill="#000000" transform="matrix(0.05 0 0 0.05 113.689 23.8982)" font-style="normal" font-weight="normal" font-size="150px" font-family="Arial" >
2</text>
<text x="0" y="0" stroke="none" fill="#000000" transform="matrix(0.05 0 0 0.05 117.861 21.779)" font-style="normal" font-weight="normal" font-size="200px" font-family="Arial" >
O</text>
<text x="0" y="0" stroke="none" fill="#000000" transform="matrix(0.05 0 0 0.05 93.0259 33.278)" font-style="normal" font-weight="normal" font-size="200px" font-family="Arial" >
0</text>
<text x="0" y="0" stroke="none" fill="#000000" transform="matrix(0.05 0 0 0.05 98.5874 33.278)" font-style="normal" font-weight="normal" font-size="200px" font-family="Helvetica" >
℃</text>
<text x="0" y="0" stroke="none" fill="#000000" transform="matrix(0.05 0 0 0.05 109.808 33.278)" font-style="normal" font-weight="normal" font-size="200px" font-family="Arial" >
 </text>
<text x="0" y="0" stroke="none" fill="#000000" transform="matrix(0.05 0 0 0.05 112.586 33.278)" font-style="normal" font-weight="normal" font-size="200px" font-family="Arial" >
to </text>
<text x="0" y="0" stroke="none" fill="#000000" transform="matrix(0.05 0 0 0.05 123.705 33.278)" font-style="normal" font-weight="normal" font-size="200px" font-family="Arial" >
RT</text>
<text x="0" y="0" stroke="none" fill="#000000" transform="matrix(0.05 0 0 0.05 93.37 53.33)" font-style="normal" font-weight="normal" font-size="200px" font-family="Arial" >
aq </text>
<text x="0" y="0" stroke="none" fill="#000000" transform="matrix(0.05 0 0 0.05 107.271 53.33)" font-style="normal" font-weight="normal" font-size="200px" font-family="Arial" >
H</text>
<text x="0" y="0" stroke="none" fill="#000000" transform="matrix(0.05 0 0 0.05 114.493 55.4491)" font-style="normal" font-weight="normal" font-size="150px" font-family="Arial" >
2</text>
<text x="0" y="0" stroke="none" fill="#000000" transform="matrix(0.05 0 0 0.05 118.664 53.33)" font-style="normal" font-weight="normal" font-size="200px" font-family="Arial" >
SO</text>
<text x="0" y="0" stroke="none" fill="#000000" transform="matrix(0.05 0 0 0.05 133.112 55.4491)" font-style="normal" font-weight="normal" font-size="150px" font-family="Arial" >
4</text>
<text x="0" y="0" stroke="none" fill="#000000" transform="matrix(0.05 0 0 0.05 1.64923 41.6015)" font-style="normal" font-weight="normal" font-size="200px" font-family="Arial" >
MeO</text>
<path stroke="none" fill="#000000" transform="matrix(0.05 0 0 0.05 -106 -50)" d="M 2757.99,1894.77 L 2757.99,1915.15 L 2594.58,1820.21 L 2603.38,1804.97 L 2757.99,1894.77 Z " />
<text x="0" y="0" stroke="none" fill="#000000" transform="matrix(0.05 0 0 0.05 40.7592 41.6015)" font-style="normal" font-weight="normal" font-size="200px" font-family="Arial" >
CN</text>
<path stroke="none" fill="#000000" transform="matrix(0.05 0 0 0.05 -106 -50)" d="M 2757.99,1915.15 L 2757.99,1894.77 L 2916.09,1802.96 L 2924.89,1818.2 L 2757.99,1915.15 Z " />
<text x="0" y="0" stroke="none" fill="#000000" transform="matrix(0.05 0 0 0.05 175.519 47.2815)" font-style="normal" font-weight="normal" font-size="200px" font-family="Arial" >
MeO</text>
<path stroke="none" fill="#000000" transform="matrix(0.05 0 0 0.05 -106 -50)" d="M 6235.2,2008.28 L 6235.24,2028.64 L 6071.98,1933.81 L 6080.78,1918.57 L 6235.2,2008.28 Z " />
<path stroke="none" fill="#000000" transform="matrix(0.05 0 0 0.05 -106 -50)" d="M 6235.24,2028.64 L 6235.2,2008.28 L 6484.98,1863.35 L 6485.02,1883.71 L 6235.24,2028.64 Z " />
<text x="0" y="0" stroke="none" fill="#000000" transform="matrix(0.05 0 0 0.05 227.375 54.4815)" font-style="normal" font-weight="normal" font-size="200px" font-family="Arial" >
Ph</text>
<path stroke="none" fill="#000000" transform="matrix(0.05 0 0 0.05 -106 -50)" d="M 6485.02,1883.71 L 6484.98,1863.35 L 6641.44,1954.28 L 6632.64,1969.52 L 6485.02,1883.71 Z " />
<text x="0" y="0" stroke="none" fill="#000000" transform="matrix(0.05 0 0 0.05 214.351 32.8815)" font-style="normal" font-weight="normal" font-size="200px" font-family="Arial" >
O</text>
<path stroke="none" fill="#000000" transform="matrix(0.05 0 0 0.05 -106 -50)" d="M 6467.68,1888.97 L 6450.08,1888.97 L 6450.08,1693.15 L 6467.68,1693.15 L 6467.68,1888.97 Z " />
<path stroke="none" fill="#000000" transform="matrix(0.05 0 0 0.05 -106 -50)" d="M 6519.52,1888.97 L 6501.92,1888.97 L 6501.92,1693.15 L 6519.52,1693.15 L 6519.52,1888.97 Z " />
</svg>
