<?xml version="1.0" standalone="no" ?>
<!DOCTYPE svg PUBLIC "-//W3C//DTD SVG 1.1//EN" "http://www.w3.org/Graphics/SVG/1.1/DTD/svg11.dtd">
<svg width="427px" height="162px" viewBox="0 0 427 162" style="background-color: #ffffff00" xmlns="http://www.w3.org/2000/svg" xmlns:xlink="http://www.w3.org/1999/xlink" version="1.1" >
<path stroke="none" fill="#000000" transform="matrix(0.05 0 0 0.05 -45 -181)" d="M 1492.88,4422.27 L 1501.38,4417.63 L 1509.87,4422.53 L 1509.87,4700.73 L 1492.28,4710.89 L 1492.88,4422.27 Z " />
<path stroke="none" fill="#000000" transform="matrix(0.05 0 0 0.05 -45 -181)" d="M 1544.44,4447.56 L 1562.01,4447.56 L 1562.01,4675.7 L 1544.44,4675.7 L 1544.44,4447.56 Z " />
<path stroke="none" fill="#000000" transform="matrix(0.05 0 0 0.05 -45 -181)" d="M 1492.28,4710.89 L 1509.87,4700.73 L 1750.8,4839.83 L 1750.8,4860.15 L 1492.28,4710.89 Z " />
<path stroke="none" fill="#000000" transform="matrix(0.05 0 0 0.05 -45 -181)" d="M 1750.8,4860.15 L 1750.8,4839.83 L 1991.73,4700.73 L 2009.32,4710.89 L 1750.8,4860.15 Z " />
<path stroke="none" fill="#000000" transform="matrix(0.05 0 0 0.05 -45 -181)" d="M 1755.19,4797.38 L 1746.41,4782.16 L 1943.98,4668.09 L 1952.77,4683.31 L 1755.19,4797.38 Z " />
<path stroke="none" fill="#000000" transform="matrix(0.05 0 0 0.05 -45 -181)" d="M 2009.32,4710.89 L 1991.73,4700.73 L 1991.73,4422.53 L 2000.21,4417.63 L 2008.7,4422.53 L 2009.32,4710.89 Z " />
<path stroke="none" fill="#000000" transform="matrix(0.05 0 0 0.05 -45 -181)" d="M 2000.21,4407.83 L 2000.21,4417.63 L 1991.73,4422.53 L 1750.8,4283.43 L 1750.8,4263.11 L 2000.21,4407.83 Z " />
<path stroke="none" fill="#000000" transform="matrix(0.05 0 0 0.05 -45 -181)" d="M 1952.77,4439.95 L 1943.98,4455.17 L 1746.41,4341.1 L 1755.19,4325.88 L 1952.77,4439.95 Z " />
<path stroke="none" fill="#000000" transform="matrix(0.05 0 0 0.05 -45 -181)" d="M 1750.8,4263.11 L 1750.8,4283.43 L 1509.87,4422.53 L 1501.38,4417.63 L 1501.15,4407.95 L 1750.8,4263.11 Z " />
<path stroke="none" fill="#000000" transform="matrix(0.05 0 0 0.05 -45 -181)" d="M 2008.7,4422.53 L 2000.21,4417.63 L 2000.21,4407.83 L 2249.79,4263.01 L 2249.82,4283.34 L 2008.7,4422.53 Z " />
<text x="0" y="0" stroke="none" fill="#000000" transform="matrix(0.05 0 0 0.05 76.0631 43.4631)" font-style="normal" font-weight="normal" font-size="200px" font-family="Arial" >
OMe</text>
<path stroke="none" fill="#000000" transform="matrix(0.05 0 0 0.05 -45 -181)" d="M 2249.82,4283.34 L 2249.79,4263.01 L 2413.9,4358.33 L 2405.11,4373.55 L 2249.82,4283.34 Z " />
<text x="0" y="0" stroke="none" fill="#000000" transform="matrix(0.05 0 0 0.05 63.5923 21.8631)" font-style="normal" font-weight="normal" font-size="200px" font-family="Arial" >
O</text>
<path stroke="none" fill="#000000" transform="matrix(0.05 0 0 0.05 -45 -181)" d="M 2232.5,4288.6 L 2214.92,4288.6 L 2214.92,4092.78 L 2232.5,4092.78 L 2232.5,4288.6 Z " />
<path stroke="none" fill="#000000" transform="matrix(0.05 0 0 0.05 -45 -181)" d="M 2284.34,4288.6 L 2266.76,4288.6 L 2266.76,4092.78 L 2284.34,4092.78 L 2284.34,4288.6 Z " />
<text x="0" y="0" stroke="none" fill="#000000" transform="matrix(0.05 0 0 0.05 2.03814 36.2631)" font-style="normal" font-weight="normal" font-size="200px" font-family="Arial" >
O</text>
<text x="0" y="0" stroke="none" fill="#000000" transform="matrix(0.05 0 0 0.05 9.81646 38.3823)" font-style="normal" font-weight="normal" font-size="150px" font-family="Arial" >
2</text>
<text x="0" y="0" stroke="none" fill="#000000" transform="matrix(0.05 0 0 0.05 13.9876 36.2631)" font-style="normal" font-weight="normal" font-size="200px" font-family="Arial" >
N</text>
<path stroke="none" fill="#000000" transform="matrix(0.05 0 0 0.05 -45 -181)" d="M 1501.15,4407.95 L 1501.38,4417.63 L 1492.88,4422.27 L 1348.13,4339.29 L 1356.91,4324.07 L 1501.15,4407.95 Z " />
<text x="0" y="0" stroke="none" fill="#000000" transform="matrix(0.05 0 0 0.05 80.7852 68.3986)" font-style="normal" font-weight="normal" font-size="200px" font-family="Arial" >
OH</text>
<path stroke="#000000" stroke-width="14" fill="none" transform="matrix(0.05 0 0 0.05 -45 -181)" d="M 2357.68,4808.33 A 74.0299,74.0299 0 1 0 2505.74,4808.33A 74.0299,74.0299 0 1 0 2357.68,4808.33Z " />
<path stroke="none" fill="#000000" transform="matrix(0.05 0 0 0.05 -45 -181)" d="M 2389.26,4801 L 2473.5,4801 L 2473.5,4815 L 2389.26,4815 Z " />
<path stroke="#000000" stroke-width="18" fill="none" transform="matrix(0.05 0 0 0.05 -45 -181)" d="M 2308.75,4875.67 C 2308.75,4875.67 1880.93,5207.59 2212.86,4410.97 " />
<path stroke="none" fill="#000000" transform="matrix(0.05 0 0 0.05 -45 -181)" d="M 2244.97,4448.14 L 2212.86,4410.97 L 2163.85,4414.35 L 2258.49,4301.46 Z " />
<path stroke="#000000" stroke-width="18" fill="none" transform="matrix(0.05 0 0 0.05 -45 -181)" d="M 2182.12,4181.82 C 2182.12,4181.82 1739.01,4243.67 2093.02,4040.12 " />
<path stroke="none" fill="#000000" transform="matrix(0.05 0 0 0.05 -45 -181)" d="M 2095.88,4089.16 L 2093.02,4040.12 L 2052.08,4012.98 L 2195.86,3980.99 Z " />
<path stroke="none" fill="#000000" transform="matrix(0.05 0 0 0.05 -45 -181)" d="M 4172.09,4422.27 L 4180.6,4417.63 L 4189.09,4422.53 L 4189.09,4700.73 L 4171.49,4710.89 L 4172.09,4422.27 Z " />
<path stroke="none" fill="#000000" transform="matrix(0.05 0 0 0.05 -45 -181)" d="M 4223.65,4447.56 L 4241.23,4447.56 L 4241.23,4675.7 L 4223.65,4675.7 L 4223.65,4447.56 Z " />
<path stroke="none" fill="#000000" transform="matrix(0.05 0 0 0.05 -45 -181)" d="M 4171.49,4710.89 L 4189.09,4700.73 L 4430.01,4839.83 L 4430.01,4860.15 L 4171.49,4710.89 Z " />
<path stroke="none" fill="#000000" transform="matrix(0.05 0 0 0.05 -45 -181)" d="M 4430.01,4860.15 L 4430.01,4839.83 L 4670.94,4700.73 L 4688.54,4710.89 L 4430.01,4860.15 Z " />
<path stroke="none" fill="#000000" transform="matrix(0.05 0 0 0.05 -45 -181)" d="M 4434.41,4797.38 L 4425.62,4782.16 L 4623.2,4668.09 L 4631.98,4683.31 L 4434.41,4797.38 Z " />
<path stroke="none" fill="#000000" transform="matrix(0.05 0 0 0.05 -45 -181)" d="M 4688.54,4710.89 L 4670.94,4700.73 L 4670.94,4422.53 L 4679.43,4417.63 L 4687.92,4422.53 L 4688.54,4710.89 Z " />
<path stroke="none" fill="#000000" transform="matrix(0.05 0 0 0.05 -45 -181)" d="M 4679.43,4407.83 L 4679.43,4417.63 L 4670.94,4422.53 L 4430.01,4283.43 L 4430.01,4263.11 L 4679.43,4407.83 Z " />
<path stroke="none" fill="#000000" transform="matrix(0.05 0 0 0.05 -45 -181)" d="M 4631.98,4439.95 L 4623.2,4455.17 L 4425.62,4341.1 L 4434.41,4325.88 L 4631.98,4439.95 Z " />
<path stroke="none" fill="#000000" transform="matrix(0.05 0 0 0.05 -45 -181)" d="M 4430.01,4263.11 L 4430.01,4283.43 L 4189.09,4422.53 L 4180.6,4417.63 L 4180.37,4407.95 L 4430.01,4263.11 Z " />
<path stroke="none" fill="#000000" transform="matrix(0.05 0 0 0.05 -45 -181)" d="M 4687.92,4422.53 L 4679.43,4417.63 L 4679.43,4407.83 L 4918.13,4270.21 L 4928.84,4273.63 L 4929.03,4283.34 L 4687.92,4422.53 Z " />
<text x="0" y="0" stroke="none" fill="#000000" transform="matrix(0.05 0 0 0.05 211.868 44.2008)" font-style="normal" font-weight="normal" font-size="200px" font-family="Arial" >
OMe</text>
<path stroke="none" fill="#000000" transform="matrix(0.05 0 0 0.05 -45 -181)" d="M 4929.03,4283.34 L 4928.84,4273.63 L 4940.06,4270.55 L 5128.28,4374.17 L 5119.76,4389.54 L 4929.03,4283.34 Z " />
<text x="0" y="0" stroke="none" fill="#000000" transform="matrix(0.05 0 0 0.05 135.999 36.2631)" font-style="normal" font-weight="normal" font-size="200px" font-family="Arial" >
O</text>
<text x="0" y="0" stroke="none" fill="#000000" transform="matrix(0.05 0 0 0.05 143.777 38.3823)" font-style="normal" font-weight="normal" font-size="150px" font-family="Arial" >
2</text>
<text x="0" y="0" stroke="none" fill="#000000" transform="matrix(0.05 0 0 0.05 147.948 36.2631)" font-style="normal" font-weight="normal" font-size="200px" font-family="Arial" >
N</text>
<path stroke="none" fill="#000000" transform="matrix(0.05 0 0 0.05 -45 -181)" d="M 4180.37,4407.95 L 4180.6,4417.63 L 4172.09,4422.27 L 4027.34,4339.29 L 4036.13,4324.07 L 4180.37,4407.95 Z " />
<text x="0" y="0" stroke="none" fill="#000000" transform="matrix(0.05 0 0 0.05 206.228 21.2107)" font-style="normal" font-weight="normal" font-size="200px" font-family="Arial" >
OH</text>
<path stroke="none" fill="#000000" transform="matrix(0.05 0 0 0.05 -45 -181)" d="M 4940.06,4270.55 L 4928.84,4273.63 L 4929.44,4257.14 L 5041.07,4061.31 L 5056.29,4070.09 L 4940.06,4270.55 Z " />
<text x="0" y="0" stroke="none" fill="#000000" transform="matrix(0.05 0 0 0.05 190.353 21.2107)" font-style="normal" font-weight="normal" font-size="200px" font-family="Arial" >
O</text>
<path stroke="none" fill="#000000" transform="matrix(0.05 0 0 0.05 -45 -181)" d="M 4929.44,4257.14 L 4928.84,4273.63 L 4918.13,4270.21 L 4823.19,4073.11 L 4839.04,4065.53 L 4929.44,4257.14 Z " />
<path stroke="#000000" stroke-width="14" fill="none" transform="matrix(0.05 0 0 0.05 -45 -181)" d="M 4573.31,3835.28 A 74.0299,74.0299 0 1 0 4721.37,3835.28A 74.0299,74.0299 0 1 0 4573.31,3835.28Z " />
<path stroke="none" fill="#000000" transform="matrix(0.05 0 0 0.05 -45 -181)" d="M 4604.88,3827.95 L 4689.12,3827.95 L 4689.12,3841.95 L 4604.88,3841.95 Z " />
<path stroke="#000000" stroke-width="18" fill="none" transform="matrix(0.05 0 0 0.05 -45 -181)" d="M 4973.38,4338.89 C 4973.38,4338.89 4811.92,4978.91 5103.89,4593.51 " />
<path stroke="none" fill="#000000" transform="matrix(0.05 0 0 0.05 -45 -181)" d="M 5125.64,4637.55 L 5103.89,4593.51 L 5055.6,4584.49 L 5175.52,4498.95 Z " />
<path stroke="#000000" stroke-width="18" fill="none" transform="matrix(0.05 0 0 0.05 -45 -181)" d="M 4551.09,3902.94 C 4551.09,3902.94 4370.49,4151.93 4742.24,4162.18 " />
<path stroke="none" fill="#000000" transform="matrix(0.05 0 0 0.05 -45 -181)" d="M 4719.07,4205.5 L 4742.24,4162.18 L 4721.49,4117.66 L 4860.82,4165.46 Z " />
<path stroke="none" fill="#000000" transform="matrix(0.05 0 0 0.05 -45 -181)" d="M 3616.46,4530.4 L 3009.49,4530.4 L 3009.49,4512.4 L 3616.46,4512.4 Z " />
<path stroke="none" fill="#000000" transform="matrix(0.05 0 0 0.05 -45 -181)" d="M 3769.24,4521.4 C 3769.24,4521.4 3593.49,4566.34 3593.49,4566.34 C 3593.49,4566.34 3615.46,4541.06 3615.46,4521.4 C 3615.46,4501.3 3593.49,4475.46 3593.49,4475.46 C 3593.49,4475.46 3769.24,4521.4 3769.24,4521.4 C 3769.24,4521.4 3769.24,4521.4 3769.24,4521.4 " />
<path stroke="#000000" stroke-width="1" fill="none" transform="matrix(0.05 0 0 0.05 -45 -181)" d="M 3769.24,4521.4 C 3769.24,4521.4 3593.49,4566.34 3593.49,4566.34 C 3593.49,4566.34 3615.46,4541.06 3615.46,4521.4 C 3615.46,4501.3 3593.49,4475.46 3593.49,4475.46 C 3593.49,4475.46 3769.24,4521.4 3769.24,4521.4 C 3769.24,4521.4 3769.24,4521.4 3769.24,4521.4 " />
<path stroke="none" fill="#000000" transform="matrix(0.05 0 0 0.05 -45 -181)" d="M 7081.43,4422.27 L 7089.94,4417.63 L 7098.43,4422.53 L 7098.43,4700.73 L 7080.83,4710.89 L 7081.43,4422.27 Z " />
<path stroke="none" fill="#000000" transform="matrix(0.05 0 0 0.05 -45 -181)" d="M 7132.99,4447.56 L 7150.56,4447.56 L 7150.56,4675.7 L 7132.99,4675.7 L 7132.99,4447.56 Z " />
<path stroke="none" fill="#000000" transform="matrix(0.05 0 0 0.05 -45 -181)" d="M 7080.83,4710.89 L 7098.43,4700.73 L 7339.35,4839.83 L 7339.35,4860.15 L 7080.83,4710.89 Z " />
<path stroke="none" fill="#000000" transform="matrix(0.05 0 0 0.05 -45 -181)" d="M 7339.35,4860.15 L 7339.35,4839.83 L 7580.28,4700.73 L 7597.88,4710.89 L 7339.35,4860.15 Z " />
<path stroke="none" fill="#000000" transform="matrix(0.05 0 0 0.05 -45 -181)" d="M 7343.75,4797.38 L 7334.96,4782.16 L 7532.53,4668.09 L 7541.32,4683.31 L 7343.75,4797.38 Z " />
<path stroke="none" fill="#000000" transform="matrix(0.05 0 0 0.05 -45 -181)" d="M 7597.88,4710.89 L 7580.28,4700.73 L 7580.28,4422.53 L 7588.77,4417.63 L 7597.26,4422.53 L 7597.88,4710.89 Z " />
<path stroke="none" fill="#000000" transform="matrix(0.05 0 0 0.05 -45 -181)" d="M 7588.77,4407.83 L 7588.77,4417.63 L 7580.28,4422.53 L 7339.35,4283.43 L 7339.35,4263.11 L 7588.77,4407.83 Z " />
<path stroke="none" fill="#000000" transform="matrix(0.05 0 0 0.05 -45 -181)" d="M 7541.32,4439.95 L 7532.53,4455.17 L 7334.96,4341.1 L 7343.75,4325.88 L 7541.32,4439.95 Z " />
<path stroke="none" fill="#000000" transform="matrix(0.05 0 0 0.05 -45 -181)" d="M 7339.35,4263.11 L 7339.35,4283.43 L 7098.43,4422.53 L 7089.94,4417.63 L 7089.7,4407.95 L 7339.35,4263.11 Z " />
<path stroke="none" fill="#000000" transform="matrix(0.05 0 0 0.05 -45 -181)" d="M 7597.26,4422.53 L 7588.77,4417.63 L 7588.77,4407.83 L 7838.34,4263.01 L 7838.38,4283.34 L 7597.26,4422.53 Z " />
<text x="0" y="0" stroke="none" fill="#000000" transform="matrix(0.05 0 0 0.05 281.466 36.2631)" font-style="normal" font-weight="normal" font-size="200px" font-family="Arial" >
O</text>
<text x="0" y="0" stroke="none" fill="#000000" transform="matrix(0.05 0 0 0.05 289.244 38.3823)" font-style="normal" font-weight="normal" font-size="150px" font-family="Arial" >
2</text>
<text x="0" y="0" stroke="none" fill="#000000" transform="matrix(0.05 0 0 0.05 293.415 36.2631)" font-style="normal" font-weight="normal" font-size="200px" font-family="Arial" >
N</text>
<path stroke="none" fill="#000000" transform="matrix(0.05 0 0 0.05 -45 -181)" d="M 7089.7,4407.95 L 7089.94,4417.63 L 7081.43,4422.27 L 6937.43,4339.73 L 6946.22,4324.51 L 7089.7,4407.95 Z " />
<text x="0" y="0" stroke="none" fill="#000000" transform="matrix(0.05 0 0 0.05 355.491 43.4631)" font-style="normal" font-weight="normal" font-size="200px" font-family="Arial" >
O</text>
<path stroke="none" fill="#000000" transform="matrix(0.05 0 0 0.05 -45 -181)" d="M 7838.38,4283.34 L 7838.34,4263.01 L 8001.7,4357.89 L 7992.92,4373.11 L 7838.38,4283.34 Z " />
<text x="0" y="0" stroke="none" fill="#000000" transform="matrix(0.05 0 0 0.05 343.02 21.8631)" font-style="normal" font-weight="normal" font-size="200px" font-family="Arial" >
O</text>
<path stroke="none" fill="#000000" transform="matrix(0.05 0 0 0.05 -45 -181)" d="M 7821.05,4288.6 L 7803.48,4288.6 L 7803.48,4092.78 L 7821.05,4092.78 L 7821.05,4288.6 Z " />
<path stroke="none" fill="#000000" transform="matrix(0.05 0 0 0.05 -45 -181)" d="M 7872.89,4288.6 L 7855.32,4288.6 L 7855.32,4092.78 L 7872.89,4092.78 L 7872.89,4288.6 Z " />
<text x="0" y="0" stroke="none" fill="#000000" transform="matrix(0.05 0 0 0.05 370.964 34.0839)" font-style="normal" font-weight="normal" font-size="200px" font-family="Arial" >
H</text>
<path stroke="none" fill="#000000" transform="matrix(0.05 0 0 0.05 -45 -181)" d="M 8180.4,4370.67 L 8171.17,4355.72 L 8286.31,4284.65 L 8295.54,4299.6 L 8180.4,4370.67 Z " />
<path stroke="none" fill="#000000" transform="matrix(0.05 0 0 0.05 -45 -181)" d="M 6602.99,4530.4 L 5840.47,4530.4 L 5840.47,4512.4 L 6602.99,4512.4 Z " />
<path stroke="none" fill="#000000" transform="matrix(0.05 0 0 0.05 -45 -181)" d="M 6755.77,4521.4 C 6755.77,4521.4 6580.02,4566.34 6580.02,4566.34 C 6580.02,4566.34 6601.99,4541.06 6601.99,4521.4 C 6601.99,4501.3 6580.02,4475.46 6580.02,4475.46 C 6580.02,4475.46 6755.77,4521.4 6755.77,4521.4 C 6755.77,4521.4 6755.77,4521.4 6755.77,4521.4 " />
<path stroke="#000000" stroke-width="1" fill="none" transform="matrix(0.05 0 0 0.05 -45 -181)" d="M 6755.77,4521.4 C 6755.77,4521.4 6580.02,4566.34 6580.02,4566.34 C 6580.02,4566.34 6601.99,4541.06 6601.99,4521.4 C 6601.99,4501.3 6580.02,4475.46 6580.02,4475.46 C 6580.02,4475.46 6755.77,4521.4 6755.77,4521.4 C 6755.77,4521.4 6755.77,4521.4 6755.77,4521.4 " />
<text x="0" y="0" stroke="none" fill="#000000" transform="matrix(0.05 0 0 0.05 386.429 16.6406)" font-style="normal" font-weight="normal" font-size="200px" font-family="Arial" >
OH</text>
<path stroke="#000000" stroke-width="14" fill="none" transform="matrix(0.05 0 0 0.05 -45 -181)" d="M 8470.56,3773.17 A 74.0299,74.0299 0 1 0 8618.62,3773.17A 74.0299,74.0299 0 1 0 8470.56,3773.17Z " />
<path stroke="none" fill="#000000" transform="matrix(0.05 0 0 0.05 -45 -181)" d="M 8502.13,3765.84 L 8586.38,3765.84 L 8586.38,3779.84 L 8502.13,3779.84 Z " />
<path stroke="#000000" stroke-width="18" fill="none" transform="matrix(0.05 0 0 0.05 -45 -181)" d="M 8433.1,3717.76 C 8433.1,3717.76 7980.23,3532.32 8212.34,4064.15 " />
<path stroke="none" fill="#000000" transform="matrix(0.05 0 0 0.05 -45 -181)" d="M 8163.29,4061.59 L 8212.34,4064.15 L 8243.83,4026.44 L 8259.8,4172.88 Z " />
<path stroke="#000000" stroke-width="18" fill="none" transform="matrix(0.05 0 0 0.05 -45 -181)" d="M 8265.97,4383.87 C 8265.97,4383.87 8400.16,4998.27 8166.57,4621.11 " />
<path stroke="none" fill="#000000" transform="matrix(0.05 0 0 0.05 -45 -181)" d="M 8215.49,4616.66 L 8166.57,4621.11 L 8140.79,4662.92 L 8104.11,4520.26 Z " />
<path stroke="none" fill="#000000" transform="matrix(0.05 0 0 0.05 -45 -181)" d="M 9227.46,4530.4 L 8607.68,4530.4 L 8607.68,4512.4 L 9227.46,4512.4 Z " />
<path stroke="none" fill="#000000" transform="matrix(0.05 0 0 0.05 -45 -181)" d="M 9380.24,4521.4 C 9380.24,4521.4 9204.49,4566.34 9204.49,4566.34 C 9204.49,4566.34 9226.46,4541.06 9226.46,4521.4 C 9226.46,4501.3 9204.49,4475.46 9204.49,4475.46 C 9204.49,4475.46 9380.24,4521.4 9380.24,4521.4 C 9380.24,4521.4 9380.24,4521.4 9380.24,4521.4 " />
<path stroke="#000000" stroke-width="1" fill="none" transform="matrix(0.05 0 0 0.05 -45 -181)" d="M 9380.24,4521.4 C 9380.24,4521.4 9204.49,4566.34 9204.49,4566.34 C 9204.49,4566.34 9226.46,4541.06 9226.46,4521.4 C 9226.46,4501.3 9204.49,4475.46 9204.49,4475.46 C 9204.49,4475.46 9380.24,4521.4 9380.24,4521.4 C 9380.24,4521.4 9380.24,4521.4 9380.24,4521.4 " />
<path stroke="none" fill="#000000" transform="matrix(0.05 0 0 0.05 -45 -181)" d="M 1492.88,6377.06 L 1501.38,6372.42 L 1509.87,6377.32 L 1509.87,6655.52 L 1492.28,6665.68 L 1492.88,6377.06 Z " />
<path stroke="none" fill="#000000" transform="matrix(0.05 0 0 0.05 -45 -181)" d="M 1544.44,6402.35 L 1562.01,6402.35 L 1562.01,6630.49 L 1544.44,6630.49 L 1544.44,6402.35 Z " />
<path stroke="none" fill="#000000" transform="matrix(0.05 0 0 0.05 -45 -181)" d="M 1492.28,6665.68 L 1509.87,6655.52 L 1750.8,6794.62 L 1750.8,6814.94 L 1492.28,6665.68 Z " />
<path stroke="none" fill="#000000" transform="matrix(0.05 0 0 0.05 -45 -181)" d="M 1750.8,6814.94 L 1750.8,6794.62 L 1991.73,6655.52 L 2009.32,6665.68 L 1750.8,6814.94 Z " />
<path stroke="none" fill="#000000" transform="matrix(0.05 0 0 0.05 -45 -181)" d="M 1755.19,6752.17 L 1746.41,6736.95 L 1943.98,6622.88 L 1952.77,6638.1 L 1755.19,6752.17 Z " />
<path stroke="none" fill="#000000" transform="matrix(0.05 0 0 0.05 -45 -181)" d="M 2009.32,6665.68 L 1991.73,6655.52 L 1991.73,6377.32 L 2000.21,6372.42 L 2008.7,6377.32 L 2009.32,6665.68 Z " />
<path stroke="none" fill="#000000" transform="matrix(0.05 0 0 0.05 -45 -181)" d="M 2000.21,6362.62 L 2000.21,6372.42 L 1991.73,6377.32 L 1750.8,6238.22 L 1750.8,6217.9 L 2000.21,6362.62 Z " />
<path stroke="none" fill="#000000" transform="matrix(0.05 0 0 0.05 -45 -181)" d="M 1952.77,6394.74 L 1943.98,6409.96 L 1746.41,6295.89 L 1755.19,6280.67 L 1952.77,6394.74 Z " />
<path stroke="none" fill="#000000" transform="matrix(0.05 0 0 0.05 -45 -181)" d="M 1750.8,6217.9 L 1750.8,6238.22 L 1509.87,6377.32 L 1501.38,6372.42 L 1501.15,6362.74 L 1750.8,6217.9 Z " />
<path stroke="none" fill="#000000" transform="matrix(0.05 0 0 0.05 -45 -181)" d="M 2008.7,6377.32 L 2000.21,6372.42 L 2000.21,6362.62 L 2249.79,6217.8 L 2249.82,6238.13 L 2008.7,6377.32 Z " />
<text x="0" y="0" stroke="none" fill="#000000" transform="matrix(0.05 0 0 0.05 2.03814 134.003)" font-style="normal" font-weight="normal" font-size="200px" font-family="Arial" >
O</text>
<text x="0" y="0" stroke="none" fill="#000000" transform="matrix(0.05 0 0 0.05 9.81646 136.122)" font-style="normal" font-weight="normal" font-size="150px" font-family="Arial" >
2</text>
<text x="0" y="0" stroke="none" fill="#000000" transform="matrix(0.05 0 0 0.05 13.9876 134.003)" font-style="normal" font-weight="normal" font-size="200px" font-family="Arial" >
N</text>
<path stroke="none" fill="#000000" transform="matrix(0.05 0 0 0.05 -45 -181)" d="M 1501.15,6362.74 L 1501.38,6372.42 L 1492.88,6377.06 L 1348.13,6294.09 L 1356.91,6278.86 L 1501.15,6362.74 Z " />
<text x="0" y="0" stroke="none" fill="#000000" transform="matrix(0.05 0 0 0.05 76.0631 141.203)" font-style="normal" font-weight="normal" font-size="200px" font-family="Arial" >
O</text>
<path stroke="none" fill="#000000" transform="matrix(0.05 0 0 0.05 -45 -181)" d="M 2249.82,6238.13 L 2249.79,6217.8 L 2413.15,6312.68 L 2404.36,6327.9 L 2249.82,6238.13 Z " />
<text x="0" y="0" stroke="none" fill="#000000" transform="matrix(0.05 0 0 0.05 63.5923 119.603)" font-style="normal" font-weight="normal" font-size="200px" font-family="Arial" >
O</text>
<path stroke="none" fill="#000000" transform="matrix(0.05 0 0 0.05 -45 -181)" d="M 2232.5,6243.39 L 2214.92,6243.39 L 2214.92,6047.57 L 2232.5,6047.57 L 2232.5,6243.39 Z " />
<path stroke="none" fill="#000000" transform="matrix(0.05 0 0 0.05 -45 -181)" d="M 2284.34,6243.39 L 2266.76,6243.39 L 2266.76,6047.57 L 2284.34,6047.57 L 2284.34,6243.39 Z " />
<path stroke="none" fill="#000000" transform="matrix(0.05 0 0 0.05 -45 -181)" d="M 3588.85,6401.33 L 2747.76,6401.33 L 2747.76,6383.33 L 3588.85,6383.33 Z " />
<path stroke="none" fill="#000000" transform="matrix(0.05 0 0 0.05 -45 -181)" d="M 3741.63,6392.33 C 3741.63,6392.33 3565.88,6437.27 3565.88,6437.27 C 3565.88,6437.27 3587.85,6411.99 3587.85,6392.33 C 3587.85,6372.23 3565.88,6346.4 3565.88,6346.4 C 3565.88,6346.4 3741.63,6392.33 3741.63,6392.33 C 3741.63,6392.33 3741.63,6392.33 3741.63,6392.33 " />
<path stroke="#000000" stroke-width="1" fill="none" transform="matrix(0.05 0 0 0.05 -45 -181)" d="M 3741.63,6392.33 C 3741.63,6392.33 3565.88,6437.27 3565.88,6437.27 C 3565.88,6437.27 3587.85,6411.99 3587.85,6392.33 C 3587.85,6372.23 3565.88,6346.4 3565.88,6346.4 C 3565.88,6346.4 3741.63,6392.33 3741.63,6392.33 C 3741.63,6392.33 3741.63,6392.33 3741.63,6392.33 " />
<path stroke="#000000" stroke-width="14" fill="none" transform="matrix(0.05 0 0 0.05 -45 -181)" d="M 2544.38,6218.55 A 74.0299,74.0299 0 1 0 2692.44,6218.55A 74.0299,74.0299 0 1 0 2544.38,6218.55Z " />
<path stroke="none" fill="#000000" transform="matrix(0.05 0 0 0.05 -45 -181)" d="M 2575.96,6211.22 L 2660.2,6211.22 L 2660.2,6225.22 L 2575.96,6225.22 Z " />
<text x="0" y="0" stroke="none" fill="#000000" transform="matrix(0.05 0 0 0.05 100.931 134.924)" font-style="normal" font-weight="normal" font-size="200px" font-family="Arial" >
aq </text>
<text x="0" y="0" stroke="none" fill="#000000" transform="matrix(0.05 0 0 0.05 114.832 134.924)" font-style="normal" font-weight="normal" font-size="200px" font-family="Arial" >
HCl</text>
<path stroke="none" fill="#000000" transform="matrix(0.05 0 0 0.05 -45 -181)" d="M 4478.6,6377.06 L 4487.11,6372.42 L 4495.6,6377.32 L 4495.6,6655.52 L 4478,6665.68 L 4478.6,6377.06 Z " />
<path stroke="none" fill="#000000" transform="matrix(0.05 0 0 0.05 -45 -181)" d="M 4530.16,6402.35 L 4547.74,6402.35 L 4547.74,6630.49 L 4530.16,6630.49 L 4530.16,6402.35 Z " />
<path stroke="none" fill="#000000" transform="matrix(0.05 0 0 0.05 -45 -181)" d="M 4478,6665.68 L 4495.6,6655.52 L 4736.52,6794.62 L 4736.52,6814.94 L 4478,6665.68 Z " />
<path stroke="none" fill="#000000" transform="matrix(0.05 0 0 0.05 -45 -181)" d="M 4736.52,6814.94 L 4736.52,6794.62 L 4977.45,6655.52 L 4995.05,6665.68 L 4736.52,6814.94 Z " />
<path stroke="none" fill="#000000" transform="matrix(0.05 0 0 0.05 -45 -181)" d="M 4740.92,6752.17 L 4732.13,6736.95 L 4929.7,6622.88 L 4938.49,6638.1 L 4740.92,6752.17 Z " />
<path stroke="none" fill="#000000" transform="matrix(0.05 0 0 0.05 -45 -181)" d="M 4995.05,6665.68 L 4977.45,6655.52 L 4977.45,6377.32 L 4985.94,6372.42 L 4994.43,6377.32 L 4995.05,6665.68 Z " />
<path stroke="none" fill="#000000" transform="matrix(0.05 0 0 0.05 -45 -181)" d="M 4985.94,6362.62 L 4985.94,6372.42 L 4977.45,6377.32 L 4736.52,6238.22 L 4736.52,6217.9 L 4985.94,6362.62 Z " />
<path stroke="none" fill="#000000" transform="matrix(0.05 0 0 0.05 -45 -181)" d="M 4938.49,6394.74 L 4929.7,6409.96 L 4732.13,6295.89 L 4740.92,6280.67 L 4938.49,6394.74 Z " />
<path stroke="none" fill="#000000" transform="matrix(0.05 0 0 0.05 -45 -181)" d="M 4736.52,6217.9 L 4736.52,6238.22 L 4495.6,6377.32 L 4487.11,6372.42 L 4486.88,6362.74 L 4736.52,6217.9 Z " />
<path stroke="none" fill="#000000" transform="matrix(0.05 0 0 0.05 -45 -181)" d="M 4994.43,6377.32 L 4985.94,6372.42 L 4985.94,6362.62 L 5235.52,6217.8 L 5235.55,6238.13 L 4994.43,6377.32 Z " />
<text x="0" y="0" stroke="none" fill="#000000" transform="matrix(0.05 0 0 0.05 151.324 134.003)" font-style="normal" font-weight="normal" font-size="200px" font-family="Arial" >
O</text>
<text x="0" y="0" stroke="none" fill="#000000" transform="matrix(0.05 0 0 0.05 159.103 136.122)" font-style="normal" font-weight="normal" font-size="150px" font-family="Arial" >
2</text>
<text x="0" y="0" stroke="none" fill="#000000" transform="matrix(0.05 0 0 0.05 163.274 134.003)" font-style="normal" font-weight="normal" font-size="200px" font-family="Arial" >
N</text>
<path stroke="none" fill="#000000" transform="matrix(0.05 0 0 0.05 -45 -181)" d="M 4486.88,6362.74 L 4487.11,6372.42 L 4478.6,6377.06 L 4333.85,6294.09 L 4342.64,6278.86 L 4486.88,6362.74 Z " />
<text x="0" y="0" stroke="none" fill="#000000" transform="matrix(0.05 0 0 0.05 225.349 141.203)" font-style="normal" font-weight="normal" font-size="200px" font-family="Arial" >
O</text>
<path stroke="none" fill="#000000" transform="matrix(0.05 0 0 0.05 -45 -181)" d="M 5235.55,6238.13 L 5235.52,6217.8 L 5398.88,6312.68 L 5390.09,6327.9 L 5235.55,6238.13 Z " />
<text x="0" y="0" stroke="none" fill="#000000" transform="matrix(0.05 0 0 0.05 212.879 119.603)" font-style="normal" font-weight="normal" font-size="200px" font-family="Arial" >
O</text>
<path stroke="none" fill="#000000" transform="matrix(0.05 0 0 0.05 -45 -181)" d="M 5218.22,6243.39 L 5200.65,6243.39 L 5200.65,6047.57 L 5218.22,6047.57 L 5218.22,6243.39 Z " />
<path stroke="none" fill="#000000" transform="matrix(0.05 0 0 0.05 -45 -181)" d="M 5270.06,6243.39 L 5252.49,6243.39 L 5252.49,6047.57 L 5270.06,6047.57 L 5270.06,6243.39 Z " />
<path stroke="#000000" stroke-width="14" fill="none" transform="matrix(0.05 0 0 0.05 -45 -181)" d="M 5530.11,6218.55 A 74.0299,74.0299 0 1 0 5678.17,6218.55A 74.0299,74.0299 0 1 0 5530.11,6218.55Z " />
<path stroke="none" fill="#000000" transform="matrix(0.05 0 0 0.05 -45 -181)" d="M 5561.68,6211.22 L 5645.92,6211.22 L 5645.92,6225.22 L 5561.68,6225.22 Z " />
<text x="0" y="0" stroke="none" fill="#000000" transform="matrix(0.05 0 0 0.05 256.767 142.739)" font-style="normal" font-weight="normal" font-size="200px" font-family="Arial" >
H</text>
<path stroke="#000000" stroke-width="14" fill="none" transform="matrix(0.05 0 0 0.05 -45 -181)" d="M 6050.08,6210.89 A 74.0299,74.0299 0 1 0 6198.14,6210.89A 74.0299,74.0299 0 1 0 6050.08,6210.89Z " />
<path stroke="none" fill="#000000" transform="matrix(0.05 0 0 0.05 -45 -181)" d="M 6081.65,6203.55 L 6165.89,6203.55 L 6165.89,6217.55 L 6081.65,6217.55 Z " />
<path stroke="none" fill="#000000" transform="matrix(0.05 0 0 0.05 -45 -181)" d="M 6130.77,6168.43 L 6130.77,6252.67 L 6116.77,6252.67 L 6116.77,6168.43 Z " />
<path stroke="#000000" stroke-width="18" fill="none" transform="matrix(0.05 0 0 0.05 -45 -181)" d="M 5594.95,6081.27 C 5594.95,6081.27 5724.49,5176.19 6043.63,6004.11 " />
<path stroke="none" fill="#000000" transform="matrix(0.05 0 0 0.05 -45 -181)" d="M 5994.73,5999.41 L 6043.63,6004.11 L 6076.72,5967.81 L 6086.3,6114.8 Z " />
<path stroke="none" fill="#000000" transform="matrix(0.05 0 0 0.05 -45 -181)" d="M 7083.52,6401.33 L 6387.43,6401.33 L 6387.43,6383.33 L 7083.52,6383.33 Z " />
<path stroke="none" fill="#000000" transform="matrix(0.05 0 0 0.05 -45 -181)" d="M 7236.3,6392.33 C 7236.3,6392.33 7060.55,6437.27 7060.55,6437.27 C 7060.55,6437.27 7082.52,6411.99 7082.52,6392.33 C 7082.52,6372.23 7060.55,6346.4 7060.55,6346.4 C 7060.55,6346.4 7236.3,6392.33 7236.3,6392.33 C 7236.3,6392.33 7236.3,6392.33 7236.3,6392.33 " />
<path stroke="#000000" stroke-width="1" fill="none" transform="matrix(0.05 0 0 0.05 -45 -181)" d="M 7236.3,6392.33 C 7236.3,6392.33 7060.55,6437.27 7060.55,6437.27 C 7060.55,6437.27 7082.52,6411.99 7082.52,6392.33 C 7082.52,6372.23 7060.55,6346.4 7060.55,6346.4 C 7060.55,6346.4 7236.3,6392.33 7236.3,6392.33 C 7236.3,6392.33 7236.3,6392.33 7236.3,6392.33 " />
<path stroke="none" fill="#000000" transform="matrix(0.05 0 0 0.05 -45 -181)" d="M 7860.62,6377.06 L 7869.12,6372.42 L 7877.61,6377.32 L 7877.61,6655.52 L 7860.01,6665.68 L 7860.62,6377.06 Z " />
<path stroke="none" fill="#000000" transform="matrix(0.05 0 0 0.05 -45 -181)" d="M 7912.17,6402.35 L 7929.75,6402.35 L 7929.75,6630.49 L 7912.17,6630.49 L 7912.17,6402.35 Z " />
<path stroke="none" fill="#000000" transform="matrix(0.05 0 0 0.05 -45 -181)" d="M 7860.01,6665.68 L 7877.61,6655.52 L 8118.53,6794.62 L 8118.53,6814.94 L 7860.01,6665.68 Z " />
<path stroke="none" fill="#000000" transform="matrix(0.05 0 0 0.05 -45 -181)" d="M 8118.53,6814.94 L 8118.53,6794.62 L 8359.46,6655.52 L 8377.06,6665.68 L 8118.53,6814.94 Z " />
<path stroke="none" fill="#000000" transform="matrix(0.05 0 0 0.05 -45 -181)" d="M 8122.93,6752.17 L 8114.14,6736.95 L 8311.72,6622.88 L 8320.5,6638.1 L 8122.93,6752.17 Z " />
<path stroke="none" fill="#000000" transform="matrix(0.05 0 0 0.05 -45 -181)" d="M 8377.06,6665.68 L 8359.46,6655.52 L 8359.46,6377.32 L 8367.95,6372.42 L 8376.44,6377.32 L 8377.06,6665.68 Z " />
<path stroke="none" fill="#000000" transform="matrix(0.05 0 0 0.05 -45 -181)" d="M 8367.95,6362.62 L 8367.95,6372.42 L 8359.46,6377.32 L 8118.53,6238.22 L 8118.53,6217.9 L 8367.95,6362.62 Z " />
<path stroke="none" fill="#000000" transform="matrix(0.05 0 0 0.05 -45 -181)" d="M 8320.5,6394.74 L 8311.72,6409.96 L 8114.14,6295.89 L 8122.93,6280.67 L 8320.5,6394.74 Z " />
<path stroke="none" fill="#000000" transform="matrix(0.05 0 0 0.05 -45 -181)" d="M 8118.53,6217.9 L 8118.53,6238.22 L 7877.61,6377.32 L 7869.12,6372.42 L 7868.89,6362.74 L 8118.53,6217.9 Z " />
<path stroke="none" fill="#000000" transform="matrix(0.05 0 0 0.05 -45 -181)" d="M 8376.44,6377.32 L 8367.95,6372.42 L 8367.95,6362.62 L 8617.53,6217.8 L 8617.56,6238.13 L 8376.44,6377.32 Z " />
<text x="0" y="0" stroke="none" fill="#000000" transform="matrix(0.05 0 0 0.05 394.45 141.203)" font-style="normal" font-weight="normal" font-size="200px" font-family="Arial" >
OH</text>
<path stroke="none" fill="#000000" transform="matrix(0.05 0 0 0.05 -45 -181)" d="M 8617.56,6238.13 L 8617.53,6217.8 L 8780.89,6312.68 L 8772.1,6327.9 L 8617.56,6238.13 Z " />
<text x="0" y="0" stroke="none" fill="#000000" transform="matrix(0.05 0 0 0.05 381.979 119.603)" font-style="normal" font-weight="normal" font-size="200px" font-family="Arial" >
O</text>
<path stroke="none" fill="#000000" transform="matrix(0.05 0 0 0.05 -45 -181)" d="M 8600.23,6243.39 L 8582.66,6243.39 L 8582.66,6047.57 L 8600.23,6047.57 L 8600.23,6243.39 Z " />
<path stroke="none" fill="#000000" transform="matrix(0.05 0 0 0.05 -45 -181)" d="M 8652.07,6243.39 L 8634.5,6243.39 L 8634.5,6047.57 L 8652.07,6047.57 L 8652.07,6243.39 Z " />
<text x="0" y="0" stroke="none" fill="#000000" transform="matrix(0.05 0 0 0.05 320.425 134.003)" font-style="normal" font-weight="normal" font-size="200px" font-family="Arial" >
O</text>
<text x="0" y="0" stroke="none" fill="#000000" transform="matrix(0.05 0 0 0.05 328.203 136.122)" font-style="normal" font-weight="normal" font-size="150px" font-family="Arial" >
2</text>
<text x="0" y="0" stroke="none" fill="#000000" transform="matrix(0.05 0 0 0.05 332.374 134.003)" font-style="normal" font-weight="normal" font-size="200px" font-family="Arial" >
N</text>
<path stroke="none" fill="#000000" transform="matrix(0.05 0 0 0.05 -45 -181)" d="M 7868.89,6362.74 L 7869.12,6372.42 L 7860.62,6377.06 L 7715.86,6294.09 L 7724.65,6278.86 L 7868.89,6362.74 Z " />
<text x="0" y="0" stroke="none" fill="#000000" transform="matrix(0.05 0 0 0.05 115.951 56.1559)" font-style="normal" font-weight="normal" font-size="200px" font-family="Arial" >
A</text>
<text x="0" y="0" stroke="none" fill="#000000" transform="matrix(0.05 0 0 0.05 262.449 56.1559)" font-style="normal" font-weight="normal" font-size="200px" font-family="Arial" >
B</text>
<text x="0" y="0" stroke="none" fill="#000000" transform="matrix(0.05 0 0 0.05 396.465 56.278)" font-style="normal" font-weight="normal" font-size="200px" font-family="Arial" >
C</text>
<text x="0" y="0" stroke="none" fill="#000000" transform="matrix(0.05 0 0 0.05 288.069 150.099)" font-style="normal" font-weight="normal" font-size="200px" font-family="Arial" >
D</text>
</svg>
