<?xml version="1.0" standalone="no" ?>
<!DOCTYPE svg PUBLIC "-//W3C//DTD SVG 1.1//EN" "http://www.w3.org/Graphics/SVG/1.1/DTD/svg11.dtd">
<svg width="428px" height="249px" viewBox="0 0 428 249" style="background-color: #ffffff00" xmlns="http://www.w3.org/2000/svg" xmlns:xlink="http://www.w3.org/1999/xlink" version="1.1" >
<text x="0" y="0" stroke="none" fill="#000000" transform="matrix(0.05 0 0 0.05 2.28923 44.6515)" font-style="normal" font-weight="normal" font-size="200px" font-family="Arial" >
MeO</text>
<path stroke="none" fill="#000000" transform="matrix(0.05 0 0 0.05 -18 -173)" d="M 1010.79,4415.77 L 1010.79,4436.15 L 847.383,4341.21 L 856.184,4325.97 L 1010.79,4415.77 Z " />
<text x="0" y="0" stroke="none" fill="#000000" transform="matrix(0.05 0 0 0.05 41.3992 44.6515)" font-style="normal" font-weight="normal" font-size="200px" font-family="Arial" >
C</text>
<path stroke="none" fill="#000000" transform="matrix(0.05 0 0 0.05 -18 -173)" d="M 1010.79,4436.15 L 1010.79,4415.77 L 1168.89,4323.96 L 1177.69,4339.2 L 1010.79,4436.15 Z " />
<text x="0" y="0" stroke="none" fill="#000000" transform="matrix(0.05 0 0 0.05 55.7392 34.9515)" font-style="normal" font-weight="normal" font-size="200px" font-family="Arial" >
N</text>
<path stroke="none" fill="#000000" transform="matrix(0.05 0 0 0.05 -18 -173)" d="M 1316.72,4178.55 L 1306.86,4163.97 L 1407.5,4095.89 L 1417.36,4110.47 L 1316.72,4178.55 Z " />
<path stroke="none" fill="#000000" transform="matrix(0.05 0 0 0.05 -18 -173)" d="M 1351.64,4230.17 L 1341.78,4215.59 L 1442.42,4147.52 L 1452.28,4162.1 L 1351.64,4230.17 Z " />
<path stroke="none" fill="#000000" transform="matrix(0.05 0 0 0.05 -18 -173)" d="M 1386.56,4281.79 L 1376.7,4267.22 L 1477.34,4199.14 L 1487.2,4213.72 L 1386.56,4281.79 Z " />
<text x="0" y="0" stroke="none" fill="#000000" transform="matrix(0.05 0 0 0.05 33.235 78.5315)" font-style="normal" font-weight="normal" font-size="200px" font-family="Arial" >
Ph</text>
<path stroke="#000000" stroke-width="14" fill="none" transform="matrix(0.05 0 0 0.05 -18 -173)" d="M 1216.09,4846.13 A 74.0399,74.0399 0 1 0 1364.17,4846.13A 74.0399,74.0399 0 1 0 1216.09,4846.13Z " />
<path stroke="none" fill="#000000" transform="matrix(0.05 0 0 0.05 -18 -173)" d="M 1247.67,4838.8 L 1331.93,4838.8 L 1331.93,4852.8 L 1247.67,4852.8 Z " />
<text x="0" y="0" stroke="none" fill="#000000" transform="matrix(0.05 0 0 0.05 54.075 78.2915)" font-style="normal" font-weight="normal" font-size="200px" font-family="Arial" >
MgBr</text>
<path stroke="#000000" stroke-width="14" fill="none" transform="matrix(0.05 0 0 0.05 -18 -173)" d="M 1448.29,4804.53 A 74.0399,74.0399 0 1 0 1596.37,4804.53A 74.0399,74.0399 0 1 0 1448.29,4804.53Z " />
<path stroke="none" fill="#000000" transform="matrix(0.05 0 0 0.05 -18 -173)" d="M 1479.87,4797.2 L 1564.13,4797.2 L 1564.13,4811.2 L 1479.87,4811.2 Z " />
<path stroke="none" fill="#000000" transform="matrix(0.05 0 0 0.05 -18 -173)" d="M 1529,4762.07 L 1529,4846.33 L 1515,4846.33 L 1515,4762.07 Z " />
<path stroke="none" fill="#000000" transform="matrix(0.05 0 0 0.05 -18 -173)" d="M 1287.25,4966.7 L 1286.98,4949.1 L 1423.23,4946.98 L 1423.5,4964.58 L 1287.25,4966.7 Z " />
<path stroke="#000000" stroke-width="14" fill="none" transform="matrix(0.05 0 0 0.05 -18 -173)" d="M 1856.69,4788.13 A 74.0399,74.0399 0 1 0 2004.77,4788.13A 74.0399,74.0399 0 1 0 1856.69,4788.13Z " />
<path stroke="none" fill="#000000" transform="matrix(0.05 0 0 0.05 -18 -173)" d="M 1888.27,4780.8 L 1972.53,4780.8 L 1972.53,4794.8 L 1888.27,4794.8 Z " />
<path stroke="#000000" stroke-width="18" fill="none" transform="matrix(0.05 0 0 0.05 -18 -173)" d="M 1287.6,4753 C 1287.6,4753 1391.8,4594.2 1357,4500 " />
<path stroke="none" fill="#000000" transform="matrix(0.05 0 0 0.05 -18 -173)" d="M 1405.89,4505.48 L 1357,4500 L 1323.28,4535.82 L 1316.04,4388.49 Z " />
<path stroke="#000000" stroke-width="18" fill="none" transform="matrix(0.05 0 0 0.05 -18 -173)" d="M 1347.8,4081 C 1347.8,4081 1485.2,3506.8 1547.6,3868.8 " />
<path stroke="none" fill="#000000" transform="matrix(0.05 0 0 0.05 -18 -173)" d="M 1500.5,3854.59 L 1547.6,3868.8 L 1587.22,3839.65 L 1567.78,3985.87 Z " />
<path stroke="none" fill="#000000" transform="matrix(0.05 0 0 0.05 -18 -173)" d="M 2847.2,4350.4 L 2109.2,4350.4 L 2109.2,4332.4 L 2847.2,4332.4 Z " />
<path stroke="none" fill="#000000" transform="matrix(0.05 0 0 0.05 -18 -173)" d="M 3000.2,4341.4 C 3000.2,4341.4 2824.2,4386.4 2824.2,4386.4 C 2824.2,4386.4 2846.2,4361.09 2846.2,4341.4 C 2846.2,4321.28 2824.2,4295.4 2824.2,4295.4 C 2824.2,4295.4 3000.2,4341.4 3000.2,4341.4 C 3000.2,4341.4 3000.2,4341.4 3000.2,4341.4 " />
<path stroke="#000000" stroke-width="1" fill="none" transform="matrix(0.05 0 0 0.05 -18 -173)" d="M 3000.2,4341.4 C 3000.2,4341.4 2824.2,4386.4 2824.2,4386.4 C 2824.2,4386.4 2846.2,4361.09 2846.2,4341.4 C 2846.2,4321.28 2824.2,4295.4 2824.2,4295.4 C 2824.2,4295.4 3000.2,4341.4 3000.2,4341.4 C 3000.2,4341.4 3000.2,4341.4 3000.2,4341.4 " />
<text x="0" y="0" stroke="none" fill="#000000" transform="matrix(0.05 0 0 0.05 154.849 46.3615)" font-style="normal" font-weight="normal" font-size="200px" font-family="Arial" >
MeO</text>
<path stroke="none" fill="#000000" transform="matrix(0.05 0 0 0.05 -18 -173)" d="M 4061.8,4449.88 L 4061.84,4470.24 L 3898.58,4375.41 L 3907.38,4360.17 L 4061.8,4449.88 Z " />
<path stroke="none" fill="#000000" transform="matrix(0.05 0 0 0.05 -18 -173)" d="M 4061.84,4470.24 L 4061.8,4449.88 L 4303.08,4310.58 L 4311.4,4315.6 L 4311.62,4325.3 L 4061.84,4470.24 Z " />
<text x="0" y="0" stroke="none" fill="#000000" transform="matrix(0.05 0 0 0.05 206.705 53.5615)" font-style="normal" font-weight="normal" font-size="200px" font-family="Arial" >
Ph</text>
<path stroke="none" fill="#000000" transform="matrix(0.05 0 0 0.05 -18 -173)" d="M 4311.62,4325.3 L 4311.4,4315.6 L 4319.75,4310.82 L 4467.61,4395.63 L 4458.81,4410.87 L 4311.62,4325.3 Z " />
<text x="0" y="0" stroke="none" fill="#ff0000" transform="matrix(0.05 0 0 0.05 193.959 31.9615)" font-style="normal" font-weight="normal" font-size="200px" font-family="Arial" >
N</text>
<path stroke="none" fill="#000000" transform="matrix(0.05 0 0 0.05 -18 -173)" d="M 4319.75,4310.82 L 4311.4,4315.6 L 4303.08,4310.58 L 4302.6,4130.02 L 4320.2,4130.02 L 4319.75,4310.82 Z " />
<path stroke="none" fill="#000000" transform="matrix(0.05 0 0 0.05 -18 -173)" d="M 4372.04,4285.67 L 4354.44,4285.67 L 4354.44,4130.02 L 4372.04,4130.02 L 4372.04,4285.67 Z " />
<text x="0" y="0" stroke="none" fill="#ff0000" transform="matrix(0.05 0 0 0.05 207.325 20.5315)" font-style="normal" font-weight="normal" font-size="200px" font-family="Arial" >
MgBr</text>
<path stroke="none" fill="#ff0000" transform="matrix(0.05 0 0 0.05 -18 -173)" d="M 4410.77,3957.39 L 4399.6,3943.79 L 4482.97,3875.33 L 4494.14,3888.93 L 4410.77,3957.39 Z " />
<path stroke="none" fill="#000000" transform="matrix(0.05 0 0 0.05 -18 -173)" d="M 5843.4,4350.4 L 5110.6,4350.4 L 5110.6,4332.4 L 5843.4,4332.4 Z " />
<path stroke="none" fill="#000000" transform="matrix(0.05 0 0 0.05 -18 -173)" d="M 5996.4,4341.4 C 5996.4,4341.4 5820.4,4386.4 5820.4,4386.4 C 5820.4,4386.4 5842.4,4361.09 5842.4,4341.4 C 5842.4,4321.28 5820.4,4295.4 5820.4,4295.4 C 5820.4,4295.4 5996.4,4341.4 5996.4,4341.4 C 5996.4,4341.4 5996.4,4341.4 5996.4,4341.4 " />
<path stroke="#000000" stroke-width="1" fill="none" transform="matrix(0.05 0 0 0.05 -18 -173)" d="M 5996.4,4341.4 C 5996.4,4341.4 5820.4,4386.4 5820.4,4386.4 C 5820.4,4386.4 5842.4,4361.09 5842.4,4341.4 C 5842.4,4321.28 5820.4,4295.4 5820.4,4295.4 C 5820.4,4295.4 5996.4,4341.4 5996.4,4341.4 C 5996.4,4341.4 5996.4,4341.4 5996.4,4341.4 " />
<text x="0" y="0" stroke="none" fill="#000000" transform="matrix(0.05 0 0 0.05 299.609 48.2315)" font-style="normal" font-weight="normal" font-size="200px" font-family="Arial" >
MeO</text>
<path stroke="none" fill="#000000" transform="matrix(0.05 0 0 0.05 -18 -173)" d="M 6957,4487.28 L 6957.04,4507.64 L 6793.78,4412.81 L 6802.58,4397.57 L 6957,4487.28 Z " />
<path stroke="none" fill="#000000" transform="matrix(0.05 0 0 0.05 -18 -173)" d="M 6957.04,4507.64 L 6957,4487.28 L 7206.78,4342.35 L 7206.82,4362.71 L 6957.04,4507.64 Z " />
<text x="0" y="0" stroke="none" fill="#000000" transform="matrix(0.05 0 0 0.05 351.465 55.4315)" font-style="normal" font-weight="normal" font-size="200px" font-family="Arial" >
Ph</text>
<path stroke="none" fill="#000000" transform="matrix(0.05 0 0 0.05 -18 -173)" d="M 7206.82,4362.71 L 7206.78,4342.35 L 7363.24,4433.28 L 7354.44,4448.52 L 7206.82,4362.71 Z " />
<text x="0" y="0" stroke="none" fill="#000000" transform="matrix(0.05 0 0 0.05 338.719 33.8315)" font-style="normal" font-weight="normal" font-size="200px" font-family="Arial" >
N</text>
<path stroke="none" fill="#000000" transform="matrix(0.05 0 0 0.05 -18 -173)" d="M 7189.48,4367.97 L 7171.88,4367.97 L 7171.88,4167.42 L 7189.48,4167.42 L 7189.48,4367.97 Z " />
<path stroke="none" fill="#000000" transform="matrix(0.05 0 0 0.05 -18 -173)" d="M 7241.32,4367.97 L 7223.72,4367.97 L 7223.72,4167.42 L 7241.32,4167.42 L 7241.32,4367.97 Z " />
<text x="0" y="0" stroke="none" fill="#000000" transform="matrix(0.05 0 0 0.05 373.549 17.7815)" font-style="normal" font-weight="normal" font-size="200px" font-family="Arial" >
H</text>
<path stroke="#000000" stroke-width="14" fill="none" transform="matrix(0.05 0 0 0.05 -18 -173)" d="M 7957.69,3599.73 A 74.0399,74.0399 0 1 0 8105.77,3599.73A 74.0399,74.0399 0 1 0 7957.69,3599.73Z " />
<path stroke="none" fill="#000000" transform="matrix(0.05 0 0 0.05 -18 -173)" d="M 7989.27,3592.4 L 8073.53,3592.4 L 8073.53,3606.4 L 7989.27,3606.4 Z " />
<path stroke="none" fill="#000000" transform="matrix(0.05 0 0 0.05 -18 -173)" d="M 8038.4,3557.27 L 8038.4,3641.53 L 8024.4,3641.53 L 8024.4,3557.27 Z " />
<path stroke="#000000" stroke-width="14" fill="none" transform="matrix(0.05 0 0 0.05 -18 -173)" d="M 7278.69,3938.73 A 74.0399,74.0399 0 1 0 7426.77,3938.73A 74.0399,74.0399 0 1 0 7278.69,3938.73Z " />
<path stroke="none" fill="#000000" transform="matrix(0.05 0 0 0.05 -18 -173)" d="M 7310.27,3931.4 L 7394.53,3931.4 L 7394.53,3945.4 L 7310.27,3945.4 Z " />
<path stroke="#000000" stroke-width="18" fill="none" transform="matrix(0.05 0 0 0.05 -18 -173)" d="M 7306.8,3853 C 7306.8,3853 7044.8,3503.6 7693.6,3690.8 " />
<path stroke="none" fill="#000000" transform="matrix(0.05 0 0 0.05 -18 -173)" d="M 7660.27,3726.98 L 7693.6,3690.8 L 7684.66,3642.43 L 7807.74,3723.72 Z " />
<path stroke="none" fill="#000000" transform="matrix(0.05 0 0 0.05 -18 -173)" d="M 8526.6,4350.4 L 7832,4350.4 L 7832,4332.4 L 8526.6,4332.4 Z " />
<path stroke="none" fill="#000000" transform="matrix(0.05 0 0 0.05 -18 -173)" d="M 8679.6,4341.4 C 8679.6,4341.4 8503.6,4386.4 8503.6,4386.4 C 8503.6,4386.4 8525.6,4361.09 8525.6,4341.4 C 8525.6,4321.28 8503.6,4295.4 8503.6,4295.4 C 8503.6,4295.4 8679.6,4341.4 8679.6,4341.4 C 8679.6,4341.4 8679.6,4341.4 8679.6,4341.4 " />
<path stroke="#000000" stroke-width="1" fill="none" transform="matrix(0.05 0 0 0.05 -18 -173)" d="M 8679.6,4341.4 C 8679.6,4341.4 8503.6,4386.4 8503.6,4386.4 C 8503.6,4386.4 8525.6,4361.09 8525.6,4341.4 C 8525.6,4321.28 8503.6,4295.4 8503.6,4295.4 C 8503.6,4295.4 8679.6,4341.4 8679.6,4341.4 C 8679.6,4341.4 8679.6,4341.4 8679.6,4341.4 " />
<text x="0" y="0" stroke="none" fill="#000000" transform="matrix(0.05 0 0 0.05 1.28923 149.872)" font-style="normal" font-weight="normal" font-size="200px" font-family="Arial" >
MeO</text>
<path stroke="none" fill="#000000" transform="matrix(0.05 0 0 0.05 -18 -173)" d="M 990.603,6520.08 L 990.636,6540.44 L 827.816,6445.86 L 836.617,6430.62 L 990.603,6520.08 Z " />
<path stroke="none" fill="#000000" transform="matrix(0.05 0 0 0.05 -18 -173)" d="M 990.636,6540.44 L 990.603,6520.08 L 1231.88,6380.78 L 1240.2,6385.8 L 1240.42,6395.5 L 990.636,6540.44 Z " />
<text x="0" y="0" stroke="none" fill="#000000" transform="matrix(0.05 0 0 0.05 53.145 157.072)" font-style="normal" font-weight="normal" font-size="200px" font-family="Arial" >
Ph</text>
<path stroke="none" fill="#000000" transform="matrix(0.05 0 0 0.05 -18 -173)" d="M 1240.42,6395.5 L 1240.2,6385.8 L 1248.55,6381.02 L 1395.66,6465.4 L 1386.86,6480.64 L 1240.42,6395.5 Z " />
<text x="0" y="0" stroke="none" fill="#000000" transform="matrix(0.05 0 0 0.05 40.3992 135.472)" font-style="normal" font-weight="normal" font-size="200px" font-family="Arial" >
N</text>
<path stroke="none" fill="#000000" transform="matrix(0.05 0 0 0.05 -18 -173)" d="M 1248.55,6381.02 L 1240.2,6385.8 L 1231.88,6380.78 L 1231.4,6200.22 L 1249,6200.22 L 1248.55,6381.02 Z " />
<path stroke="none" fill="#000000" transform="matrix(0.05 0 0 0.05 -18 -173)" d="M 1197.16,6355.87 L 1179.56,6355.87 L 1179.56,6200.22 L 1197.16,6200.22 L 1197.16,6355.87 Z " />
<text x="0" y="0" stroke="none" fill="#000000" transform="matrix(0.05 0 0 0.05 75.2191 119.422)" font-style="normal" font-weight="normal" font-size="200px" font-family="Arial" >
H</text>
<path stroke="#000000" stroke-width="14" fill="none" transform="matrix(0.05 0 0 0.05 -18 -173)" d="M 1991.29,5632.53 A 74.0399,74.0399 0 1 0 2139.37,5632.53A 74.0399,74.0399 0 1 0 1991.29,5632.53Z " />
<path stroke="none" fill="#000000" transform="matrix(0.05 0 0 0.05 -18 -173)" d="M 2022.87,5625.2 L 2107.13,5625.2 L 2107.13,5639.2 L 2022.87,5639.2 Z " />
<path stroke="none" fill="#000000" transform="matrix(0.05 0 0 0.05 -18 -173)" d="M 2072,5590.07 L 2072,5674.33 L 2058,5674.33 L 2058,5590.07 Z " />
<text x="0" y="0" stroke="none" fill="#000000" transform="matrix(0.05 0 0 0.05 26.4691 124.042)" font-style="normal" font-weight="normal" font-size="200px" font-family="Arial" >
H</text>
<path stroke="none" fill="#000000" transform="matrix(0.05 0 0 0.05 -18 -173)" d="M 1150.2,6012.57 L 1139.04,6026.18 L 1049.12,5952.4 L 1060.29,5938.79 L 1150.2,6012.57 Z " />
<path stroke="none" fill="#000000" transform="matrix(0.05 0 0 0.05 -18 -173)" d="M 1349.14,5998.8 A 16.6564,16.6564 0 1 0 1382.46,5998.8A 16.6564,16.6564 0 1 0 1349.14,5998.8Z " />
<path stroke="none" fill="#000000" transform="matrix(0.05 0 0 0.05 -18 -173)" d="M 1296.34,5945.6 A 16.6564,16.6564 0 1 0 1329.66,5945.6A 16.6564,16.6564 0 1 0 1296.34,5945.6Z " />
<path stroke="#000000" stroke-width="18" fill="none" transform="matrix(0.05 0 0 0.05 -18 -173)" d="M 1360,5941.4 C 1360,5941.4 1370.6,5712.6 1737.8,5760.6 " />
<path stroke="none" fill="#000000" transform="matrix(0.05 0 0 0.05 -18 -173)" d="M 1710.3,5801.39 L 1737.8,5760.6 L 1721.67,5714.13 L 1855.6,5775.94 Z " />
<path stroke="none" fill="#000000" transform="matrix(0.05 0 0 0.05 -18 -173)" d="M 2468,6216.2 L 1915.4,6216.2 L 1915.4,6198.2 L 2468,6198.2 Z " />
<path stroke="none" fill="#000000" transform="matrix(0.05 0 0 0.05 -18 -173)" d="M 2621,6207.2 C 2621,6207.2 2445,6252.2 2445,6252.2 C 2445,6252.2 2467,6226.89 2467,6207.2 C 2467,6187.07 2445,6161.2 2445,6161.2 C 2445,6161.2 2621,6207.2 2621,6207.2 C 2621,6207.2 2621,6207.2 2621,6207.2 " />
<path stroke="#000000" stroke-width="1" fill="none" transform="matrix(0.05 0 0 0.05 -18 -173)" d="M 2621,6207.2 C 2621,6207.2 2445,6252.2 2445,6252.2 C 2445,6252.2 2467,6226.89 2467,6207.2 C 2467,6187.07 2445,6161.2 2445,6161.2 C 2445,6161.2 2621,6207.2 2621,6207.2 C 2621,6207.2 2621,6207.2 2621,6207.2 " />
<text x="0" y="0" stroke="none" fill="#000000" transform="matrix(0.05 0 0 0.05 118.149 149.312)" font-style="normal" font-weight="normal" font-size="200px" font-family="Arial" >
MeO</text>
<path stroke="none" fill="#000000" transform="matrix(0.05 0 0 0.05 -18 -173)" d="M 3327.8,6508.88 L 3327.84,6529.24 L 3164.58,6434.41 L 3173.38,6419.17 L 3327.8,6508.88 Z " />
<path stroke="none" fill="#000000" transform="matrix(0.05 0 0 0.05 -18 -173)" d="M 3327.84,6529.24 L 3327.8,6508.88 L 3569.08,6369.58 L 3577.4,6374.6 L 3577.62,6384.3 L 3327.84,6529.24 Z " />
<text x="0" y="0" stroke="none" fill="#000000" transform="matrix(0.05 0 0 0.05 170.015 156.502)" font-style="normal" font-weight="normal" font-size="200px" font-family="Arial" >
Ph</text>
<path stroke="none" fill="#000000" transform="matrix(0.05 0 0 0.05 -18 -173)" d="M 3577.62,6384.3 L 3577.4,6374.6 L 3585.75,6369.81 L 3734.21,6454.79 L 3725.42,6470.04 L 3577.62,6384.3 Z " />
<text x="0" y="0" stroke="none" fill="#000000" transform="matrix(0.05 0 0 0.05 157.259 134.912)" font-style="normal" font-weight="normal" font-size="200px" font-family="Arial" >
N</text>
<path stroke="none" fill="#000000" transform="matrix(0.05 0 0 0.05 -18 -173)" d="M 3585.75,6369.81 L 3577.4,6374.6 L 3569.08,6369.58 L 3568.6,6189.02 L 3586.2,6189.02 L 3585.75,6369.81 Z " />
<path stroke="none" fill="#000000" transform="matrix(0.05 0 0 0.05 -18 -173)" d="M 3534.36,6344.67 L 3516.76,6344.67 L 3516.76,6189.02 L 3534.36,6189.02 L 3534.36,6344.67 Z " />
<text x="0" y="0" stroke="none" fill="#000000" transform="matrix(0.05 0 0 0.05 171.159 124.152)" font-style="normal" font-weight="normal" font-size="200px" font-family="Arial" >
H</text>
<path stroke="none" fill="#000000" transform="matrix(0.05 0 0 0.05 -18 -173)" d="M 3677.63,6020.14 L 3666.85,6006.23 L 3754.37,5938.48 L 3765.14,5952.39 L 3677.63,6020.14 Z " />
<text x="0" y="0" stroke="none" fill="#000000" transform="matrix(0.05 0 0 0.05 143.719 124.152)" font-style="normal" font-weight="normal" font-size="200px" font-family="Arial" >
H</text>
<path stroke="none" fill="#000000" transform="matrix(0.05 0 0 0.05 -18 -173)" d="M 3486.32,6002.98 L 3475.37,6016.76 L 3395.16,5953.02 L 3406.11,5939.24 L 3486.32,6002.98 Z " />
<path stroke="#000000" stroke-width="14" fill="none" transform="matrix(0.05 0 0 0.05 -18 -173)" d="M 3516.09,5921.73 A 74.0399,74.0399 0 1 0 3664.17,5921.73A 74.0399,74.0399 0 1 0 3516.09,5921.73Z " />
<path stroke="none" fill="#000000" transform="matrix(0.05 0 0 0.05 -18 -173)" d="M 3547.67,5914.4 L 3631.93,5914.4 L 3631.93,5928.4 L 3547.67,5928.4 Z " />
<path stroke="none" fill="#000000" transform="matrix(0.05 0 0 0.05 -18 -173)" d="M 3596.8,5879.27 L 3596.8,5963.53 L 3582.8,5963.53 L 3582.8,5879.27 Z " />
<text x="0" y="0" stroke="none" fill="#000000" transform="matrix(0.05 0 0 0.05 148.599 181.162)" font-style="normal" font-weight="normal" font-size="200px" font-family="Arial" >
H</text>
<text x="0" y="0" stroke="none" fill="#000000" transform="matrix(0.05 0 0 0.05 155.821 183.281)" font-style="normal" font-weight="normal" font-size="150px" font-family="Arial" >
2</text>
<text x="0" y="0" stroke="none" fill="#000000" transform="matrix(0.05 0 0 0.05 159.992 181.162)" font-style="normal" font-weight="normal" font-size="200px" font-family="Arial" >
O</text>
<path stroke="none" fill="#000000" transform="matrix(0.05 0 0 0.05 -18 -173)" d="M 3648.72,6882.6 A 16.68,16.68 0 1 0 3682.08,6882.6A 16.68,16.68 0 1 0 3648.72,6882.6Z " />
<path stroke="none" fill="#000000" transform="matrix(0.05 0 0 0.05 -18 -173)" d="M 3573.72,6885.6 A 16.68,16.68 0 1 0 3607.08,6885.6A 16.68,16.68 0 1 0 3573.72,6885.6Z " />
<path stroke="#000000" stroke-width="18" fill="none" transform="matrix(0.05 0 0 0.05 -18 -173)" d="M 3626.6,6862.2 C 3626.6,6862.2 3689,6773.4 3617,6533.4 " />
<path stroke="none" fill="#000000" transform="matrix(0.05 0 0 0.05 -18 -173)" d="M 3665.47,6541.83 L 3617,6533.4 L 3581.18,6567.12 L 3582.86,6419.61 Z " />
<path stroke="#000000" stroke-width="18" fill="none" transform="matrix(0.05 0 0 0.05 -18 -173)" d="M 3478.8,6295.4 C 3478.8,6295.4 3055.2,6284.6 3394.2,6133.6 " />
<path stroke="none" fill="#000000" transform="matrix(0.05 0 0 0.05 -18 -173)" d="M 3392.01,6182.74 L 3394.2,6133.6 L 3356.2,6102.36 L 3502.72,6085.26 Z " />
<path stroke="none" fill="#000000" transform="matrix(0.05 0 0 0.05 -18 -173)" d="M 4684.2,6216.2 L 4109,6216.2 L 4109,6198.2 L 4684.2,6198.2 Z " />
<path stroke="none" fill="#000000" transform="matrix(0.05 0 0 0.05 -18 -173)" d="M 4837.2,6207.2 C 4837.2,6207.2 4661.2,6252.2 4661.2,6252.2 C 4661.2,6252.2 4683.2,6226.89 4683.2,6207.2 C 4683.2,6187.07 4661.2,6161.2 4661.2,6161.2 C 4661.2,6161.2 4837.2,6207.2 4837.2,6207.2 C 4837.2,6207.2 4837.2,6207.2 4837.2,6207.2 " />
<path stroke="#000000" stroke-width="1" fill="none" transform="matrix(0.05 0 0 0.05 -18 -173)" d="M 4837.2,6207.2 C 4837.2,6207.2 4661.2,6252.2 4661.2,6252.2 C 4661.2,6252.2 4683.2,6226.89 4683.2,6207.2 C 4683.2,6187.07 4661.2,6161.2 4661.2,6161.2 C 4661.2,6161.2 4837.2,6207.2 4837.2,6207.2 C 4837.2,6207.2 4837.2,6207.2 4837.2,6207.2 " />
<text x="0" y="0" stroke="none" fill="#000000" transform="matrix(0.05 0 0 0.05 230.869 146.922)" font-style="normal" font-weight="normal" font-size="200px" font-family="Arial" >
MeO</text>
<path stroke="none" fill="#000000" transform="matrix(0.05 0 0 0.05 -18 -173)" d="M 5582.2,6461.08 L 5582.24,6481.44 L 5419.42,6386.86 L 5428.22,6371.62 L 5582.2,6461.08 Z " />
<path stroke="none" fill="#000000" transform="matrix(0.05 0 0 0.05 -18 -173)" d="M 5582.24,6481.44 L 5582.2,6461.08 L 5818.92,6324.79 L 5831.8,6326.8 L 5832.02,6336.5 L 5582.24,6481.44 Z " />
<text x="0" y="0" stroke="none" fill="#000000" transform="matrix(0.05 0 0 0.05 282.725 154.122)" font-style="normal" font-weight="normal" font-size="200px" font-family="Arial" >
Ph</text>
<path stroke="none" fill="#000000" transform="matrix(0.05 0 0 0.05 -18 -173)" d="M 5832.02,6336.5 L 5831.8,6326.8 L 5844.5,6325.15 L 5988.01,6406.83 L 5979.21,6422.07 L 5832.02,6336.5 Z " />
<text x="0" y="0" stroke="none" fill="#000000" transform="matrix(0.05 0 0 0.05 279.881 136.742)" font-style="normal" font-weight="normal" font-size="200px" font-family="Arial" >
O</text>
<path stroke="none" fill="#000000" transform="matrix(0.05 0 0 0.05 -18 -173)" d="M 5844.5,6325.15 L 5831.8,6326.8 L 5831.75,6315.5 L 5953.92,6192.24 L 5966.36,6204.68 L 5844.5,6325.15 Z " />
<text x="0" y="0" stroke="none" fill="#000000" transform="matrix(0.05 0 0 0.05 248.406 136.742)" font-style="normal" font-weight="normal" font-size="200px" font-family="Arial" >
H</text>
<text x="0" y="0" stroke="none" fill="#000000" transform="matrix(0.05 0 0 0.05 255.628 138.861)" font-style="normal" font-weight="normal" font-size="150px" font-family="Arial" >
2</text>
<text x="0" y="0" stroke="none" fill="#000000" transform="matrix(0.05 0 0 0.05 259.799 136.742)" font-style="normal" font-weight="normal" font-size="200px" font-family="Arial" >
N</text>
<path stroke="none" fill="#000000" transform="matrix(0.05 0 0 0.05 -18 -173)" d="M 5831.75,6315.5 L 5831.8,6326.8 L 5818.92,6324.79 L 5707.78,6215.23 L 5720.23,6202.78 L 5831.75,6315.5 Z " />
<text x="0" y="0" stroke="none" fill="#000000" transform="matrix(0.05 0 0 0.05 297.459 136.742)" font-style="normal" font-weight="normal" font-size="200px" font-family="Arial" >
H</text>
<path stroke="none" fill="#000000" transform="matrix(0.05 0 0 0.05 -18 -173)" d="M 6135.28,6132 L 6135.28,6114.4 L 6292.2,6114.4 L 6292.2,6132 L 6135.28,6132 Z " />
<text x="0" y="0" stroke="none" fill="#000000" transform="matrix(0.05 0 0 0.05 275.469 118.972)" font-style="normal" font-weight="normal" font-size="200px" font-family="Arial" >
H</text>
<path stroke="none" fill="#000000" transform="matrix(0.05 0 0 0.05 -18 -173)" d="M 6016.76,6018.07 L 5999.74,6022.56 L 5962.51,5881.52 L 5979.53,5877.03 L 6016.76,6018.07 Z " />
<path stroke="#000000" stroke-width="14" fill="none" transform="matrix(0.05 0 0 0.05 -18 -173)" d="M 6046.49,6251.33 A 74.0399,74.0399 0 1 0 6194.57,6251.33A 74.0399,74.0399 0 1 0 6046.49,6251.33Z " />
<path stroke="none" fill="#000000" transform="matrix(0.05 0 0 0.05 -18 -173)" d="M 6078.07,6244 L 6162.33,6244 L 6162.33,6258 L 6078.07,6258 Z " />
<path stroke="none" fill="#000000" transform="matrix(0.05 0 0 0.05 -18 -173)" d="M 6127.2,6208.87 L 6127.2,6293.13 L 6113.2,6293.13 L 6113.2,6208.87 Z " />
<path stroke="#000000" stroke-width="18" fill="none" transform="matrix(0.05 0 0 0.05 -18 -173)" d="M 6012.8,5916.4 C 6012.8,5916.4 6474.6,5760.2 6189.8,5995 " />
<path stroke="none" fill="#000000" transform="matrix(0.05 0 0 0.05 -18 -173)" d="M 6178.77,5947.06 L 6189.8,5995 L 6234.77,6014.94 L 6098.16,6070.6 Z " />
<path stroke="none" fill="#000000" transform="matrix(0.05 0 0 0.05 -18 -173)" d="M 7268.4,6226.6 L 6640.4,6226.6 L 6640.4,6208.6 L 7268.4,6208.6 Z " />
<path stroke="none" fill="#000000" transform="matrix(0.05 0 0 0.05 -18 -173)" d="M 7421.4,6217.6 C 7421.4,6217.6 7245.4,6262.6 7245.4,6262.6 C 7245.4,6262.6 7267.4,6237.29 7267.4,6217.6 C 7267.4,6197.47 7245.4,6171.6 7245.4,6171.6 C 7245.4,6171.6 7421.4,6217.6 7421.4,6217.6 C 7421.4,6217.6 7421.4,6217.6 7421.4,6217.6 " />
<path stroke="#000000" stroke-width="1" fill="none" transform="matrix(0.05 0 0 0.05 -18 -173)" d="M 7421.4,6217.6 C 7421.4,6217.6 7245.4,6262.6 7245.4,6262.6 C 7245.4,6262.6 7267.4,6237.29 7267.4,6217.6 C 7267.4,6197.47 7245.4,6171.6 7245.4,6171.6 C 7245.4,6171.6 7421.4,6217.6 7421.4,6217.6 C 7421.4,6217.6 7421.4,6217.6 7421.4,6217.6 " />
<text x="0" y="0" stroke="none" fill="#000000" transform="matrix(0.05 0 0 0.05 362.589 145.532)" font-style="normal" font-weight="normal" font-size="200px" font-family="Arial" >
MeO</text>
<path stroke="none" fill="#000000" transform="matrix(0.05 0 0 0.05 -18 -173)" d="M 8216.6,6433.28 L 8216.64,6453.64 L 8053.38,6358.81 L 8062.18,6343.57 L 8216.6,6433.28 Z " />
<path stroke="none" fill="#000000" transform="matrix(0.05 0 0 0.05 -18 -173)" d="M 8216.64,6453.64 L 8216.6,6433.28 L 8453.32,6296.99 L 8466.2,6299 L 8466.42,6308.7 L 8216.64,6453.64 Z " />
<text x="0" y="0" stroke="none" fill="#000000" transform="matrix(0.05 0 0 0.05 414.445 152.732)" font-style="normal" font-weight="normal" font-size="200px" font-family="Arial" >
Ph</text>
<path stroke="none" fill="#000000" transform="matrix(0.05 0 0 0.05 -18 -173)" d="M 8466.42,6308.7 L 8466.2,6299 L 8478.91,6297.36 L 8622.09,6378.85 L 8613.29,6394.09 L 8466.42,6308.7 Z " />
<text x="0" y="0" stroke="none" fill="#000000" transform="matrix(0.05 0 0 0.05 411.611 135.352)" font-style="normal" font-weight="normal" font-size="200px" font-family="Arial" >
OH</text>
<path stroke="none" fill="#000000" transform="matrix(0.05 0 0 0.05 -18 -173)" d="M 8478.91,6297.36 L 8466.2,6299 L 8466.14,6287.7 L 8588.99,6163.9 L 8601.42,6176.35 L 8478.91,6297.36 Z " />
<text x="0" y="0" stroke="none" fill="#000000" transform="matrix(0.05 0 0 0.05 380.126 135.352)" font-style="normal" font-weight="normal" font-size="200px" font-family="Arial" >
H</text>
<text x="0" y="0" stroke="none" fill="#000000" transform="matrix(0.05 0 0 0.05 387.348 137.471)" font-style="normal" font-weight="normal" font-size="150px" font-family="Arial" >
2</text>
<text x="0" y="0" stroke="none" fill="#000000" transform="matrix(0.05 0 0 0.05 391.519 135.352)" font-style="normal" font-weight="normal" font-size="200px" font-family="Arial" >
N</text>
<path stroke="none" fill="#000000" transform="matrix(0.05 0 0 0.05 -18 -173)" d="M 8466.14,6287.7 L 8466.2,6299 L 8453.32,6296.99 L 8342.68,6187.93 L 8355.13,6175.48 L 8466.14,6287.7 Z " />
<path stroke="none" fill="#000000" transform="matrix(0.05 0 0 0.05 -18 -173)" d="M 1201.8,8062 L 573.8,8062 L 573.8,8044 L 1201.8,8044 Z " />
<path stroke="none" fill="#000000" transform="matrix(0.05 0 0 0.05 -18 -173)" d="M 1354.8,8053 C 1354.8,8053 1178.8,8098 1178.8,8098 C 1178.8,8098 1200.8,8072.69 1200.8,8053 C 1200.8,8032.88 1178.8,8007 1178.8,8007 C 1178.8,8007 1354.8,8053 1354.8,8053 C 1354.8,8053 1354.8,8053 1354.8,8053 " />
<path stroke="#000000" stroke-width="1" fill="none" transform="matrix(0.05 0 0 0.05 -18 -173)" d="M 1354.8,8053 C 1354.8,8053 1178.8,8098 1178.8,8098 C 1178.8,8098 1200.8,8072.69 1200.8,8053 C 1200.8,8032.88 1178.8,8007 1178.8,8007 C 1178.8,8007 1354.8,8053 1354.8,8053 C 1354.8,8053 1354.8,8053 1354.8,8053 " />
<text x="0" y="0" stroke="none" fill="#000000" transform="matrix(0.05 0 0 0.05 65.2592 235.122)" font-style="normal" font-weight="normal" font-size="200px" font-family="Arial" >
MeO</text>
<path stroke="none" fill="#000000" transform="matrix(0.05 0 0 0.05 -18 -173)" d="M 2295.05,8254.61 L 2295.07,8275.48 L 2105.02,8154.56 L 2114.44,8139.69 L 2295.05,8254.61 Z " />
<path stroke="none" fill="#000000" transform="matrix(0.05 0 0 0.05 -18 -173)" d="M 2295.07,8275.48 L 2295.05,8254.61 L 2556.91,8088.91 L 2569.4,8090.8 L 2569.36,8100.9 L 2295.07,8275.48 Z " />
<text x="0" y="0" stroke="none" fill="#000000" transform="matrix(0.05 0 0 0.05 121.635 244.972)" font-style="normal" font-weight="normal" font-size="200px" font-family="Arial" >
Ph</text>
<path stroke="none" fill="#000000" transform="matrix(0.05 0 0 0.05 -18 -173)" d="M 2569.36,8100.9 L 2569.4,8090.8 L 2581.64,8089.32 L 2768.37,8215.33 L 2758.48,8229.88 L 2569.36,8100.9 Z " />
<text x="0" y="0" stroke="none" fill="#000000" transform="matrix(0.05 0 0 0.05 117.781 222.762)" font-style="normal" font-weight="normal" font-size="200px" font-family="Arial" >
OH</text>
<path stroke="none" fill="#000000" transform="matrix(0.05 0 0 0.05 -18 -173)" d="M 2581.64,8089.32 L 2569.4,8090.8 L 2569.36,8078.76 L 2715.12,7916.88 L 2728.16,7928.7 L 2581.64,8089.32 Z " />
<text x="0" y="0" stroke="none" fill="#000000" transform="matrix(0.05 0 0 0.05 84.2663 222.762)" font-style="normal" font-weight="normal" font-size="200px" font-family="Arial" >
H</text>
<text x="0" y="0" stroke="none" fill="#000000" transform="matrix(0.05 0 0 0.05 91.488 224.881)" font-style="normal" font-weight="normal" font-size="150px" font-family="Arial" >
3</text>
<text x="0" y="0" stroke="none" fill="#000000" transform="matrix(0.05 0 0 0.05 95.6591 222.762)" font-style="normal" font-weight="normal" font-size="200px" font-family="Arial" >
N</text>
<path stroke="none" fill="#000000" transform="matrix(0.05 0 0 0.05 -18 -173)" d="M 2569.36,8078.76 L 2569.4,8090.8 L 2556.91,8088.91 L 2420.63,7939.73 L 2433.67,7927.91 L 2569.36,8078.76 Z " />
<path stroke="#000000" stroke-width="14" fill="none" transform="matrix(0.05 0 0 0.05 -18 -173)" d="M 2258.03,7630.67 A 80.0399,80.0399 0 1 0 2418.11,7630.67A 80.0399,80.0399 0 1 0 2258.03,7630.67Z " />
<path stroke="none" fill="#000000" transform="matrix(0.05 0 0 0.05 -18 -173)" d="M 2292.93,7624 L 2383.87,7624 L 2383.87,7638 L 2292.93,7638 Z " />
<path stroke="none" fill="#000000" transform="matrix(0.05 0 0 0.05 -18 -173)" d="M 2345.4,7585.53 L 2345.4,7676.47 L 2331.4,7676.47 L 2331.4,7585.53 Z " />
<path stroke="#000000" stroke-width="18" fill="none" transform="matrix(0.05 0 0 0.05 -18 -173)" d="M 2849,7930.8 C 2849,7930.8 2995.8,8216.8 2740.8,8070 " />
<path stroke="none" fill="#000000" transform="matrix(0.05 0 0 0.05 -18 -173)" d="M 2781.83,8042.86 L 2740.8,8070 L 2737.9,8119.11 L 2637.86,8010.69 Z " />
<path stroke="#000000" stroke-width="18" fill="none" transform="matrix(0.05 0 0 0.05 -18 -173)" d="M 2478.2,8008 C 2478.2,8008 2192.4,8324.8 2300.4,7992.6 " />
<path stroke="none" fill="#000000" transform="matrix(0.05 0 0 0.05 -18 -173)" d="M 2335.42,8027.14 L 2300.4,7992.6 L 2251.75,7999.89 L 2337.19,7879.64 Z " />
<path stroke="none" fill="#000000" transform="matrix(0.05 0 0 0.05 -18 -173)" d="M 3955.4,8062 L 3235.4,8062 L 3235.4,8044 L 3955.4,8044 Z " />
<path stroke="none" fill="#000000" transform="matrix(0.05 0 0 0.05 -18 -173)" d="M 4108.4,8053 C 4108.4,8053 3932.4,8098 3932.4,8098 C 3932.4,8098 3954.4,8072.69 3954.4,8053 C 3954.4,8032.88 3932.4,8007 3932.4,8007 C 3932.4,8007 4108.4,8053 4108.4,8053 C 4108.4,8053 4108.4,8053 4108.4,8053 " />
<path stroke="#000000" stroke-width="1" fill="none" transform="matrix(0.05 0 0 0.05 -18 -173)" d="M 4108.4,8053 C 4108.4,8053 3932.4,8098 3932.4,8098 C 3932.4,8098 3954.4,8072.69 3954.4,8053 C 3954.4,8032.88 3932.4,8007 3932.4,8007 C 3932.4,8007 4108.4,8053 4108.4,8053 C 4108.4,8053 4108.4,8053 4108.4,8053 " />
<text x="0" y="0" stroke="none" fill="#000000" transform="matrix(0.05 0 0 0.05 203.559 237.822)" font-style="normal" font-weight="normal" font-size="200px" font-family="Arial" >
MeO</text>
<path stroke="none" fill="#000000" transform="matrix(0.05 0 0 0.05 -18 -173)" d="M 5061.05,8308.61 L 5061.07,8329.48 L 4871.02,8208.56 L 4880.44,8193.69 L 5061.05,8308.61 Z " />
<path stroke="none" fill="#000000" transform="matrix(0.05 0 0 0.05 -18 -173)" d="M 5061.07,8329.48 L 5061.05,8308.61 L 5327.01,8139.99 L 5335.4,8144.8 L 5335.64,8154.74 L 5061.07,8329.48 Z " />
<text x="0" y="0" stroke="none" fill="#000000" transform="matrix(0.05 0 0 0.05 260.705 246.902)" font-style="normal" font-weight="normal" font-size="200px" font-family="Arial" >
Ph</text>
<path stroke="none" fill="#000000" transform="matrix(0.05 0 0 0.05 -18 -173)" d="M 5335.64,8154.74 L 5335.4,8144.8 L 5343.66,8139.86 L 5548.47,8261.26 L 5539.47,8276.39 L 5335.64,8154.74 Z " />
<path stroke="none" fill="#000000" transform="matrix(0.05 0 0 0.05 -18 -173)" d="M 6721.4,8062 L 6001.4,8062 L 6001.4,8044 L 6721.4,8044 Z " />
<path stroke="none" fill="#000000" transform="matrix(0.05 0 0 0.05 -18 -173)" d="M 6874.4,8053 C 6874.4,8053 6698.4,8098 6698.4,8098 C 6698.4,8098 6720.4,8072.69 6720.4,8053 C 6720.4,8032.88 6698.4,8007 6698.4,8007 C 6698.4,8007 6874.4,8053 6874.4,8053 C 6874.4,8053 6874.4,8053 6874.4,8053 " />
<path stroke="#000000" stroke-width="1" fill="none" transform="matrix(0.05 0 0 0.05 -18 -173)" d="M 6874.4,8053 C 6874.4,8053 6698.4,8098 6698.4,8098 C 6698.4,8098 6720.4,8072.69 6720.4,8053 C 6720.4,8032.88 6698.4,8007 6698.4,8007 C 6698.4,8007 6874.4,8053 6874.4,8053 C 6874.4,8053 6874.4,8053 6874.4,8053 " />
<text x="0" y="0" stroke="none" fill="#000000" transform="matrix(0.05 0 0 0.05 244.681 223.422)" font-style="normal" font-weight="normal" font-size="200px" font-family="Arial" >
O</text>
<path stroke="none" fill="#000000" transform="matrix(0.05 0 0 0.05 -18 -173)" d="M 5343.66,8139.86 L 5335.4,8144.8 L 5327.01,8139.99 L 5324.09,7964.05 L 5341.69,7963.81 L 5343.66,8139.86 Z " />
<path stroke="none" fill="#000000" transform="matrix(0.05 0 0 0.05 -18 -173)" d="M 5395.64,8114.95 L 5378.04,8115.19 L 5375.93,7963.33 L 5393.53,7963.09 L 5395.64,8114.95 Z " />
<text x="0" y="0" stroke="none" fill="#000000" transform="matrix(0.05 0 0 0.05 259.259 214.122)" font-style="normal" font-weight="normal" font-size="200px" font-family="Arial" >
H</text>
<path stroke="none" fill="#000000" transform="matrix(0.05 0 0 0.05 -18 -173)" d="M 5423.25,7807.56 L 5413.66,7792.81 L 5512.94,7728.24 L 5522.53,7742.99 L 5423.25,7807.56 Z " />
<path stroke="#000000" stroke-width="14" fill="none" transform="matrix(0.05 0 0 0.05 -18 -173)" d="M 5095.29,7750.53 A 74.0399,74.0399 0 1 0 5243.37,7750.53A 74.0399,74.0399 0 1 0 5095.29,7750.53Z " />
<path stroke="none" fill="#000000" transform="matrix(0.05 0 0 0.05 -18 -173)" d="M 5126.87,7743.2 L 5211.13,7743.2 L 5211.13,7757.2 L 5126.87,7757.2 Z " />
<path stroke="none" fill="#000000" transform="matrix(0.05 0 0 0.05 -18 -173)" d="M 5176,7708.07 L 5176,7792.33 L 5162,7792.33 L 5162,7708.07 Z " />
<path stroke="#000000" stroke-width="18" fill="none" transform="matrix(0.05 0 0 0.05 -18 -173)" d="M 5462.8,7708.2 C 5462.8,7708.2 5460.2,7317 5372.2,7659.2 " />
<path stroke="none" fill="#000000" transform="matrix(0.05 0 0 0.05 -18 -173)" d="M 5335.08,7626.91 L 5372.2,7659.2 L 5420.3,7648.88 L 5342.55,7774.24 Z " />
<text x="0" y="0" stroke="none" fill="#000000" transform="matrix(0.05 0 0 0.05 343.259 234.272)" font-style="normal" font-weight="normal" font-size="200px" font-family="Arial" >
MeO</text>
<path stroke="none" fill="#000000" transform="matrix(0.05 0 0 0.05 -18 -173)" d="M 7854.86,8237.61 L 7854.87,8258.48 L 7665,8137.59 L 7674.42,8122.72 L 7854.86,8237.61 Z " />
<path stroke="none" fill="#000000" transform="matrix(0.05 0 0 0.05 -18 -173)" d="M 7854.87,8258.48 L 7854.86,8237.61 L 8129.34,8063.06 L 8129.64,8083.74 L 7854.87,8258.48 Z " />
<text x="0" y="0" stroke="none" fill="#000000" transform="matrix(0.05 0 0 0.05 400.405 243.352)" font-style="normal" font-weight="normal" font-size="200px" font-family="Arial" >
Ph</text>
<path stroke="none" fill="#000000" transform="matrix(0.05 0 0 0.05 -18 -173)" d="M 8129.64,8083.74 L 8129.34,8063.06 L 8342.47,8190.26 L 8333.47,8205.39 L 8129.64,8083.74 Z " />
<text x="0" y="0" stroke="none" fill="#000000" transform="matrix(0.05 0 0 0.05 384.381 219.872)" font-style="normal" font-weight="normal" font-size="200px" font-family="Arial" >
O</text>
<path stroke="none" fill="#000000" transform="matrix(0.05 0 0 0.05 -18 -173)" d="M 8112.5,8089.95 L 8094.9,8090.2 L 8092.17,7893.41 L 8109.77,7893.17 L 8112.5,8089.95 Z " />
<path stroke="none" fill="#000000" transform="matrix(0.05 0 0 0.05 -18 -173)" d="M 8164.34,8089.22 L 8146.74,8089.47 L 8144.01,7892.69 L 8161.61,7892.45 L 8164.34,8089.22 Z " />
<text x="0" y="0" stroke="none" fill="#000000" transform="matrix(0.05 0 0 0.05 103.924 57.384)" font-style="normal" font-weight="bold" font-size="200px" font-family="Arial" >
A</text>
<text x="0" y="0" stroke="none" fill="#000000" transform="matrix(0.05 0 0 0.05 200.416 148.64)" font-style="normal" font-weight="bold" font-size="200px" font-family="Arial" >
B</text>
<text x="0" y="0" stroke="none" fill="#000000" transform="matrix(0.05 0 0 0.05 21.644 242.14)" font-style="normal" font-weight="bold" font-size="200px" font-family="Arial" >
C</text>
<text x="0" y="0" stroke="none" fill="#000000" transform="matrix(0.05 0 0 0.05 159.276 242.14)" font-style="normal" font-weight="bold" font-size="200px" font-family="Arial" >
D</text>
<text x="0" y="0" stroke="none" fill="#000000" transform="matrix(0.05 0 0 0.05 296.16 242.14)" font-style="normal" font-weight="bold" font-size="200px" font-family="Arial" >
E</text>
</svg>
