<?xml version="1.0" standalone="no" ?>
<!DOCTYPE svg PUBLIC "-//W3C//DTD SVG 1.1//EN" "http://www.w3.org/Graphics/SVG/1.1/DTD/svg11.dtd">
<svg width="173px" height="73px" viewBox="0 0 173 73" style="background-color: #ffffff00" xmlns="http://www.w3.org/2000/svg" xmlns:xlink="http://www.w3.org/1999/xlink" version="1.1" >
<text x="0" y="0" stroke="none" fill="#000000" transform="matrix(0.05 0 0 0.05 1.46915 45.1615)" font-style="normal" font-weight="normal" font-size="200px" font-family="Arial" >
R</text>
<text x="0" y="0" stroke="none" fill="#b00004" transform="matrix(0.05 0 0 0.05 19.5908 45.1615)" font-style="normal" font-weight="normal" font-size="200px" font-family="Arial" >
O</text>
<path stroke="none" fill="#000000" transform="matrix(0.05 0 0 0.05 -67 -317)" d="M 1543.11,7177.6 L 1543.11,7165.6 L 1708.48,7165.6 L 1708.48,7177.6 L 1543.11,7177.6 Z " />
<text x="0" y="0" stroke="none" fill="#b00004" transform="matrix(0.05 0 0 0.05 29.6492 59.5415)" font-style="normal" font-weight="normal" font-size="200px" font-family="Arial" >
H</text>
<path stroke="none" fill="#b00004" transform="matrix(0.05 0 0 0.05 -67 -317)" d="M 1864.78,7263.4 L 1874.7,7256.66 L 1940.47,7353.36 L 1930.55,7360.11 L 1864.78,7263.4 Z " />
<text x="0" y="0" stroke="none" fill="#000000" transform="matrix(0.05 0 0 0.05 60.5292 46.6015)" font-style="normal" font-weight="normal" font-size="200px" font-family="Arial" >
H</text>
<path stroke="none" fill="#000000" transform="matrix(0.05 0 0 0.05 -67 -317)" d="M 2710.04,7102 L 2776.36,7102 L 2776.36,7112 L 2710.04,7112 Z " />
<path stroke="none" fill="#000000" transform="matrix(0.05 0 0 0.05 -67 -317)" d="M 2748.2,7073.84 L 2748.2,7140.16 L 2738.2,7140.16 L 2738.2,7073.84 Z " />
<text x="0" y="0" stroke="none" fill="#000000" transform="matrix(0.05 0 0 0.05 118.239 45.1615)" font-style="normal" font-weight="normal" font-size="200px" font-family="Arial" >
R</text>
<text x="0" y="0" stroke="none" fill="#1159ae" transform="matrix(0.05 0 0 0.05 135.901 45.1615)" font-style="normal" font-weight="normal" font-size="200px" font-family="Arial" >
O</text>
<path stroke="none" fill="#000000" transform="matrix(0.05 0 0 0.05 -67 -317)" d="M 3878.51,7177.6 L 3878.51,7165.6 L 4035.68,7165.6 L 4035.68,7177.6 L 3878.51,7177.6 Z " />
<text x="0" y="0" stroke="none" fill="#1159ae" transform="matrix(0.05 0 0 0.05 148.569 31.0815)" font-style="normal" font-weight="normal" font-size="200px" font-family="Arial" >
H</text>
<path stroke="none" fill="#1159ae" transform="matrix(0.05 0 0 0.05 -67 -317)" d="M 4210.28,7096.04 L 4201.27,7088.12 L 4298.07,6978.11 L 4307.08,6986.04 L 4210.28,7096.04 Z " />
<text x="0" y="0" stroke="none" fill="#1159ae" transform="matrix(0.05 0 0 0.05 147.489 60.3215)" font-style="normal" font-weight="normal" font-size="200px" font-family="Arial" >
H</text>
<path stroke="none" fill="#1159ae" transform="matrix(0.05 0 0 0.05 -67 -317)" d="M 4195.25,7261.32 L 4204.86,7254.14 L 4292.43,7371.52 L 4282.82,7378.69 L 4195.25,7261.32 Z " />
<path stroke="none" fill="#000000" transform="matrix(0.05 0 0 0.05 -67 -317)" d="M 3398.8,7161 L 2992.6,7161 L 2992.6,7149 L 3398.8,7149 Z " />
<path stroke="none" fill="#000000" transform="matrix(0.05 0 0 0.05 -67 -317)" d="M 3078.6,7185 L 3484.8,7185 L 3484.8,7197 L 3078.6,7197 Z " />
<path stroke="none" fill="#000000" transform="matrix(0.05 0 0 0.05 -67 -317)" d="M 3502.8,7161 C 3502.8,7161 3397.8,7161 3397.8,7161 C 3397.8,7141 3382.8,7123 3382.8,7123 C 3382.8,7123 3502.8,7161 3502.8,7161 C 3502.8,7161 3502.8,7161 3502.8,7161 " />
<path stroke="#000000" stroke-width="1" fill="none" transform="matrix(0.05 0 0 0.05 -67 -317)" d="M 3502.8,7161 C 3502.8,7161 3397.8,7161 3397.8,7161 C 3397.8,7141 3382.8,7123 3382.8,7123 C 3382.8,7123 3502.8,7161 3502.8,7161 C 3502.8,7161 3502.8,7161 3502.8,7161 " />
<path stroke="none" fill="#000000" transform="matrix(0.05 0 0 0.05 -67 -317)" d="M 2974.6,7185 C 2974.6,7185 3094.6,7223 3094.6,7223 C 3094.6,7223 3079.6,7193 3079.6,7185 C 3079.6,7185 2974.6,7185 2974.6,7185 C 2974.6,7185 2974.6,7185 2974.6,7185 " />
<path stroke="#000000" stroke-width="1" fill="none" transform="matrix(0.05 0 0 0.05 -67 -317)" d="M 2974.6,7185 C 2974.6,7185 3094.6,7223 3094.6,7223 C 3094.6,7223 3079.6,7193 3079.6,7185 C 3079.6,7185 2974.6,7185 2974.6,7185 C 2974.6,7185 2974.6,7185 2974.6,7185 " />
<text x="0" y="0" stroke="none" fill="#000000" transform="matrix(0.05 0 0 0.05 45.24 45.17)" font-style="normal" font-weight="normal" font-size="200px" font-family="Arial" >
+</text>
<path stroke="none" fill="#1159ae" transform="matrix(0.05 0 0 0.05 -67 -317)" d="M 4223.27,7166 L 4301.93,7166 L 4301.93,7176 L 4223.27,7176 Z " />
<path stroke="none" fill="#1159ae" transform="matrix(0.05 0 0 0.05 -67 -317)" d="M 4267.6,7131.67 L 4267.6,7210.33 L 4257.6,7210.33 L 4257.6,7131.67 Z " />
<text x="0" y="0" stroke="none" fill="#000000" transform="matrix(0.05 0 0 0.05 14.4998 69.7561)" font-style="normal" font-weight="normal" font-size="160px" font-family="PingFang SC" >
醇</text>
<text x="0" y="0" stroke="none" fill="#000000" transform="matrix(0.05 0 0 0.05 110.191 69.8201)" font-style="normal" font-weight="normal" font-size="160px" font-family="PingFang SC" >
烷氧基氧鎓离子</text>
<text x="0" y="0" stroke="none" fill="#b00004" transform="matrix(0.05 0 0 0.05 14.4998 8.16739)" font-style="normal" font-weight="normal" font-size="140px" font-family="PingFang SC" >
差的离去基</text>
<text x="0" y="0" stroke="none" fill="#b00004" transform="matrix(0.05 0 0 0.05 14.4998 18.0174)" font-style="normal" font-weight="normal" font-size="140px" font-family="PingFang SC" >
团：羟基</text>
<text x="0" y="0" stroke="none" fill="#1159ae" transform="matrix(0.05 0 0 0.05 135.736 8.18839)" font-style="normal" font-weight="normal" font-size="140px" font-family="PingFang SC" >
好的离去基</text>
<text x="0" y="0" stroke="none" fill="#1159ae" transform="matrix(0.05 0 0 0.05 135.736 18.0384)" font-style="normal" font-weight="normal" font-size="140px" font-family="PingFang SC" >
团：</text>
<text x="0" y="0" stroke="none" fill="#1159ae" transform="matrix(0.05 0 0 0.05 149.736 18.0384)" font-style="normal" font-weight="normal" font-size="140px" font-family="Arial" >
H</text>
<text x="0" y="0" stroke="none" fill="#1159ae" transform="matrix(0.05 0 0 0.05 154.791 19.5218)" font-style="normal" font-weight="normal" font-size="105px" font-family="Arial" >
2</text>
<text x="0" y="0" stroke="none" fill="#1159ae" transform="matrix(0.05 0 0 0.05 157.711 18.0384)" font-style="normal" font-weight="normal" font-size="140px" font-family="Arial" >
O</text>
<path stroke="#000000" stroke-width="12" fill="none" transform="matrix(0.05 0 0 0.05 -67 -317)" d="M 1840.84,7039.58 C 1840.84,7039.58 2345.56,6512.46 2590.27,7023.36 " />
<path stroke="none" fill="#000000" transform="matrix(0.05 0 0 0.05 -67 -317)" d="M 2556.73,7022.79 L 2590.27,7023.36 L 2610.84,6996.87 L 2625.26,7096.41 Z " />
</svg>
