<?xml version="1.0" standalone="no" ?>
<!DOCTYPE svg PUBLIC "-//W3C//DTD SVG 1.1//EN" "http://www.w3.org/Graphics/SVG/1.1/DTD/svg11.dtd">
<svg width="427px" height="163px" viewBox="0 0 427 163" style="background-color: #ffffff00" xmlns="http://www.w3.org/2000/svg" xmlns:xlink="http://www.w3.org/1999/xlink" version="1.1" >
<path stroke="none" fill="#000000" transform="matrix(0.05 0 0 0.05 -63 -200)" d="M 1303.81,4920.99 L 1321.44,4931.16 L 1321.44,5209.36 L 1303.81,5219.53 L 1303.81,4920.99 Z " />
<path stroke="none" fill="#000000" transform="matrix(0.05 0 0 0.05 -63 -200)" d="M 1355.98,4956.18 L 1373.58,4956.18 L 1373.58,5184.33 L 1355.98,5184.33 L 1355.98,4956.18 Z " />
<path stroke="none" fill="#000000" transform="matrix(0.05 0 0 0.05 -63 -200)" d="M 1303.81,5219.53 L 1321.44,5209.36 L 1562.35,5348.46 L 1562.35,5368.8 L 1303.81,5219.53 Z " />
<path stroke="none" fill="#000000" transform="matrix(0.05 0 0 0.05 -63 -200)" d="M 1562.35,5368.8 L 1562.35,5348.46 L 1803.26,5209.36 L 1820.88,5219.53 L 1562.35,5368.8 Z " />
<path stroke="none" fill="#000000" transform="matrix(0.05 0 0 0.05 -63 -200)" d="M 1566.75,5306.03 L 1557.95,5290.79 L 1755.52,5176.72 L 1764.32,5191.96 L 1566.75,5306.03 Z " />
<path stroke="none" fill="#000000" transform="matrix(0.05 0 0 0.05 -63 -200)" d="M 1820.88,5219.53 L 1803.26,5209.36 L 1803.26,4931.16 L 1811.76,4926.25 L 1820.26,4931.16 L 1820.88,5219.53 Z " />
<path stroke="none" fill="#000000" transform="matrix(0.05 0 0 0.05 -63 -200)" d="M 1811.76,4916.44 L 1811.76,4926.25 L 1803.26,4931.16 L 1562.35,4792.06 L 1562.35,4771.71 L 1811.76,4916.44 Z " />
<path stroke="none" fill="#000000" transform="matrix(0.05 0 0 0.05 -63 -200)" d="M 1764.32,4948.56 L 1755.52,4963.8 L 1557.95,4849.73 L 1566.75,4834.48 L 1764.32,4948.56 Z " />
<path stroke="none" fill="#000000" transform="matrix(0.05 0 0 0.05 -63 -200)" d="M 1562.35,4771.71 L 1562.35,4792.06 L 1321.44,4931.16 L 1303.81,4920.99 L 1562.35,4771.71 Z " />
<path stroke="none" fill="#000000" transform="matrix(0.05 0 0 0.05 -63 -200)" d="M 1820.26,4931.16 L 1811.76,4926.25 L 1811.76,4916.44 L 2061.33,4771.6 L 2061.37,4791.96 L 1820.26,4931.16 Z " />
<text x="0" y="0" stroke="none" fill="#000000" transform="matrix(0.05 0 0 0.05 48.6399 49.8941)" font-style="normal" font-weight="normal" font-size="200px" font-family="Arial" >
OH</text>
<path stroke="none" fill="#000000" transform="matrix(0.05 0 0 0.05 -63 -200)" d="M 2061.37,4791.96 L 2061.33,4771.6 L 2224.7,4866.5 L 2215.9,4881.74 L 2061.37,4791.96 Z " />
<text x="0" y="0" stroke="none" fill="#000000" transform="matrix(0.05 0 0 0.05 36.1693 28.2931)" font-style="normal" font-weight="normal" font-size="200px" font-family="Arial" >
O</text>
<path stroke="none" fill="#000000" transform="matrix(0.05 0 0 0.05 -63 -200)" d="M 2044.05,4797.21 L 2026.45,4797.21 L 2026.45,4601.38 L 2044.05,4601.38 L 2044.05,4797.21 Z " />
<path stroke="none" fill="#000000" transform="matrix(0.05 0 0 0.05 -63 -200)" d="M 2095.89,4797.21 L 2078.29,4797.21 L 2078.29,4601.38 L 2095.89,4601.38 L 2095.89,4797.21 Z " />
<path stroke="none" fill="#000000" transform="matrix(0.05 0 0 0.05 -63 -200)" d="M 3698.21,4920.99 L 3715.84,4931.16 L 3715.84,5209.36 L 3698.21,5219.53 L 3698.21,4920.99 Z " />
<path stroke="none" fill="#000000" transform="matrix(0.05 0 0 0.05 -63 -200)" d="M 3750.38,4956.18 L 3767.98,4956.18 L 3767.98,5184.33 L 3750.38,5184.33 L 3750.38,4956.18 Z " />
<path stroke="none" fill="#000000" transform="matrix(0.05 0 0 0.05 -63 -200)" d="M 3698.21,5219.53 L 3715.84,5209.36 L 3956.75,5348.46 L 3956.75,5368.8 L 3698.21,5219.53 Z " />
<path stroke="none" fill="#000000" transform="matrix(0.05 0 0 0.05 -63 -200)" d="M 3956.75,5368.8 L 3956.75,5348.46 L 4197.66,5209.36 L 4215.28,5219.53 L 3956.75,5368.8 Z " />
<path stroke="none" fill="#000000" transform="matrix(0.05 0 0 0.05 -63 -200)" d="M 3961.15,5306.03 L 3952.35,5290.79 L 4149.92,5176.72 L 4158.72,5191.96 L 3961.15,5306.03 Z " />
<path stroke="none" fill="#000000" transform="matrix(0.05 0 0 0.05 -63 -200)" d="M 4215.28,5219.53 L 4197.66,5209.36 L 4197.66,4931.16 L 4206.16,4926.25 L 4214.66,4931.16 L 4215.28,5219.53 Z " />
<path stroke="none" fill="#000000" transform="matrix(0.05 0 0 0.05 -63 -200)" d="M 4206.16,4916.44 L 4206.16,4926.25 L 4197.66,4931.16 L 3956.75,4792.06 L 3956.75,4771.71 L 4206.16,4916.44 Z " />
<path stroke="none" fill="#000000" transform="matrix(0.05 0 0 0.05 -63 -200)" d="M 4158.72,4948.56 L 4149.92,4963.8 L 3952.35,4849.73 L 3961.15,4834.48 L 4158.72,4948.56 Z " />
<path stroke="none" fill="#000000" transform="matrix(0.05 0 0 0.05 -63 -200)" d="M 3956.75,4771.71 L 3956.75,4792.06 L 3715.84,4931.16 L 3698.21,4920.99 L 3956.75,4771.71 Z " />
<path stroke="none" fill="#000000" transform="matrix(0.05 0 0 0.05 -63 -200)" d="M 4214.66,4931.16 L 4206.16,4926.25 L 4206.16,4916.44 L 4447.22,4777.24 L 4455.57,4782.24 L 4455.76,4791.96 L 4214.66,4931.16 Z " />
<text x="0" y="0" stroke="none" fill="#000000" transform="matrix(0.05 0 0 0.05 168.36 49.8941)" font-style="normal" font-weight="normal" font-size="200px" font-family="Arial" >
OH</text>
<path stroke="none" fill="#000000" transform="matrix(0.05 0 0 0.05 -63 -200)" d="M 4455.76,4791.96 L 4455.57,4782.24 L 4463.94,4777.45 L 4619.85,4866.93 L 4611.05,4882.18 L 4455.76,4791.96 Z " />
<text x="0" y="0" stroke="none" fill="#000000" transform="matrix(0.05 0 0 0.05 155.889 27.4383)" font-style="normal" font-weight="normal" font-size="200px" font-family="Arial" >
O</text>
<path stroke="none" fill="#000000" transform="matrix(0.05 0 0 0.05 -63 -200)" d="M 6092.61,4920.99 L 6110.24,4931.16 L 6110.24,5209.36 L 6092.61,5219.53 L 6092.61,4920.99 Z " />
<path stroke="none" fill="#000000" transform="matrix(0.05 0 0 0.05 -63 -200)" d="M 6144.78,4956.18 L 6162.38,4956.18 L 6162.38,5184.33 L 6144.78,5184.33 L 6144.78,4956.18 Z " />
<path stroke="none" fill="#000000" transform="matrix(0.05 0 0 0.05 -63 -200)" d="M 6092.61,5219.53 L 6110.24,5209.36 L 6351.15,5348.46 L 6351.15,5368.8 L 6092.61,5219.53 Z " />
<path stroke="none" fill="#000000" transform="matrix(0.05 0 0 0.05 -63 -200)" d="M 6351.15,5368.8 L 6351.15,5348.46 L 6592.06,5209.36 L 6609.68,5219.53 L 6351.15,5368.8 Z " />
<path stroke="none" fill="#000000" transform="matrix(0.05 0 0 0.05 -63 -200)" d="M 6355.55,5306.03 L 6346.75,5290.79 L 6544.32,5176.72 L 6553.12,5191.96 L 6355.55,5306.03 Z " />
<path stroke="none" fill="#000000" transform="matrix(0.05 0 0 0.05 -63 -200)" d="M 6609.68,5219.53 L 6592.06,5209.36 L 6592.06,4931.16 L 6600.56,4926.25 L 6609.06,4931.16 L 6609.68,5219.53 Z " />
<path stroke="none" fill="#000000" transform="matrix(0.05 0 0 0.05 -63 -200)" d="M 6600.56,4916.44 L 6600.56,4926.25 L 6592.06,4931.16 L 6351.15,4792.06 L 6351.15,4771.71 L 6600.56,4916.44 Z " />
<path stroke="none" fill="#000000" transform="matrix(0.05 0 0 0.05 -63 -200)" d="M 6553.12,4948.56 L 6544.32,4963.8 L 6346.75,4849.73 L 6355.55,4834.48 L 6553.12,4948.56 Z " />
<path stroke="none" fill="#000000" transform="matrix(0.05 0 0 0.05 -63 -200)" d="M 6351.15,4771.71 L 6351.15,4792.06 L 6110.24,4931.16 L 6092.61,4920.99 L 6351.15,4771.71 Z " />
<path stroke="none" fill="#000000" transform="matrix(0.05 0 0 0.05 -63 -200)" d="M 6609.06,4931.16 L 6600.56,4926.25 L 6600.56,4916.44 L 6838.43,4779.35 L 6849.97,4782.24 L 6850.16,4791.96 L 6609.06,4931.16 Z " />
<text x="0" y="0" stroke="none" fill="#000000" transform="matrix(0.05 0 0 0.05 288.08 49.8941)" font-style="normal" font-weight="normal" font-size="200px" font-family="Arial" >
OH</text>
<path stroke="none" fill="#000000" transform="matrix(0.05 0 0 0.05 -63 -200)" d="M 6850.16,4791.96 L 6849.97,4782.24 L 6862.7,4780.56 L 7013.5,4866.5 L 7004.69,4881.74 L 6850.16,4791.96 Z " />
<path stroke="none" fill="#000000" transform="matrix(0.05 0 0 0.05 -63 -200)" d="M 8487.01,4920.99 L 8504.64,4931.16 L 8504.64,5209.36 L 8487.01,5219.53 L 8487.01,4920.99 Z " />
<path stroke="none" fill="#000000" transform="matrix(0.05 0 0 0.05 -63 -200)" d="M 8539.18,4956.18 L 8556.78,4956.18 L 8556.78,5184.33 L 8539.18,5184.33 L 8539.18,4956.18 Z " />
<path stroke="none" fill="#000000" transform="matrix(0.05 0 0 0.05 -63 -200)" d="M 8487.01,5219.53 L 8504.64,5209.36 L 8745.55,5348.46 L 8745.55,5368.8 L 8487.01,5219.53 Z " />
<path stroke="none" fill="#000000" transform="matrix(0.05 0 0 0.05 -63 -200)" d="M 8745.55,5368.8 L 8745.55,5348.46 L 8986.46,5209.36 L 9004.08,5219.53 L 8745.55,5368.8 Z " />
<path stroke="none" fill="#000000" transform="matrix(0.05 0 0 0.05 -63 -200)" d="M 8749.95,5306.03 L 8741.15,5290.79 L 8938.72,5176.72 L 8947.52,5191.96 L 8749.95,5306.03 Z " />
<path stroke="none" fill="#000000" transform="matrix(0.05 0 0 0.05 -63 -200)" d="M 9004.08,5219.53 L 8986.46,5209.36 L 8986.46,4931.16 L 8994.96,4926.25 L 9003.46,4931.16 L 9004.08,5219.53 Z " />
<path stroke="none" fill="#000000" transform="matrix(0.05 0 0 0.05 -63 -200)" d="M 8994.96,4916.44 L 8994.96,4926.25 L 8986.46,4931.16 L 8745.55,4792.06 L 8745.55,4771.71 L 8994.96,4916.44 Z " />
<path stroke="none" fill="#000000" transform="matrix(0.05 0 0 0.05 -63 -200)" d="M 8947.52,4948.56 L 8938.72,4963.8 L 8741.15,4849.73 L 8749.95,4834.48 L 8947.52,4948.56 Z " />
<path stroke="none" fill="#000000" transform="matrix(0.05 0 0 0.05 -63 -200)" d="M 8745.55,4771.71 L 8745.55,4792.06 L 8504.64,4931.16 L 8487.01,4920.99 L 8745.55,4771.71 Z " />
<path stroke="none" fill="#000000" transform="matrix(0.05 0 0 0.05 -63 -200)" d="M 9003.46,4931.16 L 8994.96,4926.25 L 8994.96,4916.44 L 9233.3,4779.04 L 9244.37,4782.24 L 9244.56,4791.96 L 9003.46,4931.16 Z " />
<text x="0" y="0" stroke="none" fill="#000000" transform="matrix(0.05 0 0 0.05 407.8 49.8941)" font-style="normal" font-weight="normal" font-size="200px" font-family="Arial" >
OH</text>
<path stroke="none" fill="#000000" transform="matrix(0.05 0 0 0.05 -63 -200)" d="M 9244.56,4791.96 L 9244.37,4782.24 L 9255.33,4779.3 L 9407.89,4866.5 L 9399.09,4881.74 L 9244.56,4791.96 Z " />
<path stroke="none" fill="#000000" transform="matrix(0.05 0 0 0.05 -63 -200)" d="M 2943.81,6757.78 L 2961.44,6767.96 L 2961.44,7046.16 L 2943.81,7056.33 L 2943.81,6757.78 Z " />
<path stroke="none" fill="#000000" transform="matrix(0.05 0 0 0.05 -63 -200)" d="M 2995.98,6792.98 L 3013.58,6792.98 L 3013.58,7021.13 L 2995.98,7021.13 L 2995.98,6792.98 Z " />
<path stroke="none" fill="#000000" transform="matrix(0.05 0 0 0.05 -63 -200)" d="M 2943.81,7056.33 L 2961.44,7046.16 L 3202.35,7185.26 L 3202.35,7205.6 L 2943.81,7056.33 Z " />
<path stroke="none" fill="#000000" transform="matrix(0.05 0 0 0.05 -63 -200)" d="M 3202.35,7205.6 L 3202.35,7185.26 L 3443.26,7046.16 L 3460.88,7056.33 L 3202.35,7205.6 Z " />
<path stroke="none" fill="#000000" transform="matrix(0.05 0 0 0.05 -63 -200)" d="M 3206.75,7142.83 L 3197.95,7127.59 L 3395.52,7013.52 L 3404.32,7028.76 L 3206.75,7142.83 Z " />
<path stroke="none" fill="#000000" transform="matrix(0.05 0 0 0.05 -63 -200)" d="M 3460.88,7056.33 L 3443.26,7046.16 L 3443.26,6767.96 L 3451.76,6763.05 L 3460.26,6767.96 L 3460.88,7056.33 Z " />
<path stroke="none" fill="#000000" transform="matrix(0.05 0 0 0.05 -63 -200)" d="M 3451.76,6753.24 L 3451.76,6763.05 L 3443.26,6767.96 L 3202.35,6628.86 L 3202.35,6608.51 L 3451.76,6753.24 Z " />
<path stroke="none" fill="#000000" transform="matrix(0.05 0 0 0.05 -63 -200)" d="M 3404.32,6785.36 L 3395.52,6800.6 L 3197.95,6686.53 L 3206.75,6671.28 L 3404.32,6785.36 Z " />
<path stroke="none" fill="#000000" transform="matrix(0.05 0 0 0.05 -63 -200)" d="M 3202.35,6608.51 L 3202.35,6628.86 L 2961.44,6767.96 L 2943.81,6757.78 L 3202.35,6608.51 Z " />
<path stroke="none" fill="#000000" transform="matrix(0.05 0 0 0.05 -63 -200)" d="M 3460.26,6767.96 L 3451.76,6763.05 L 3451.76,6753.24 L 3689.27,6616.39 L 3701.17,6619.04 L 3701.23,6628.83 L 3460.26,6767.96 Z " />
<text x="0" y="0" stroke="none" fill="#000000" transform="matrix(0.05 0 0 0.05 131.337 142.431)" font-style="normal" font-weight="normal" font-size="200px" font-family="Arial" >
OH</text>
<text x="0" y="0" stroke="none" fill="#000000" transform="matrix(0.05 0 0 0.05 146.337 144.55)" font-style="normal" font-weight="normal" font-size="150px" font-family="Arial" >
2</text>
<path stroke="none" fill="#000000" transform="matrix(0.05 0 0 0.05 -63 -200)" d="M 3701.23,6628.83 L 3701.17,6619.04 L 3714.73,6618.04 L 3879.51,6715.74 L 3870.46,6730.84 L 3701.23,6628.83 Z " />
<path stroke="none" fill="#000000" transform="matrix(0.05 0 0 0.05 -63 -200)" d="M 5715.41,6757.78 L 5733.04,6767.96 L 5733.04,7046.16 L 5715.41,7056.33 L 5715.41,6757.78 Z " />
<path stroke="none" fill="#000000" transform="matrix(0.05 0 0 0.05 -63 -200)" d="M 5767.58,6792.98 L 5785.18,6792.98 L 5785.18,7021.13 L 5767.58,7021.13 L 5767.58,6792.98 Z " />
<path stroke="none" fill="#000000" transform="matrix(0.05 0 0 0.05 -63 -200)" d="M 5715.41,7056.33 L 5733.04,7046.16 L 5973.95,7185.26 L 5973.95,7205.6 L 5715.41,7056.33 Z " />
<path stroke="none" fill="#000000" transform="matrix(0.05 0 0 0.05 -63 -200)" d="M 5973.95,7205.6 L 5973.95,7185.26 L 6214.86,7046.16 L 6232.48,7056.33 L 5973.95,7205.6 Z " />
<path stroke="none" fill="#000000" transform="matrix(0.05 0 0 0.05 -63 -200)" d="M 5978.35,7142.83 L 5969.55,7127.59 L 6167.12,7013.52 L 6175.92,7028.76 L 5978.35,7142.83 Z " />
<path stroke="none" fill="#000000" transform="matrix(0.05 0 0 0.05 -63 -200)" d="M 6232.48,7056.33 L 6214.86,7046.16 L 6214.86,6767.96 L 6223.36,6763.05 L 6231.86,6767.96 L 6232.48,7056.33 Z " />
<path stroke="none" fill="#000000" transform="matrix(0.05 0 0 0.05 -63 -200)" d="M 6223.36,6753.24 L 6223.36,6763.05 L 6214.86,6767.96 L 5973.95,6628.86 L 5973.95,6608.51 L 6223.36,6753.24 Z " />
<path stroke="none" fill="#000000" transform="matrix(0.05 0 0 0.05 -63 -200)" d="M 6175.92,6785.36 L 6167.12,6800.6 L 5969.55,6686.53 L 5978.35,6671.28 L 6175.92,6785.36 Z " />
<path stroke="none" fill="#000000" transform="matrix(0.05 0 0 0.05 -63 -200)" d="M 5973.95,6608.51 L 5973.95,6628.86 L 5733.04,6767.96 L 5715.41,6757.78 L 5973.95,6608.51 Z " />
<path stroke="none" fill="#000000" transform="matrix(0.05 0 0 0.05 -63 -200)" d="M 6231.86,6767.96 L 6223.36,6763.05 L 6223.36,6753.24 L 6464.46,6614.01 L 6472.77,6619.04 L 6472.96,6628.76 L 6231.86,6767.96 Z " />
<text x="0" y="0" stroke="none" fill="#000000" transform="matrix(0.05 0 0 0.05 269.22 141.734)" font-style="normal" font-weight="normal" font-size="200px" font-family="Arial" >
OEt</text>
<path stroke="none" fill="#000000" transform="matrix(0.05 0 0 0.05 -63 -200)" d="M 6472.96,6628.76 L 6472.77,6619.04 L 6481.1,6614.22 L 6636.3,6703.3 L 6627.49,6718.54 L 6472.96,6628.76 Z " />
<text x="0" y="0" stroke="none" fill="#000000" transform="matrix(0.05 0 0 0.05 256.749 120.133)" font-style="normal" font-weight="normal" font-size="200px" font-family="Arial" >
O</text>
<path stroke="none" fill="#000000" transform="matrix(0.05 0 0 0.05 -63 -200)" d="M 6481.1,6614.22 L 6472.77,6619.04 L 6464.46,6614.01 L 6463.97,6438.18 L 6481.57,6438.18 L 6481.1,6614.22 Z " />
<path stroke="none" fill="#000000" transform="matrix(0.05 0 0 0.05 -63 -200)" d="M 6533.41,6589.11 L 6515.81,6589.11 L 6515.81,6438.18 L 6533.41,6438.18 L 6533.41,6589.11 Z " />
<path stroke="none" fill="#000000" transform="matrix(0.05 0 0 0.05 -63 -200)" d="M 8487.01,6757.78 L 8504.64,6767.96 L 8504.64,7046.16 L 8487.01,7056.33 L 8487.01,6757.78 Z " />
<path stroke="none" fill="#000000" transform="matrix(0.05 0 0 0.05 -63 -200)" d="M 8539.18,6792.98 L 8556.78,6792.98 L 8556.78,7021.13 L 8539.18,7021.13 L 8539.18,6792.98 Z " />
<path stroke="none" fill="#000000" transform="matrix(0.05 0 0 0.05 -63 -200)" d="M 8487.01,7056.33 L 8504.64,7046.16 L 8745.55,7185.26 L 8745.55,7205.6 L 8487.01,7056.33 Z " />
<path stroke="none" fill="#000000" transform="matrix(0.05 0 0 0.05 -63 -200)" d="M 8745.55,7205.6 L 8745.55,7185.26 L 8986.46,7046.16 L 9004.08,7056.33 L 8745.55,7205.6 Z " />
<path stroke="none" fill="#000000" transform="matrix(0.05 0 0 0.05 -63 -200)" d="M 8749.95,7142.83 L 8741.15,7127.59 L 8938.72,7013.52 L 8947.52,7028.76 L 8749.95,7142.83 Z " />
<path stroke="none" fill="#000000" transform="matrix(0.05 0 0 0.05 -63 -200)" d="M 9004.08,7056.33 L 8986.46,7046.16 L 8986.46,6767.96 L 8994.96,6763.05 L 9003.46,6767.96 L 9004.08,7056.33 Z " />
<path stroke="none" fill="#000000" transform="matrix(0.05 0 0 0.05 -63 -200)" d="M 8994.96,6753.24 L 8994.96,6763.05 L 8986.46,6767.96 L 8745.55,6628.86 L 8745.55,6608.51 L 8994.96,6753.24 Z " />
<path stroke="none" fill="#000000" transform="matrix(0.05 0 0 0.05 -63 -200)" d="M 8947.52,6785.36 L 8938.72,6800.6 L 8741.15,6686.53 L 8749.95,6671.28 L 8947.52,6785.36 Z " />
<path stroke="none" fill="#000000" transform="matrix(0.05 0 0 0.05 -63 -200)" d="M 8745.55,6608.51 L 8745.55,6628.86 L 8504.64,6767.96 L 8487.01,6757.78 L 8745.55,6608.51 Z " />
<path stroke="none" fill="#000000" transform="matrix(0.05 0 0 0.05 -63 -200)" d="M 9003.46,6767.96 L 8994.96,6763.05 L 8994.96,6753.24 L 9244.53,6608.4 L 9244.56,6628.76 L 9003.46,6767.96 Z " />
<text x="0" y="0" stroke="none" fill="#000000" transform="matrix(0.05 0 0 0.05 407.8 141.734)" font-style="normal" font-weight="normal" font-size="200px" font-family="Arial" >
OEt</text>
<path stroke="none" fill="#000000" transform="matrix(0.05 0 0 0.05 -63 -200)" d="M 9244.56,6628.76 L 9244.53,6608.4 L 9407.89,6703.3 L 9399.09,6718.54 L 9244.56,6628.76 Z " />
<text x="0" y="0" stroke="none" fill="#000000" transform="matrix(0.05 0 0 0.05 395.329 120.133)" font-style="normal" font-weight="normal" font-size="200px" font-family="Arial" >
O</text>
<path stroke="none" fill="#000000" transform="matrix(0.05 0 0 0.05 -63 -200)" d="M 9227.25,6634.01 L 9209.65,6634.01 L 9209.65,6438.18 L 9227.25,6438.18 L 9227.25,6634.01 Z " />
<path stroke="none" fill="#000000" transform="matrix(0.05 0 0 0.05 -63 -200)" d="M 9279.09,6634.01 L 9261.49,6634.01 L 9261.49,6438.18 L 9279.09,6438.18 L 9279.09,6634.01 Z " />
<path stroke="none" fill="#000000" transform="matrix(0.05 0 0 0.05 -63 -200)" d="M 3416.73,4962.89 L 2703.81,4962.89 L 2703.81,4944.89 L 3416.73,4944.89 Z " />
<path stroke="none" fill="#000000" transform="matrix(0.05 0 0 0.05 -63 -200)" d="M 3569.73,4953.89 C 3569.73,4953.89 3393.73,4998.89 3393.73,4998.89 C 3393.73,4998.89 3415.73,4973.58 3415.73,4953.89 C 3415.73,4933.76 3393.73,4907.89 3393.73,4907.89 C 3393.73,4907.89 3569.73,4953.89 3569.73,4953.89 C 3569.73,4953.89 3569.73,4953.89 3569.73,4953.89 " />
<path stroke="#000000" stroke-width="1" fill="none" transform="matrix(0.05 0 0 0.05 -63 -200)" d="M 3569.73,4953.89 C 3569.73,4953.89 3393.73,4998.89 3393.73,4998.89 C 3393.73,4998.89 3415.73,4973.58 3415.73,4953.89 C 3415.73,4933.76 3393.73,4907.89 3393.73,4907.89 C 3393.73,4907.89 3569.73,4953.89 3569.73,4953.89 C 3569.73,4953.89 3569.73,4953.89 3569.73,4953.89 " />
<path stroke="none" fill="#000000" transform="matrix(0.05 0 0 0.05 -63 -200)" d="M 5791.45,4962.89 L 5078.53,4962.89 L 5078.53,4944.89 L 5791.45,4944.89 Z " />
<path stroke="none" fill="#000000" transform="matrix(0.05 0 0 0.05 -63 -200)" d="M 5944.45,4953.89 C 5944.45,4953.89 5768.45,4998.89 5768.45,4998.89 C 5768.45,4998.89 5790.45,4973.58 5790.45,4953.89 C 5790.45,4933.76 5768.45,4907.89 5768.45,4907.89 C 5768.45,4907.89 5944.45,4953.89 5944.45,4953.89 C 5944.45,4953.89 5944.45,4953.89 5944.45,4953.89 " />
<path stroke="#000000" stroke-width="1" fill="none" transform="matrix(0.05 0 0 0.05 -63 -200)" d="M 5944.45,4953.89 C 5944.45,4953.89 5768.45,4998.89 5768.45,4998.89 C 5768.45,4998.89 5790.45,4973.58 5790.45,4953.89 C 5790.45,4933.76 5768.45,4907.89 5768.45,4907.89 C 5768.45,4907.89 5944.45,4953.89 5944.45,4953.89 C 5944.45,4953.89 5944.45,4953.89 5944.45,4953.89 " />
<path stroke="none" fill="#000000" transform="matrix(0.05 0 0 0.05 -63 -200)" d="M 8179.29,4962.89 L 7466.37,4962.89 L 7466.37,4944.89 L 8179.29,4944.89 Z " />
<path stroke="none" fill="#000000" transform="matrix(0.05 0 0 0.05 -63 -200)" d="M 8332.29,4953.89 C 8332.29,4953.89 8156.29,4998.89 8156.29,4998.89 C 8156.29,4998.89 8178.29,4973.58 8178.29,4953.89 C 8178.29,4933.76 8156.29,4907.89 8156.29,4907.89 C 8156.29,4907.89 8332.29,4953.89 8332.29,4953.89 C 8332.29,4953.89 8332.29,4953.89 8332.29,4953.89 " />
<path stroke="#000000" stroke-width="1" fill="none" transform="matrix(0.05 0 0 0.05 -63 -200)" d="M 8332.29,4953.89 C 8332.29,4953.89 8156.29,4998.89 8156.29,4998.89 C 8156.29,4998.89 8178.29,4973.58 8178.29,4953.89 C 8178.29,4933.76 8156.29,4907.89 8156.29,4907.89 C 8156.29,4907.89 8332.29,4953.89 8332.29,4953.89 C 8332.29,4953.89 8332.29,4953.89 8332.29,4953.89 " />
<path stroke="none" fill="#000000" transform="matrix(0.05 0 0 0.05 -63 -200)" d="M 2262.17,6806.25 L 1549.25,6806.25 L 1549.25,6788.25 L 2262.17,6788.25 Z " />
<path stroke="none" fill="#000000" transform="matrix(0.05 0 0 0.05 -63 -200)" d="M 2415.17,6797.25 C 2415.17,6797.25 2239.17,6842.25 2239.17,6842.25 C 2239.17,6842.25 2261.17,6816.94 2261.17,6797.25 C 2261.17,6777.12 2239.17,6751.25 2239.17,6751.25 C 2239.17,6751.25 2415.17,6797.25 2415.17,6797.25 C 2415.17,6797.25 2415.17,6797.25 2415.17,6797.25 " />
<path stroke="#000000" stroke-width="1" fill="none" transform="matrix(0.05 0 0 0.05 -63 -200)" d="M 2415.17,6797.25 C 2415.17,6797.25 2239.17,6842.25 2239.17,6842.25 C 2239.17,6842.25 2261.17,6816.94 2261.17,6797.25 C 2261.17,6777.12 2239.17,6751.25 2239.17,6751.25 C 2239.17,6751.25 2415.17,6797.25 2415.17,6797.25 C 2415.17,6797.25 2415.17,6797.25 2415.17,6797.25 " />
<path stroke="none" fill="#000000" transform="matrix(0.05 0 0 0.05 -63 -200)" d="M 7930.01,6806.25 L 7217.09,6806.25 L 7217.09,6788.25 L 7930.01,6788.25 Z " />
<path stroke="none" fill="#000000" transform="matrix(0.05 0 0 0.05 -63 -200)" d="M 8083.01,6797.25 C 8083.01,6797.25 7907.01,6842.25 7907.01,6842.25 C 7907.01,6842.25 7929.01,6816.94 7929.01,6797.25 C 7929.01,6777.12 7907.01,6751.25 7907.01,6751.25 C 7907.01,6751.25 8083.01,6797.25 8083.01,6797.25 C 8083.01,6797.25 8083.01,6797.25 8083.01,6797.25 " />
<path stroke="#000000" stroke-width="1" fill="none" transform="matrix(0.05 0 0 0.05 -63 -200)" d="M 8083.01,6797.25 C 8083.01,6797.25 7907.01,6842.25 7907.01,6842.25 C 7907.01,6842.25 7929.01,6816.94 7929.01,6797.25 C 7929.01,6777.12 7907.01,6751.25 7907.01,6751.25 C 7907.01,6751.25 8083.01,6797.25 8083.01,6797.25 C 8083.01,6797.25 8083.01,6797.25 8083.01,6797.25 " />
<path stroke="none" fill="#000000" transform="matrix(0.05 0 0 0.05 -63 -200)" d="M 5266.65,6806.25 L 4553.73,6806.25 L 4553.73,6788.25 L 5266.65,6788.25 Z " />
<path stroke="none" fill="#000000" transform="matrix(0.05 0 0 0.05 -63 -200)" d="M 5419.65,6797.25 C 5419.65,6797.25 5243.65,6842.25 5243.65,6842.25 C 5243.65,6842.25 5265.65,6816.94 5265.65,6797.25 C 5265.65,6777.12 5243.65,6751.25 5243.65,6751.25 C 5243.65,6751.25 5419.65,6797.25 5419.65,6797.25 C 5419.65,6797.25 5419.65,6797.25 5419.65,6797.25 " />
<path stroke="#000000" stroke-width="1" fill="none" transform="matrix(0.05 0 0 0.05 -63 -200)" d="M 5419.65,6797.25 C 5419.65,6797.25 5243.65,6842.25 5243.65,6842.25 C 5243.65,6842.25 5265.65,6816.94 5265.65,6797.25 C 5265.65,6777.12 5243.65,6751.25 5243.65,6751.25 C 5243.65,6751.25 5419.65,6797.25 5419.65,6797.25 C 5419.65,6797.25 5419.65,6797.25 5419.65,6797.25 " />
<text x="0" y="0" stroke="none" fill="#000000" transform="matrix(0.05 0 0 0.05 60.3824 21.1264)" font-style="normal" font-weight="normal" font-size="200px" font-family="Arial" >
H</text>
<path stroke="#000000" stroke-width="14" fill="none" transform="matrix(0.05 0 0 0.05 -63 -200)" d="M 2615.16,4228.12 A 74.0399,74.0399 0 1 0 2763.24,4228.12A 74.0399,74.0399 0 1 0 2615.16,4228.12Z " />
<path stroke="none" fill="#000000" transform="matrix(0.05 0 0 0.05 -63 -200)" d="M 2646.73,4220.79 L 2731,4220.79 L 2731,4234.79 L 2646.73,4234.79 Z " />
<path stroke="none" fill="#000000" transform="matrix(0.05 0 0 0.05 -63 -200)" d="M 2695.87,4185.66 L 2695.87,4269.92 L 2681.87,4269.92 L 2681.87,4185.66 Z " />
<path stroke="none" fill="#000000" transform="matrix(0.05 0 0 0.05 -63 -200)" d="M 2078.71,4384.03 A 13.4065,13.4065 0 1 0 2105.52,4384.03A 13.4065,13.4065 0 1 0 2078.71,4384.03Z " />
<path stroke="none" fill="#000000" transform="matrix(0.05 0 0 0.05 -63 -200)" d="M 2128.48,4418.12 A 13.4065,13.4065 0 1 0 2155.29,4418.12A 13.4065,13.4065 0 1 0 2128.48,4418.12Z " />
<path stroke="#000000" stroke-width="18" fill="none" transform="matrix(0.05 0 0 0.05 -63 -200)" d="M 2121.39,4369.05 C 2121.39,4369.05 2139.02,3810.81 2447.52,4172.2 " />
<path stroke="none" fill="#000000" transform="matrix(0.05 0 0 0.05 -63 -200)" d="M 2399.78,4184.03 L 2447.52,4172.2 L 2466.7,4126.9 L 2524.65,4262.55 Z " />
<text x="0" y="0" stroke="none" fill="#000000" transform="matrix(0.05 0 0 0.05 168.915 15.5461)" font-style="normal" font-weight="normal" font-size="200px" font-family="Arial" >
H</text>
<path stroke="none" fill="#000000" transform="matrix(0.05 0 0 0.05 -63 -200)" d="M 4538.08,4412.2 L 4526.07,4399.33 L 4614.9,4316.45 L 4626.91,4329.32 L 4538.08,4412.2 Z " />
<path stroke="none" fill="#000000" transform="matrix(0.05 0 0 0.05 -63 -200)" d="M 4463.94,4777.45 L 4455.57,4782.24 L 4447.22,4777.24 L 4446.77,4584.28 L 4464.37,4584.28 L 4463.94,4777.45 Z " />
<path stroke="none" fill="#000000" transform="matrix(0.05 0 0 0.05 -63 -200)" d="M 4519.29,4750.54 L 4501.69,4750.54 L 4501.69,4584.28 L 4519.29,4584.28 L 4519.29,4750.54 Z " />
<path stroke="#000000" stroke-width="14" fill="none" transform="matrix(0.05 0 0 0.05 -63 -200)" d="M 4284.46,4309.87 A 74.0399,74.0399 0 1 0 4432.54,4309.87A 74.0399,74.0399 0 1 0 4284.46,4309.87Z " />
<path stroke="none" fill="#000000" transform="matrix(0.05 0 0 0.05 -63 -200)" d="M 4316.03,4302.53 L 4400.3,4302.53 L 4400.3,4316.53 L 4316.03,4316.53 Z " />
<path stroke="none" fill="#000000" transform="matrix(0.05 0 0 0.05 -63 -200)" d="M 4365.17,4267.4 L 4365.17,4351.67 L 4351.17,4351.67 L 4351.17,4267.4 Z " />
<text x="0" y="0" stroke="none" fill="#000000" transform="matrix(0.05 0 0 0.05 169.308 83.1742)" font-style="normal" font-weight="normal" font-size="200px" font-family="Arial" >
EtOH</text>
<path stroke="none" fill="#000000" transform="matrix(0.05 0 0 0.05 -63 -200)" d="M 4930.94,5428.72 A 16.6667,16.6667 0 1 0 4964.27,5428.72A 16.6667,16.6667 0 1 0 4930.94,5428.72Z " />
<path stroke="none" fill="#000000" transform="matrix(0.05 0 0 0.05 -63 -200)" d="M 4855.95,5430.18 A 16.6667,16.6667 0 1 0 4889.29,5430.18A 16.6667,16.6667 0 1 0 4855.95,5430.18Z " />
<path stroke="#000000" stroke-width="18" fill="none" transform="matrix(0.05 0 0 0.05 -63 -200)" d="M 4902.62,5407.01 C 4902.62,5407.01 4868.43,4953.92 4560.66,5278.78 C 4252.9,5603.64 4432.43,4996.66 4432.43,4996.66 " />
<path stroke="none" fill="#000000" transform="matrix(0.05 0 0 0.05 -63 -200)" d="M 4468.38,5030.24 L 4432.43,4996.66 L 4384,5005.28 L 4466.12,4882.74 Z " />
<path stroke="#000000" stroke-width="18" fill="none" transform="matrix(0.05 0 0 0.05 -63 -200)" d="M 4421.09,4718.69 C 4421.09,4718.69 3953.09,4829.09 4279.49,4584.29 " />
<path stroke="none" fill="#000000" transform="matrix(0.05 0 0 0.05 -63 -200)" d="M 4288.29,4632.69 L 4279.49,4584.29 L 4235.49,4562.29 L 4374.53,4513.01 Z " />
<text x="0" y="0" stroke="none" fill="#000000" transform="matrix(0.05 0 0 0.05 285.792 32.5115)" font-style="normal" font-weight="normal" font-size="200px" font-family="Arial" >
O</text>
<path stroke="none" fill="#000000" transform="matrix(0.05 0 0 0.05 -63 -200)" d="M 6862.7,4780.56 L 6849.97,4782.24 L 6851.5,4769.64 L 6972.13,4647.64 L 6984.58,4660.08 L 6862.7,4780.56 Z " />
<text x="0" y="0" stroke="none" fill="#000000" transform="matrix(0.05 0 0 0.05 259.027 28.0628)" font-style="normal" font-weight="normal" font-size="200px" font-family="Arial" >
HO</text>
<path stroke="none" fill="#000000" transform="matrix(0.05 0 0 0.05 -63 -200)" d="M 6851.5,4769.64 L 6849.97,4782.24 L 6838.43,4779.35 L 6713.02,4584.51 L 6727.85,4575.03 L 6851.5,4769.64 Z " />
<text x="0" y="0" stroke="none" fill="#000000" transform="matrix(0.05 0 0 0.05 303.338 32.5115)" font-style="normal" font-weight="normal" font-size="200px" font-family="Arial" >
Et</text>
<path stroke="none" fill="#000000" transform="matrix(0.05 0 0 0.05 -63 -200)" d="M 7153.5,4587.4 L 7153.5,4569.8 L 7309.58,4569.8 L 7309.58,4587.4 L 7153.5,4587.4 Z " />
<text x="0" y="0" stroke="none" fill="#000000" transform="matrix(0.05 0 0 0.05 280.615 13.8497)" font-style="normal" font-weight="normal" font-size="200px" font-family="Arial" >
H</text>
<path stroke="none" fill="#000000" transform="matrix(0.05 0 0 0.05 -63 -200)" d="M 7032.18,4473.92 L 7015.29,4478.85 L 6968.67,4319.37 L 6985.56,4314.43 L 7032.18,4473.92 Z " />
<path stroke="#000000" stroke-width="14" fill="none" transform="matrix(0.05 0 0 0.05 -63 -200)" d="M 7090.56,4418.59 A 74.0399,74.0399 0 1 0 7238.64,4418.59A 74.0399,74.0399 0 1 0 7090.56,4418.59Z " />
<path stroke="none" fill="#000000" transform="matrix(0.05 0 0 0.05 -63 -200)" d="M 7122.13,4411.26 L 7206.4,4411.26 L 7206.4,4425.26 L 7122.13,4425.26 Z " />
<path stroke="none" fill="#000000" transform="matrix(0.05 0 0 0.05 -63 -200)" d="M 7171.27,4376.13 L 7171.27,4460.39 L 7157.27,4460.39 L 7157.27,4376.13 Z " />
<path stroke="#000000" stroke-width="18" fill="none" transform="matrix(0.05 0 0 0.05 -63 -200)" d="M 6991.49,4397.09 C 6991.49,4397.09 6806.69,4449.89 6881.09,4605.89 " />
<path stroke="none" fill="#000000" transform="matrix(0.05 0 0 0.05 -63 -200)" d="M 6831.9,4604.97 L 6881.09,4605.89 L 6911.33,4567.09 L 6932.23,4713.12 Z " />
<text x="0" y="0" stroke="none" fill="#000000" transform="matrix(0.05 0 0 0.05 380.908 30.223)" font-style="normal" font-weight="normal" font-size="200px" font-family="Arial" >
HO</text>
<path stroke="none" fill="#000000" transform="matrix(0.05 0 0 0.05 -63 -200)" d="M 9244.37,4767.2 L 9244.37,4782.24 L 9233.3,4779.04 L 9146.77,4630.81 L 9162.02,4622.01 L 9244.37,4767.2 Z " />
<text x="0" y="0" stroke="none" fill="#000000" transform="matrix(0.05 0 0 0.05 402.529 30.223)" font-style="normal" font-weight="normal" font-size="200px" font-family="Arial" >
OEt</text>
<path stroke="none" fill="#000000" transform="matrix(0.05 0 0 0.05 -63 -200)" d="M 9255.33,4779.3 L 9244.37,4782.24 L 9244.37,4767.2 L 9326.58,4622.26 L 9341.82,4631.06 L 9255.33,4779.3 Z " />
<text x="0" y="0" stroke="none" fill="#000000" transform="matrix(0.05 0 0 0.05 131.694 123.014)" font-style="normal" font-weight="normal" font-size="200px" font-family="Arial" >
OEt</text>
<path stroke="none" fill="#000000" transform="matrix(0.05 0 0 0.05 -63 -200)" d="M 3714.73,6618.04 L 3701.17,6619.04 L 3702.43,6607.22 L 3884.67,6451.2 L 3896.08,6464.6 L 3714.73,6618.04 Z " />
<text x="0" y="0" stroke="none" fill="#000000" transform="matrix(0.05 0 0 0.05 101.742 122.063)" font-style="normal" font-weight="normal" font-size="200px" font-family="Arial" >
HO</text>
<path stroke="none" fill="#000000" transform="matrix(0.05 0 0 0.05 -63 -200)" d="M 3702.43,6607.22 L 3701.17,6619.04 L 3689.27,6616.39 L 3573.77,6461.28 L 3587.93,6450.83 L 3702.43,6607.22 Z " />
<path stroke="#000000" stroke-width="14" fill="none" transform="matrix(0.05 0 0 0.05 -63 -200)" d="M 3878.81,6954.66 A 74.0399,74.0399 0 1 0 4026.89,6954.66A 74.0399,74.0399 0 1 0 3878.81,6954.66Z " />
<path stroke="none" fill="#000000" transform="matrix(0.05 0 0 0.05 -63 -200)" d="M 3910.38,6947.33 L 3994.65,6947.33 L 3994.65,6961.33 L 3910.38,6961.33 Z " />
<path stroke="none" fill="#000000" transform="matrix(0.05 0 0 0.05 -63 -200)" d="M 3959.52,6912.19 L 3959.52,6996.46 L 3945.52,6996.46 L 3945.52,6912.19 Z " />
<text x="0" y="0" stroke="none" fill="#000000" transform="matrix(0.05 0 0 0.05 270.553 106.608)" font-style="normal" font-weight="normal" font-size="200px" font-family="Arial" >
H</text>
<path stroke="none" fill="#000000" transform="matrix(0.05 0 0 0.05 -63 -200)" d="M 6552.99,6263.26 L 6540.54,6250.81 L 6650.11,6141.25 L 6662.56,6153.69 L 6552.99,6263.26 Z " />
<path stroke="#000000" stroke-width="14" fill="none" transform="matrix(0.05 0 0 0.05 -63 -200)" d="M 6287.68,6172.01 A 74.0399,74.0399 0 1 0 6435.76,6172.01A 74.0399,74.0399 0 1 0 6287.68,6172.01Z " />
<path stroke="none" fill="#000000" transform="matrix(0.05 0 0 0.05 -63 -200)" d="M 6319.25,6164.68 L 6403.52,6164.68 L 6403.52,6178.68 L 6319.25,6178.68 Z " />
<path stroke="none" fill="#000000" transform="matrix(0.05 0 0 0.05 -63 -200)" d="M 6368.39,6129.54 L 6368.39,6213.81 L 6354.39,6213.81 L 6354.39,6129.54 Z " />
<text x="0" y="0" stroke="none" fill="#000000" transform="matrix(0.05 0 0 0.05 87.1409 61.6943)" font-style="normal" font-weight="bold" font-size="200px" font-family="Arial" >
A</text>
<text x="0" y="0" stroke="none" fill="#000000" transform="matrix(0.05 0 0 0.05 206.887 61.6943)" font-style="normal" font-weight="bold" font-size="200px" font-family="Arial" >
B</text>
<text x="0" y="0" stroke="none" fill="#000000" transform="matrix(0.05 0 0 0.05 326.045 61.8163)" font-style="normal" font-weight="bold" font-size="200px" font-family="Arial" >
C</text>
<text x="0" y="0" stroke="none" fill="#000000" transform="matrix(0.05 0 0 0.05 28.693 153.07)" font-style="normal" font-weight="bold" font-size="200px" font-family="Arial" >
D</text>
<text x="0" y="0" stroke="none" fill="#000000" transform="matrix(0.05 0 0 0.05 180.147 153.07)" font-style="normal" font-weight="bold" font-size="200px" font-family="Arial" >
E</text>
<text x="0" y="0" stroke="none" fill="#000000" transform="matrix(0.05 0 0 0.05 313.355 153.07)" font-style="normal" font-weight="bold" font-size="200px" font-family="Arial" >
F</text>
<text x="0" y="0" stroke="none" fill="#000000" transform="matrix(0.05 0 0 0.05 322.319 42.6314)" font-style="normal" font-weight="normal" font-size="200px" font-family="Arial" >
-</text>
<text x="0" y="0" stroke="none" fill="#000000" transform="matrix(0.05 0 0 0.05 325.649 42.6314)" font-style="normal" font-weight="normal" font-size="200px" font-family="Arial" >
H</text>
<text x="0" y="0" stroke="none" fill="#000000" transform="matrix(0.05 0 0 0.05 332.871 39.0499)" font-style="normal" font-weight="normal" font-size="150px" font-family="Arial" >
+</text>
<text x="0" y="0" stroke="none" fill="#000000" transform="matrix(0.05 0 0 0.05 173.125 135.475)" font-style="normal" font-weight="normal" font-size="200px" font-family="Arial" >
-</text>
<text x="0" y="0" stroke="none" fill="#000000" transform="matrix(0.05 0 0 0.05 176.456 135.475)" font-style="normal" font-weight="normal" font-size="200px" font-family="Arial" >
H</text>
<text x="0" y="0" stroke="none" fill="#000000" transform="matrix(0.05 0 0 0.05 183.677 137.594)" font-style="normal" font-weight="normal" font-size="150px" font-family="Arial" >
2</text>
<text x="0" y="0" stroke="none" fill="#000000" transform="matrix(0.05 0 0 0.05 187.848 135.475)" font-style="normal" font-weight="normal" font-size="200px" font-family="Arial" >
O</text>
<text x="0" y="0" stroke="none" fill="#000000" transform="matrix(0.05 0 0 0.05 308.287 135.454)" font-style="normal" font-weight="normal" font-size="200px" font-family="Arial" >
-</text>
<text x="0" y="0" stroke="none" fill="#000000" transform="matrix(0.05 0 0 0.05 311.617 135.454)" font-style="normal" font-weight="normal" font-size="200px" font-family="Arial" >
H</text>
<text x="0" y="0" stroke="none" fill="#000000" transform="matrix(0.05 0 0 0.05 318.839 131.873)" font-style="normal" font-weight="normal" font-size="150px" font-family="Arial" >
+</text>
<text x="0" y="0" stroke="none" fill="#000000" transform="matrix(0.05 0 0 0.05 23.215 135.608)" font-style="normal" font-weight="normal" font-size="200px" font-family="Arial" >
+</text>
<text x="0" y="0" stroke="none" fill="#000000" transform="matrix(0.05 0 0 0.05 29.0549 135.608)" font-style="normal" font-weight="normal" font-size="200px" font-family="Arial" >
H</text>
<text x="0" y="0" stroke="none" fill="#000000" transform="matrix(0.05 0 0 0.05 36.2766 132.026)" font-style="normal" font-weight="normal" font-size="150px" font-family="Arial" >
+</text>
<path stroke="none" fill="#000000" transform="matrix(0.05 0 0 0.05 -63 -200)" d="M 3542.89,6243.4 A 13.5207,13.5207 0 1 0 3569.93,6243.4A 13.5207,13.5207 0 1 0 3542.89,6243.4Z " />
<path stroke="none" fill="#000000" transform="matrix(0.05 0 0 0.05 -63 -200)" d="M 3588.06,6284.16 A 13.5207,13.5207 0 1 0 3615.11,6284.16A 13.5207,13.5207 0 1 0 3588.06,6284.16Z " />
<path stroke="#000000" stroke-width="18" fill="none" transform="matrix(0.05 0 0 0.05 -63 -200)" d="M 3619.68,6238.75 C 3619.68,6238.75 3996.8,5981.28 3716.71,6398.77 " />
<path stroke="none" fill="#000000" transform="matrix(0.05 0 0 0.05 -63 -200)" d="M 3692.43,6355.99 L 3716.71,6398.77 L 3765.51,6405.02 L 3650.53,6497.43 Z " />
<path stroke="#000000" stroke-width="18" fill="none" transform="matrix(0.05 0 0 0.05 -63 -200)" d="M 3818.05,6663 C 3818.05,6663 3908.06,6406.16 3942.8,6574.08 " />
<path stroke="none" fill="#000000" transform="matrix(0.05 0 0 0.05 -63 -200)" d="M 3895.25,6561.45 L 3942.8,6574.08 L 3981.43,6543.62 L 3966.86,6690.41 Z " />
<path stroke="#000000" stroke-width="18" fill="none" transform="matrix(0.05 0 0 0.05 -63 -200)" d="M 6601.68,6165.04 C 6601.68,6165.04 6539.11,5686.68 6500.01,6123.24 " />
<path stroke="none" fill="#000000" transform="matrix(0.05 0 0 0.05 -63 -200)" d="M 6458.15,6097.4 L 6500.01,6123.24 L 6545.8,6105.25 L 6489.41,6241.57 Z " />
</svg>
