<?xml version="1.0" standalone="no" ?>
<!DOCTYPE svg PUBLIC "-//W3C//DTD SVG 1.1//EN" "http://www.w3.org/Graphics/SVG/1.1/DTD/svg11.dtd">
<svg width="296px" height="54px" viewBox="0 0 296 54" style="background-color: #ffffff00" xmlns="http://www.w3.org/2000/svg" xmlns:xlink="http://www.w3.org/1999/xlink" version="1.1" >
<path stroke="none" fill="#000000" transform="matrix(0.05 0 0 0.05 -60 -70)" d="M 1788.52,1987.96 L 1797.02,1983.31 L 1805.51,1988.21 L 1805.51,2266.41 L 1787.91,2276.57 L 1788.52,1987.96 Z " />
<path stroke="none" fill="#000000" transform="matrix(0.05 0 0 0.05 -60 -70)" d="M 1840.07,2013.24 L 1857.65,2013.24 L 1857.65,2241.38 L 1840.07,2241.38 L 1840.07,2013.24 Z " />
<path stroke="none" fill="#000000" transform="matrix(0.05 0 0 0.05 -60 -70)" d="M 1787.91,2276.57 L 1805.51,2266.41 L 2046.44,2405.51 L 2046.44,2425.83 L 1787.91,2276.57 Z " />
<path stroke="none" fill="#000000" transform="matrix(0.05 0 0 0.05 -60 -70)" d="M 2046.44,2425.83 L 2046.44,2405.51 L 2287.36,2266.41 L 2304.96,2276.57 L 2046.44,2425.83 Z " />
<path stroke="none" fill="#000000" transform="matrix(0.05 0 0 0.05 -60 -70)" d="M 2050.83,2363.06 L 2042.04,2347.84 L 2239.62,2233.77 L 2248.41,2248.99 L 2050.83,2363.06 Z " />
<path stroke="none" fill="#000000" transform="matrix(0.05 0 0 0.05 -60 -70)" d="M 2304.96,2276.57 L 2287.36,2266.41 L 2287.36,1988.21 L 2295.85,1983.31 L 2304.34,1988.21 L 2304.96,2276.57 Z " />
<path stroke="none" fill="#000000" transform="matrix(0.05 0 0 0.05 -60 -70)" d="M 2295.85,1973.51 L 2295.85,1983.31 L 2287.36,1988.21 L 2046.44,1849.12 L 2046.44,1828.8 L 2295.85,1973.51 Z " />
<path stroke="none" fill="#000000" transform="matrix(0.05 0 0 0.05 -60 -70)" d="M 2248.41,2005.63 L 2239.62,2020.85 L 2042.04,1906.78 L 2050.83,1891.56 L 2248.41,2005.63 Z " />
<path stroke="none" fill="#000000" transform="matrix(0.05 0 0 0.05 -60 -70)" d="M 2046.44,1828.8 L 2046.44,1849.12 L 1805.51,1988.21 L 1797.02,1983.31 L 1796.79,1973.63 L 2046.44,1828.8 Z " />
<path stroke="none" fill="#000000" transform="matrix(0.05 0 0 0.05 -60 -70)" d="M 2304.34,1988.21 L 2295.85,1983.31 L 2295.85,1973.51 L 2545.43,1828.69 L 2545.46,1849.02 L 2304.34,1988.21 Z " />
<text x="0" y="0" stroke="none" fill="#000000" transform="matrix(0.05 0 0 0.05 75.845 32.7472)" font-style="normal" font-weight="normal" font-size="200px" font-family="Arial" >
OMe</text>
<path stroke="none" fill="#000000" transform="matrix(0.05 0 0 0.05 -60 -70)" d="M 2545.46,1849.02 L 2545.43,1828.69 L 2708.79,1923.58 L 2700,1938.8 L 2545.46,1849.02 Z " />
<text x="0" y="0" stroke="none" fill="#000000" transform="matrix(0.05 0 0 0.05 63.3742 11.1473)" font-style="normal" font-weight="normal" font-size="200px" font-family="Arial" >
O</text>
<path stroke="none" fill="#000000" transform="matrix(0.05 0 0 0.05 -60 -70)" d="M 2528.13,1854.28 L 2510.56,1854.28 L 2510.56,1658.46 L 2528.13,1658.46 L 2528.13,1854.28 Z " />
<path stroke="none" fill="#000000" transform="matrix(0.05 0 0 0.05 -60 -70)" d="M 2579.97,1854.28 L 2562.4,1854.28 L 2562.4,1658.46 L 2579.97,1658.46 L 2579.97,1854.28 Z " />
<text x="0" y="0" stroke="none" fill="#000000" transform="matrix(0.05 0 0 0.05 1.82003 25.5473)" font-style="normal" font-weight="normal" font-size="200px" font-family="Arial" >
O</text>
<text x="0" y="0" stroke="none" fill="#000000" transform="matrix(0.05 0 0 0.05 9.59835 27.6664)" font-style="normal" font-weight="normal" font-size="150px" font-family="Arial" >
2</text>
<text x="0" y="0" stroke="none" fill="#000000" transform="matrix(0.05 0 0 0.05 13.7695 25.5473)" font-style="normal" font-weight="normal" font-size="200px" font-family="Arial" >
N</text>
<path stroke="none" fill="#000000" transform="matrix(0.05 0 0 0.05 -60 -70)" d="M 1796.79,1973.63 L 1797.02,1983.31 L 1788.52,1987.96 L 1643.76,1904.98 L 1652.55,1889.76 L 1796.79,1973.63 Z " />
<path stroke="none" fill="#000000" transform="matrix(0.05 0 0 0.05 -60 -70)" d="M 4861.36,1961.15 L 3444,1961.15 L 3444,1943.15 L 4861.36,1943.15 Z " />
<path stroke="none" fill="#000000" transform="matrix(0.05 0 0 0.05 -60 -70)" d="M 5014.13,1952.15 C 5014.13,1952.15 4838.39,1997.08 4838.39,1997.08 C 4838.39,1997.08 4860.36,1971.81 4860.36,1952.15 C 4860.36,1932.05 4838.39,1906.21 4838.39,1906.21 C 4838.39,1906.21 5014.13,1952.15 5014.13,1952.15 C 5014.13,1952.15 5014.13,1952.15 5014.13,1952.15 " />
<path stroke="#000000" stroke-width="1" fill="none" transform="matrix(0.05 0 0 0.05 -60 -70)" d="M 5014.13,1952.15 C 5014.13,1952.15 4838.39,1997.08 4838.39,1997.08 C 4838.39,1997.08 4860.36,1971.81 4860.36,1952.15 C 4860.36,1932.05 4838.39,1906.21 4838.39,1906.21 C 4838.39,1906.21 5014.13,1952.15 5014.13,1952.15 C 5014.13,1952.15 5014.13,1952.15 5014.13,1952.15 " />
<path stroke="none" fill="#000000" transform="matrix(0.05 0 0 0.05 -60 -70)" d="M 5858.58,1987.96 L 5867.09,1983.31 L 5875.58,1988.21 L 5875.58,2266.41 L 5857.98,2276.57 L 5858.58,1987.96 Z " />
<path stroke="none" fill="#000000" transform="matrix(0.05 0 0 0.05 -60 -70)" d="M 5910.14,2013.24 L 5927.72,2013.24 L 5927.72,2241.38 L 5910.14,2241.38 L 5910.14,2013.24 Z " />
<path stroke="none" fill="#000000" transform="matrix(0.05 0 0 0.05 -60 -70)" d="M 5857.98,2276.57 L 5875.58,2266.41 L 6116.5,2405.51 L 6116.5,2425.83 L 5857.98,2276.57 Z " />
<path stroke="none" fill="#000000" transform="matrix(0.05 0 0 0.05 -60 -70)" d="M 6116.5,2425.83 L 6116.5,2405.51 L 6357.43,2266.41 L 6375.03,2276.57 L 6116.5,2425.83 Z " />
<path stroke="none" fill="#000000" transform="matrix(0.05 0 0 0.05 -60 -70)" d="M 6120.9,2363.06 L 6112.11,2347.84 L 6309.68,2233.77 L 6318.47,2248.99 L 6120.9,2363.06 Z " />
<path stroke="none" fill="#000000" transform="matrix(0.05 0 0 0.05 -60 -70)" d="M 6375.03,2276.57 L 6357.43,2266.41 L 6357.43,1988.21 L 6365.92,1983.31 L 6374.41,1988.21 L 6375.03,2276.57 Z " />
<path stroke="none" fill="#000000" transform="matrix(0.05 0 0 0.05 -60 -70)" d="M 6365.92,1973.51 L 6365.92,1983.31 L 6357.43,1988.21 L 6116.5,1849.12 L 6116.5,1828.8 L 6365.92,1973.51 Z " />
<path stroke="none" fill="#000000" transform="matrix(0.05 0 0 0.05 -60 -70)" d="M 6318.47,2005.63 L 6309.68,2020.85 L 6112.11,1906.78 L 6120.9,1891.56 L 6318.47,2005.63 Z " />
<path stroke="none" fill="#000000" transform="matrix(0.05 0 0 0.05 -60 -70)" d="M 6116.5,1828.8 L 6116.5,1849.12 L 5875.58,1988.21 L 5867.09,1983.31 L 5866.86,1973.63 L 6116.5,1828.8 Z " />
<path stroke="none" fill="#000000" transform="matrix(0.05 0 0 0.05 -60 -70)" d="M 6374.41,1988.21 L 6365.92,1983.31 L 6365.92,1973.51 L 6615.5,1828.69 L 6615.53,1849.02 L 6374.41,1988.21 Z " />
<text x="0" y="0" stroke="none" fill="#000000" transform="matrix(0.05 0 0 0.05 279.348 32.7472)" font-style="normal" font-weight="normal" font-size="200px" font-family="Arial" >
OH</text>
<path stroke="none" fill="#000000" transform="matrix(0.05 0 0 0.05 -60 -70)" d="M 6615.53,1849.02 L 6615.5,1828.69 L 6778.86,1923.58 L 6770.07,1938.8 L 6615.53,1849.02 Z " />
<text x="0" y="0" stroke="none" fill="#000000" transform="matrix(0.05 0 0 0.05 266.878 11.1473)" font-style="normal" font-weight="normal" font-size="200px" font-family="Arial" >
O</text>
<path stroke="none" fill="#000000" transform="matrix(0.05 0 0 0.05 -60 -70)" d="M 6598.2,1854.28 L 6580.63,1854.28 L 6580.63,1658.46 L 6598.2,1658.46 L 6598.2,1854.28 Z " />
<path stroke="none" fill="#000000" transform="matrix(0.05 0 0 0.05 -60 -70)" d="M 6650.04,1854.28 L 6632.47,1854.28 L 6632.47,1658.46 L 6650.04,1658.46 L 6650.04,1854.28 Z " />
<text x="0" y="0" stroke="none" fill="#000000" transform="matrix(0.05 0 0 0.05 205.323 25.5473)" font-style="normal" font-weight="normal" font-size="200px" font-family="Arial" >
O</text>
<text x="0" y="0" stroke="none" fill="#000000" transform="matrix(0.05 0 0 0.05 213.102 27.6664)" font-style="normal" font-weight="normal" font-size="150px" font-family="Arial" >
2</text>
<text x="0" y="0" stroke="none" fill="#000000" transform="matrix(0.05 0 0 0.05 217.273 25.5473)" font-style="normal" font-weight="normal" font-size="200px" font-family="Arial" >
N</text>
<path stroke="none" fill="#000000" transform="matrix(0.05 0 0 0.05 -60 -70)" d="M 5866.86,1973.63 L 5867.09,1983.31 L 5858.58,1987.96 L 5713.83,1904.98 L 5722.62,1889.76 L 5866.86,1973.63 Z " />
<text x="0" y="0" stroke="none" fill="#000000" transform="matrix(0.05 0 0 0.05 137.198 10.0342)" font-style="normal" font-weight="normal" font-size="200px" font-family="Arial" >
NaOH</text>
<text x="0" y="0" stroke="none" fill="#000000" transform="matrix(0.05 0 0 0.05 126.499 23.1226)" font-style="normal" font-weight="normal" font-size="200px" font-family="Arial" >
H</text>
<text x="0" y="0" stroke="none" fill="#000000" transform="matrix(0.05 0 0 0.05 133.721 25.2418)" font-style="normal" font-weight="normal" font-size="150px" font-family="Arial" >
2</text>
<text x="0" y="0" stroke="none" fill="#000000" transform="matrix(0.05 0 0 0.05 137.892 23.1226)" font-style="normal" font-weight="normal" font-size="200px" font-family="Arial" >
O, </text>
<text x="0" y="0" stroke="none" fill="#000000" transform="matrix(0.05 0 0 0.05 151.227 23.1226)" font-style="normal" font-weight="normal" font-size="200px" font-family="Arial" >
reflux</text>
<text x="0" y="0" stroke="none" fill="#000000" transform="matrix(0.05 0 0 0.05 136.341 39.8535)" font-style="normal" font-weight="normal" font-size="200px" font-family="Arial" >
aq </text>
<text x="0" y="0" stroke="none" fill="#000000" transform="matrix(0.05 0 0 0.05 150.242 39.8535)" font-style="normal" font-weight="normal" font-size="200px" font-family="Arial" >
HCl</text>
</svg>
