<?xml version="1.0" standalone="no" ?>
<!DOCTYPE svg PUBLIC "-//W3C//DTD SVG 1.1//EN" "http://www.w3.org/Graphics/SVG/1.1/DTD/svg11.dtd">
<svg width="221px" height="56px" viewBox="0 0 221 56" style="background-color: #ffffff00" xmlns="http://www.w3.org/2000/svg" xmlns:xlink="http://www.w3.org/1999/xlink" version="1.1" >
<path stroke="none" fill="#000000" transform="matrix(0.05 0 0 0.05 -116 -50)" d="M 5328.8,1785.4 L 3641,1785.4 L 3641,1767.4 L 5328.8,1767.4 Z " />
<path stroke="none" fill="#000000" transform="matrix(0.05 0 0 0.05 -116 -50)" d="M 5481.8,1776.4 C 5481.8,1776.4 5305.8,1821.4 5305.8,1821.4 C 5305.8,1821.4 5327.8,1796.09 5327.8,1776.4 C 5327.8,1756.28 5305.8,1730.4 5305.8,1730.4 C 5305.8,1730.4 5481.8,1776.4 5481.8,1776.4 C 5481.8,1776.4 5481.8,1776.4 5481.8,1776.4 " />
<path stroke="#000000" stroke-width="1" fill="none" transform="matrix(0.05 0 0 0.05 -116 -50)" d="M 5481.8,1776.4 C 5481.8,1776.4 5305.8,1821.4 5305.8,1821.4 C 5305.8,1821.4 5327.8,1796.09 5327.8,1776.4 C 5327.8,1756.28 5305.8,1730.4 5305.8,1730.4 C 5305.8,1730.4 5481.8,1776.4 5481.8,1776.4 C 5481.8,1776.4 5481.8,1776.4 5481.8,1776.4 " />
<text x="0" y="0" stroke="none" fill="#000000" transform="matrix(0.05 0 0 0.05 33.8008 53.1315)" font-style="normal" font-weight="normal" font-size="200px" font-family="Arial" >
OEt</text>
<path stroke="none" fill="#000000" transform="matrix(0.05 0 0 0.05 -116 -50)" d="M 2988.66,1931.68 L 2979.86,1946.92 L 2824.48,1856.67 L 2824.46,1836.29 L 2988.66,1931.68 Z " />
<text x="0" y="0" stroke="none" fill="#000000" transform="matrix(0.05 0 0 0.05 1.63916 53.1315)" font-style="normal" font-weight="normal" font-size="200px" font-family="Arial" >
Me</text>
<path stroke="none" fill="#000000" transform="matrix(0.05 0 0 0.05 -116 -50)" d="M 2824.46,1836.29 L 2824.48,1856.67 L 2643.03,1961.88 L 2634.23,1946.64 L 2824.46,1836.29 Z " />
<text x="0" y="0" stroke="none" fill="#000000" transform="matrix(0.05 0 0 0.05 21.3308 31.5315)" font-style="normal" font-weight="normal" font-size="200px" font-family="Arial" >
O</text>
<path stroke="none" fill="#000000" transform="matrix(0.05 0 0 0.05 -116 -50)" d="M 2807.28,1861.97 L 2789.68,1861.97 L 2789.68,1666.15 L 2807.28,1666.15 L 2807.28,1861.97 Z " />
<path stroke="none" fill="#000000" transform="matrix(0.05 0 0 0.05 -116 -50)" d="M 2859.12,1861.97 L 2841.52,1861.97 L 2841.52,1666.15 L 2859.12,1666.15 L 2859.12,1861.97 Z " />
<text x="0" y="0" stroke="none" fill="#000000" transform="matrix(0.05 0 0 0.05 80.5569 10.28)" font-style="normal" font-weight="normal" font-size="200px" font-family="Arial" >
PhMgBr </text>
<text x="0" y="0" stroke="none" fill="#000000" transform="matrix(0.05 0 0 0.05 119.458 10.28)" font-style="normal" font-weight="normal" font-size="200px" font-family="Arial" >
(2eq)</text>
<text x="0" y="0" stroke="none" fill="#000000" transform="matrix(0.05 0 0 0.05 100.981 21.779)" font-style="normal" font-weight="normal" font-size="200px" font-family="Arial" >
Et</text>
<text x="0" y="0" stroke="none" fill="#000000" transform="matrix(0.05 0 0 0.05 110.429 23.8982)" font-style="normal" font-weight="normal" font-size="150px" font-family="Arial" >
2</text>
<text x="0" y="0" stroke="none" fill="#000000" transform="matrix(0.05 0 0 0.05 114.601 21.779)" font-style="normal" font-weight="normal" font-size="200px" font-family="Arial" >
O</text>
<text x="0" y="0" stroke="none" fill="#000000" transform="matrix(0.05 0 0 0.05 89.7659 33.278)" font-style="normal" font-weight="normal" font-size="200px" font-family="Arial" >
0</text>
<text x="0" y="0" stroke="none" fill="#000000" transform="matrix(0.05 0 0 0.05 95.3275 33.278)" font-style="normal" font-weight="normal" font-size="200px" font-family="Helvetica" >
℃</text>
<text x="0" y="0" stroke="none" fill="#000000" transform="matrix(0.05 0 0 0.05 106.548 33.278)" font-style="normal" font-weight="normal" font-size="200px" font-family="Arial" >
 </text>
<text x="0" y="0" stroke="none" fill="#000000" transform="matrix(0.05 0 0 0.05 109.326 33.278)" font-style="normal" font-weight="normal" font-size="200px" font-family="Arial" >
to </text>
<text x="0" y="0" stroke="none" fill="#000000" transform="matrix(0.05 0 0 0.05 120.445 33.278)" font-style="normal" font-weight="normal" font-size="200px" font-family="Arial" >
RT</text>
<text x="0" y="0" stroke="none" fill="#000000" transform="matrix(0.05 0 0 0.05 91.26 50.83)" font-style="normal" font-weight="normal" font-size="200px" font-family="Arial" >
aq </text>
<text x="0" y="0" stroke="none" fill="#000000" transform="matrix(0.05 0 0 0.05 105.161 50.83)" font-style="normal" font-weight="normal" font-size="200px" font-family="Arial" >
NH</text>
<text x="0" y="0" stroke="none" fill="#000000" transform="matrix(0.05 0 0 0.05 119.605 52.9491)" font-style="normal" font-weight="normal" font-size="150px" font-family="Arial" >
4</text>
<text x="0" y="0" stroke="none" fill="#000000" transform="matrix(0.05 0 0 0.05 123.776 50.83)" font-style="normal" font-weight="normal" font-size="200px" font-family="Arial" >
Cl</text>
<text x="0" y="0" stroke="none" fill="#000000" transform="matrix(0.05 0 0 0.05 204.611 52.1415)" font-style="normal" font-weight="normal" font-size="200px" font-family="Arial" >
OH</text>
<path stroke="none" fill="#000000" transform="matrix(0.05 0 0 0.05 -116 -50)" d="M 6404.86,1911.88 L 6396.06,1927.12 L 6240.68,1836.87 L 6240.6,1827.2 L 6251.52,1824.22 L 6404.86,1911.88 Z " />
<text x="0" y="0" stroke="none" fill="#000000" transform="matrix(0.05 0 0 0.05 172.449 52.1415)" font-style="normal" font-weight="normal" font-size="200px" font-family="Arial" >
Me</text>
<path stroke="none" fill="#000000" transform="matrix(0.05 0 0 0.05 -116 -50)" d="M 6229.62,1824.14 L 6240.6,1827.2 L 6240.68,1836.87 L 6059.23,1942.08 L 6050.43,1926.84 L 6229.62,1824.14 Z " />
<text x="0" y="0" stroke="none" fill="#000000" transform="matrix(0.05 0 0 0.05 199.895 32.4715)" font-style="normal" font-weight="normal" font-size="200px" font-family="Arial" >
Ph</text>
<path stroke="none" fill="#000000" transform="matrix(0.05 0 0 0.05 -116 -50)" d="M 6251.52,1824.22 L 6240.6,1827.2 L 6240.63,1812.25 L 6317.42,1676.56 L 6332.66,1685.36 L 6251.52,1824.22 Z " />
<text x="0" y="0" stroke="none" fill="#000000" transform="matrix(0.05 0 0 0.05 179.379 32.4715)" font-style="normal" font-weight="normal" font-size="200px" font-family="Arial" >
Ph</text>
<path stroke="none" fill="#000000" transform="matrix(0.05 0 0 0.05 -116 -50)" d="M 6240.63,1812.25 L 6240.6,1827.2 L 6229.62,1824.14 L 6145.58,1680.23 L 6160.82,1671.43 L 6240.63,1812.25 Z " />
</svg>
