<?xml version="1.0" standalone="no" ?>
<!DOCTYPE svg PUBLIC "-//W3C//DTD SVG 1.1//EN" "http://www.w3.org/Graphics/SVG/1.1/DTD/svg11.dtd">
<svg width="228px" height="37px" viewBox="0 0 228 37" style="background-color: #ffffff00" xmlns="http://www.w3.org/2000/svg" xmlns:xlink="http://www.w3.org/1999/xlink" version="1.1" >
<path stroke="none" fill="#000000" transform="matrix(0.05 0 0 0.05 -116 -67)" d="M 5076,1723.6 L 4080.6,1723.6 L 4080.6,1705.6 L 5076,1705.6 Z " />
<path stroke="none" fill="#000000" transform="matrix(0.05 0 0 0.05 -116 -67)" d="M 5229,1714.6 C 5229,1714.6 5053,1759.6 5053,1759.6 C 5053,1759.6 5075,1734.29 5075,1714.6 C 5075,1694.48 5053,1668.6 5053,1668.6 C 5053,1668.6 5229,1714.6 5229,1714.6 C 5229,1714.6 5229,1714.6 5229,1714.6 " />
<path stroke="#000000" stroke-width="1" fill="none" transform="matrix(0.05 0 0 0.05 -116 -67)" d="M 5229,1714.6 C 5229,1714.6 5053,1759.6 5053,1759.6 C 5053,1759.6 5075,1734.29 5075,1714.6 C 5075,1694.48 5053,1668.6 5053,1668.6 C 5053,1668.6 5229,1714.6 5229,1714.6 C 5229,1714.6 5229,1714.6 5229,1714.6 " />
<text x="0" y="0" stroke="none" fill="#000000" transform="matrix(0.05 0 0 0.05 46.2608 11.4415)" font-style="normal" font-weight="normal" font-size="200px" font-family="Arial" >
O</text>
<path stroke="none" fill="#000000" transform="matrix(0.05 0 0 0.05 -116 -67)" d="M 3340.12,1604.35 L 3357.72,1604.35 L 3357.72,1800.17 L 3340.12,1800.17 L 3340.12,1604.35 Z " />
<path stroke="none" fill="#000000" transform="matrix(0.05 0 0 0.05 -116 -67)" d="M 3288.28,1604.35 L 3305.88,1604.35 L 3305.88,1800.17 L 3288.28,1800.17 L 3288.28,1604.35 Z " />
<text x="0" y="0" stroke="none" fill="#000000" transform="matrix(0.05 0 0 0.05 58.7308 33.0415)" font-style="normal" font-weight="normal" font-size="200px" font-family="Arial" >
OH</text>
<path stroke="none" fill="#000000" transform="matrix(0.05 0 0 0.05 -116 -67)" d="M 3323.19,1794.92 L 3323.16,1774.56 L 3486.51,1869.45 L 3477.71,1884.69 L 3323.19,1794.92 Z " />
<path stroke="none" fill="#000000" transform="matrix(0.05 0 0 0.05 -116 -67)" d="M 3323.16,1774.56 L 3323.19,1794.92 L 3073.6,1939.73 L 3073.6,1919.38 L 3323.16,1774.56 Z " />
<path stroke="none" fill="#000000" transform="matrix(0.05 0 0 0.05 -116 -67)" d="M 3073.6,1919.38 L 3073.6,1939.73 L 2824.08,1794.96 L 2824.1,1774.6 L 3073.6,1919.38 Z " />
<text x="0" y="0" stroke="none" fill="#000000" transform="matrix(0.05 0 0 0.05 1.62915 33.0415)" font-style="normal" font-weight="normal" font-size="200px" font-family="Arial" >
Me</text>
<path stroke="none" fill="#000000" transform="matrix(0.05 0 0 0.05 -116 -67)" d="M 2824.1,1774.6 L 2824.08,1794.96 L 2642.83,1900.08 L 2634.03,1884.84 L 2824.1,1774.6 Z " />
<text x="0" y="0" stroke="none" fill="#000000" transform="matrix(0.05 0 0 0.05 204.441 11.4515)" font-style="normal" font-weight="normal" font-size="200px" font-family="Arial" >
O</text>
<path stroke="none" fill="#000000" transform="matrix(0.05 0 0 0.05 -116 -67)" d="M 6503.72,1604.55 L 6521.32,1604.55 L 6521.32,1800.37 L 6503.72,1800.37 L 6503.72,1604.55 Z " />
<path stroke="none" fill="#000000" transform="matrix(0.05 0 0 0.05 -116 -67)" d="M 6451.88,1604.55 L 6469.48,1604.55 L 6469.48,1800.37 L 6451.88,1800.37 L 6451.88,1604.55 Z " />
<text x="0" y="0" stroke="none" fill="#000000" transform="matrix(0.05 0 0 0.05 217.189 33.0515)" font-style="normal" font-weight="normal" font-size="200px" font-family="Arial" >
Cl</text>
<path stroke="none" fill="#000000" transform="matrix(0.05 0 0 0.05 -116 -67)" d="M 6486.78,1795.12 L 6486.75,1774.77 L 6654.21,1872.02 L 6645.41,1887.26 L 6486.78,1795.12 Z " />
<path stroke="none" fill="#000000" transform="matrix(0.05 0 0 0.05 -116 -67)" d="M 6486.75,1774.77 L 6486.78,1795.12 L 6237.2,1939.93 L 6237.2,1919.58 L 6486.75,1774.77 Z " />
<path stroke="none" fill="#000000" transform="matrix(0.05 0 0 0.05 -116 -67)" d="M 6237.2,1919.58 L 6237.2,1939.93 L 5987.69,1795.16 L 5987.7,1774.8 L 6237.2,1919.58 Z " />
<text x="0" y="0" stroke="none" fill="#000000" transform="matrix(0.05 0 0 0.05 159.809 33.0515)" font-style="normal" font-weight="normal" font-size="200px" font-family="Arial" >
Me</text>
<path stroke="none" fill="#000000" transform="matrix(0.05 0 0 0.05 -116 -67)" d="M 5987.7,1774.8 L 5987.69,1795.16 L 5805.68,1900.71 L 5796.88,1885.47 L 5987.7,1774.8 Z " />
<text x="0" y="0" stroke="none" fill="#000000" transform="matrix(0.05 0 0 0.05 102.685 10.1015)" font-style="normal" font-weight="normal" font-size="200px" font-family="Arial" >
SOCl</text>
<text x="0" y="0" stroke="none" fill="#000000" transform="matrix(0.05 0 0 0.05 126.577 12.2207)" font-style="normal" font-weight="normal" font-size="150px" font-family="Arial" >
2</text>
<text x="0" y="0" stroke="none" fill="#000000" transform="matrix(0.05 0 0 0.05 106.67 34.59)" font-style="normal" font-weight="normal" font-size="276px" font-family="PingFang SC" >
△</text>
</svg>
