<?xml version="1.0" standalone="no" ?>
<!DOCTYPE svg PUBLIC "-//W3C//DTD SVG 1.1//EN" "http://www.w3.org/Graphics/SVG/1.1/DTD/svg11.dtd">
<svg width="58px" height="73px" viewBox="0 0 58 73" style="background-color: #ffffff00" xmlns="http://www.w3.org/2000/svg" xmlns:xlink="http://www.w3.org/1999/xlink" version="1.1" >
<text x="0" y="0" stroke="none" fill="#000000" transform="matrix(0.05 0 0 0.05 11.3791 56.2136)" font-style="normal" font-weight="normal" font-size="200px" font-family="Arial" >
N</text>
<path stroke="none" fill="#000000" transform="matrix(0.05 0 0 0.05 -219 -218)" d="M 4422.14,4976.88 L 4439.74,4987.04 L 4439.75,5264.51 L 4422.13,5274.64 L 4422.14,4976.88 Z " />
<path stroke="none" fill="#000000" transform="matrix(0.05 0 0 0.05 -219 -218)" d="M 4474.12,5011.97 L 4491.7,5011.97 L 4491.7,5239.31 L 4474.12,5239.31 L 4474.12,5011.97 Z " />
<path stroke="none" fill="#000000" transform="matrix(0.05 0 0 0.05 -219 -218)" d="M 4422.13,5274.64 L 4439.75,5264.51 L 4581.56,5345.78 L 4572.78,5361 L 4422.13,5274.64 Z " />
<path stroke="none" fill="#000000" transform="matrix(0.05 0 0 0.05 -219 -218)" d="M 4785.35,5361.85 L 4776.56,5346.63 L 4919.85,5264.5 L 4928.35,5269.14 L 4928.11,5278.82 L 4785.35,5361.85 Z " />
<path stroke="none" fill="#000000" transform="matrix(0.05 0 0 0.05 -219 -218)" d="M 4759.52,5317.11 L 4750.73,5301.89 L 4872.3,5231.7 L 4881.08,5246.92 L 4759.52,5317.11 Z " />
<path stroke="none" fill="#000000" transform="matrix(0.05 0 0 0.05 -219 -218)" d="M 4936.84,5264.24 L 4928.35,5269.14 L 4919.85,5264.5 L 4919.86,4987.04 L 4937.46,4976.88 L 4936.84,5264.24 Z " />
<path stroke="none" fill="#000000" transform="matrix(0.05 0 0 0.05 -219 -218)" d="M 4937.46,4976.88 L 4919.86,4987.04 L 4679.8,4848.44 L 4679.8,4838.64 L 4688.1,4833.61 L 4937.46,4976.88 Z " />
<path stroke="none" fill="#000000" transform="matrix(0.05 0 0 0.05 -219 -218)" d="M 4881.08,5004.36 L 4872.3,5019.58 L 4675.41,4905.9 L 4684.19,4890.68 L 4881.08,5004.36 Z " />
<path stroke="none" fill="#000000" transform="matrix(0.05 0 0 0.05 -219 -218)" d="M 4671.5,4833.61 L 4679.8,4838.64 L 4679.8,4848.44 L 4439.74,4987.04 L 4422.14,4976.88 L 4671.5,4833.61 Z " />
<path stroke="none" fill="#000000" transform="matrix(0.05 0 0 0.05 -219 -218)" d="M 4928.11,5278.82 L 4928.35,5269.14 L 4936.84,5264.24 L 5186.18,5407.47 L 5168.59,5417.66 L 4928.11,5278.82 Z " />
<text x="0" y="0" stroke="none" fill="#000000" transform="matrix(0.05 0 0 0.05 36.2341 70.5636)" font-style="normal" font-weight="normal" font-size="200px" font-family="Arial" >
H</text>
<path stroke="none" fill="#000000" transform="matrix(0.05 0 0 0.05 -219 -218)" d="M 5168.59,5417.66 L 5186.18,5407.47 L 5185.69,5595.06 L 5168.11,5595.06 L 5168.59,5417.66 Z " />
<text x="0" y="0" stroke="none" fill="#000000" transform="matrix(0.05 0 0 0.05 48.3832 49.0386)" font-style="normal" font-weight="normal" font-size="200px" font-family="Arial" >
O</text>
<path stroke="none" fill="#000000" transform="matrix(0.05 0 0 0.05 -219 -218)" d="M 5155.46,5405.34 L 5146.67,5390.12 L 5317.41,5291.55 L 5326.19,5306.77 L 5155.46,5405.34 Z " />
<path stroke="none" fill="#000000" transform="matrix(0.05 0 0 0.05 -219 -218)" d="M 5181.29,5450.08 L 5172.5,5434.86 L 5343.24,5336.28 L 5352.02,5351.5 L 5181.29,5450.08 Z " />
<text x="0" y="0" stroke="none" fill="#000000" transform="matrix(0.05 0 0 0.05 11.1008 13.1636)" font-style="normal" font-weight="normal" font-size="200px" font-family="Arial" >
O</text>
<path stroke="none" fill="#000000" transform="matrix(0.05 0 0 0.05 -219 -218)" d="M 4688.1,4833.61 L 4679.8,4838.64 L 4671.5,4833.61 L 4671.01,4658.79 L 4688.59,4658.79 L 4688.1,4833.61 Z " />
<path stroke="none" fill="#000000" transform="matrix(0.05 0 0 0.05 -219 -218)" d="M 4593.91,4491.9 L 4585.12,4507.12 L 4426.86,4415.75 L 4435.64,4400.53 L 4593.91,4491.9 Z " />
</svg>
